<mxfile host="app.diagrams.net" modified="2020-07-10T14:40:25.995Z" agent="5.0 (Windows NT 10.0; Win64; x64) AppleWebKit/537.36 (KHTML, like Gecko) Chrome/83.0.4103.116 Safari/537.36" etag="DCQHo-60FgiS8jL22KXG" version="13.4.1" type="github">
  <diagram id="VyTJ_rjlSPZq4X1Beuz2" name="Page-1">
    <mxGraphModel dx="1201" dy="540" grid="0" gridSize="10" guides="1" tooltips="1" connect="1" arrows="1" fold="1" page="0" pageScale="1" pageWidth="1100" pageHeight="850" math="0" shadow="0">
      <root>
        <mxCell id="0" />
        <mxCell id="1" parent="0" />
        <mxCell id="ufcLUfaZhDcKgXgrHdeU-1" value="&lt;b&gt;Simulator&amp;nbsp;&lt;/b&gt;&lt;br&gt;&lt;br&gt;Reads Input excel&lt;br&gt;&amp;nbsp;&lt;br&gt;Parses the data &lt;br&gt;&lt;br&gt;Plays the Parsed data to Adapter based on Device Type and Time Ticks&lt;br&gt;&lt;br&gt;Converts Meaningful to Raw data Wraps it in protocol format based on Device Family and send to UCB" style="rounded=0;whiteSpace=wrap;html=1;fillColor=#dae8fc;strokeColor=#6c8ebf;" vertex="1" parent="1">
          <mxGeometry x="38" y="98" width="213" height="184" as="geometry" />
        </mxCell>
        <mxCell id="ufcLUfaZhDcKgXgrHdeU-2" value="&lt;b&gt;UCB&lt;/b&gt;&lt;br&gt;&lt;br&gt;Processes the Raw data &lt;br&gt;&lt;br&gt;Generates Cycle File &lt;br&gt;&lt;br&gt;Triggers Events for IRDS&amp;nbsp;" style="rounded=0;whiteSpace=wrap;html=1;fillColor=#e1d5e7;strokeColor=#9673a6;" vertex="1" parent="1">
          <mxGeometry x="42" y="337" width="209" height="182" as="geometry" />
        </mxCell>
        <mxCell id="ufcLUfaZhDcKgXgrHdeU-3" value="&lt;b&gt;MQTT&lt;br&gt;&lt;br&gt;&lt;br&gt;&lt;br&gt;&lt;br&gt;&lt;br&gt;&lt;br&gt;&lt;br&gt;&lt;br&gt;&lt;br&gt;&lt;br&gt;&lt;br&gt;&lt;br&gt;&lt;br&gt;&lt;br&gt;&lt;br&gt;&lt;br&gt;&lt;br&gt;&lt;br&gt;&lt;br&gt;&lt;br&gt;&lt;br&gt;&lt;br&gt;&lt;br&gt;&lt;br&gt;&lt;br&gt;&lt;/b&gt;" style="rounded=0;whiteSpace=wrap;html=1;fillColor=#fff2cc;strokeColor=#d6b656;" vertex="1" parent="1">
          <mxGeometry x="452" y="127" width="165" height="386" as="geometry" />
        </mxCell>
        <mxCell id="ufcLUfaZhDcKgXgrHdeU-4" value="" style="endArrow=classic;html=1;" edge="1" parent="1">
          <mxGeometry width="50" height="50" relative="1" as="geometry">
            <mxPoint x="251" y="167" as="sourcePoint" />
            <mxPoint x="448" y="189" as="targetPoint" />
          </mxGeometry>
        </mxCell>
        <mxCell id="ufcLUfaZhDcKgXgrHdeU-5" value="" style="endArrow=classic;html=1;exitX=1;exitY=0.421;exitDx=0;exitDy=0;exitPerimeter=0;" edge="1" parent="1" source="ufcLUfaZhDcKgXgrHdeU-1">
          <mxGeometry width="50" height="50" relative="1" as="geometry">
            <mxPoint x="261" y="177" as="sourcePoint" />
            <mxPoint x="448" y="212" as="targetPoint" />
          </mxGeometry>
        </mxCell>
        <mxCell id="ufcLUfaZhDcKgXgrHdeU-6" value="Publish Meaningful data" style="text;html=1;align=center;verticalAlign=middle;resizable=0;points=[];autosize=1;rotation=5;" vertex="1" parent="1">
          <mxGeometry x="283.5" y="154" width="138" height="18" as="geometry" />
        </mxCell>
        <mxCell id="ufcLUfaZhDcKgXgrHdeU-8" value="Publish Simulator state as&amp;nbsp; key &lt;br&gt;under Topic datapayload" style="text;html=1;align=center;verticalAlign=middle;resizable=0;points=[];autosize=1;rotation=10;" vertex="1" parent="1">
          <mxGeometry x="257" y="193" width="174" height="32" as="geometry" />
        </mxCell>
        <mxCell id="ufcLUfaZhDcKgXgrHdeU-10" value="" style="endArrow=classic;html=1;entryX=-0.007;entryY=0.392;entryDx=0;entryDy=0;entryPerimeter=0;" edge="1" parent="1" target="ufcLUfaZhDcKgXgrHdeU-3">
          <mxGeometry width="50" height="50" relative="1" as="geometry">
            <mxPoint x="251" y="412" as="sourcePoint" />
            <mxPoint x="450" y="384" as="targetPoint" />
          </mxGeometry>
        </mxCell>
        <mxCell id="ufcLUfaZhDcKgXgrHdeU-13" value="Publish Cycle File under&lt;br&gt;&quot;Cyclefile&quot; Topic&amp;nbsp;" style="text;html=1;align=center;verticalAlign=middle;resizable=0;points=[];autosize=1;rotation=-30;" vertex="1" parent="1">
          <mxGeometry x="254" y="328" width="139" height="32" as="geometry" />
        </mxCell>
        <mxCell id="ufcLUfaZhDcKgXgrHdeU-15" value="Publish IRDS data in &quot;&lt;span style=&quot;text-align: center&quot;&gt;cyelestart ,&lt;br&gt;&lt;/span&gt;&lt;span style=&quot;text-align: center&quot;&gt;cyclecomplete,&lt;/span&gt;&lt;span style=&quot;text-align: center&quot;&gt;digitaloutput,&lt;br&gt;&lt;/span&gt;&lt;span style=&quot;text-align: center&quot;&gt;analogoutput&quot; Topics&lt;/span&gt;&lt;span style=&quot;text-align: center&quot;&gt;&lt;br&gt;&lt;/span&gt;" style="text;html=1;align=left;verticalAlign=middle;resizable=0;points=[];autosize=1;rotation=-15;" vertex="1" parent="1">
          <mxGeometry x="259" y="402" width="187" height="46" as="geometry" />
        </mxCell>
        <mxCell id="ufcLUfaZhDcKgXgrHdeU-16" value="Automation Validation Tool" style="rounded=0;whiteSpace=wrap;html=1;fillColor=#dae8fc;strokeColor=#6c8ebf;" vertex="1" parent="1">
          <mxGeometry x="804" y="218" width="130" height="87" as="geometry" />
        </mxCell>
        <mxCell id="ufcLUfaZhDcKgXgrHdeU-17" value="" style="endArrow=classic;html=1;" edge="1" parent="1">
          <mxGeometry width="50" height="50" relative="1" as="geometry">
            <mxPoint x="801" y="256" as="sourcePoint" />
            <mxPoint x="616" y="256" as="targetPoint" />
          </mxGeometry>
        </mxCell>
        <mxCell id="ufcLUfaZhDcKgXgrHdeU-18" value="Subscribes to&lt;br&gt;&amp;nbsp;these Topic" style="text;html=1;align=center;verticalAlign=middle;resizable=0;points=[];autosize=1;" vertex="1" parent="1">
          <mxGeometry x="651" y="218" width="83" height="32" as="geometry" />
        </mxCell>
        <mxCell id="ufcLUfaZhDcKgXgrHdeU-19" value="" style="endArrow=classic;html=1;entryX=1;entryY=0.5;entryDx=0;entryDy=0;" edge="1" parent="1" target="ufcLUfaZhDcKgXgrHdeU-3">
          <mxGeometry width="50" height="50" relative="1" as="geometry">
            <mxPoint x="803" y="265" as="sourcePoint" />
            <mxPoint x="626" y="266" as="targetPoint" />
          </mxGeometry>
        </mxCell>
        <mxCell id="ufcLUfaZhDcKgXgrHdeU-23" value="Publishes data to UCB&amp;nbsp;&lt;br&gt;like LOT No" style="text;html=1;align=center;verticalAlign=middle;resizable=0;points=[];autosize=1;rotation=-15;" vertex="1" parent="1">
          <mxGeometry x="635" y="304" width="134" height="32" as="geometry" />
        </mxCell>
        <mxCell id="ufcLUfaZhDcKgXgrHdeU-24" value="" style="endArrow=classic;startArrow=classic;html=1;" edge="1" parent="1">
          <mxGeometry width="50" height="50" relative="1" as="geometry">
            <mxPoint x="138" y="339" as="sourcePoint" />
            <mxPoint x="138" y="282" as="targetPoint" />
          </mxGeometry>
        </mxCell>
        <mxCell id="ufcLUfaZhDcKgXgrHdeU-25" value="" style="endArrow=classic;html=1;" edge="1" parent="1">
          <mxGeometry width="50" height="50" relative="1" as="geometry">
            <mxPoint x="844" y="305" as="sourcePoint" />
            <mxPoint x="764" y="408" as="targetPoint" />
          </mxGeometry>
        </mxCell>
        <mxCell id="ufcLUfaZhDcKgXgrHdeU-26" value="" style="endArrow=classic;html=1;entryX=0.433;entryY=-0.007;entryDx=0;entryDy=0;entryPerimeter=0;" edge="1" parent="1" target="ufcLUfaZhDcKgXgrHdeU-27">
          <mxGeometry width="50" height="50" relative="1" as="geometry">
            <mxPoint x="876" y="305" as="sourcePoint" />
            <mxPoint x="898" y="412" as="targetPoint" />
          </mxGeometry>
        </mxCell>
        <mxCell id="ufcLUfaZhDcKgXgrHdeU-27" value="&lt;b&gt;Cycle Comparison&lt;br&gt;&lt;br&gt;&lt;br&gt;&lt;/b&gt;&lt;span style=&quot;color: rgba(0 , 0 , 0 , 0) ; font-family: monospace ; font-size: 0px ; white-space: nowrap&quot;&gt;%3CmxGraphModel%3E%3Croot%3E%3CmxCell%20id%3D%220%22%2F%3E%3CmxCell%20id%3D%221%22%20parent%3D%220%22%2F%3E%3CmxCell%20id%3D%222%22%20value%3D%22%22%20style%3D%22shape%3Dimage%3BimageAspect%3D0%3Baspect%3Dfixed%3BverticalLabelPosition%3Dbottom%3BverticalAlign%3Dtop%3Bimage%3Ddata%3Aimage%2Fpng%2CiVBORw0KGgoAAAANSUhEUgAAAecAAAEICAYAAABlHzwDAAAAAXNSR0IArs4c6QAAAARnQU1BAACxjwv8YQUAAAAJcEhZcwAADsMAAA7DAcdvqGQAADD1SURBVHhe7Z09sus4sq33pMrQG82xFNGzeNZx9bzrtl%2FRrgZw%2FS7zRnTIbPM6PQO9TAAJJpIJEpQEiRTWV5VnkyCQAEECiwB%2F9POf%2F%2FznDoPBYDAYbD8GcYbBYDAYbGcGcYbBYDAYbGcGcYbBYDAYbGcGcd6B%2Fetf%2F4LtyLxjBIPBYO80iPMOjAUB7AOIMwwG24P96BED7HMG9gEfC6%2BhwGAw2DstiLO3AfY%2BgzjvB7QHGAy2B4M478AgzvsB7QEGg%2B3BIM47sBZxvl3O99PPz%2F2H7XS6n6%2B3tKWR2%2BV%2BOl3uW1I9necBQXuAwWB7MIjzDmxNnG%2BXE4nj5Z618Xa9n39O98s2pd0kzi%2FJ81U8cGHxKGgPMBhsD1YX579%2B3%2F%2F44%2Ff9L1mWEVS2P%2B6%2F%2FlRxZ9v%2BmvuT7X%2F8cf8taY399ftXEW%2Fm5wttTZwvNGp9WhQ3CdztNXkeEIgzDAbbg7WLsywn%2B%2BtPEtHa9r%2F%2BvP%2F%2B4%2Bf%2Bx28R1j%2Fvv0iwf%2F8l21mof93%2FlPjJ%2Fvr9Bwny7%2FufOZ5J905z9rmXrYlzTVTD6PZ8TWv3%2B%2FX8cw%2BrPMo9pQscGu2G6WgtzrSct5%2FOcxFeE3KTPpQgpDnfz2cqE4WfLtf7JSzr%2FGm7Tcdc1fR5iE9hxh%2BP4rk8YZ8lnhR8oTyxDMrvChBnGAy2B3tYnKPgJoH1tq%2Bmt%2FYXCfqHhPjD9qg4BwH6EZHjaWde5lEviXQWrjQdfWWxYj9mVBxEzPj3wjLJf5rvzhcIoSzJr11mXyFsuhCwFxaZIj6XmxJIWN7HFE%2Fvb6U8%2BT45XwBU92kC4gyDwfZgfUbOwZR4B%2BH9uf%2F6%2Fef9r5r4rgk4bf9FPsIo6A99UfDr%2FusXjbgp%2FA%2Fy%2Fzssp%2Blw2W7TsXH5w4iKLU3RG388iufyhBG9xJPZgIXyxDIov5JnxR4WZyKPlkl8sih58SU8iFYqdzYl1kzNB2O3ab8S7i3X0qXlM10w5PLY%2BHk5CnF4OI1G5jfeWPNbC0%2BrNSDOMBhsD%2Fb4PWcWJD1NPRNWMxLmqW4lWrMRsutDLIl7uv8cxPLXn6lcyZddZl8hjMQy5ZXTFb5tfPKRhZ3LY2YIwvJyefJ9cn0Bs2Br4rx4%2FzeJ8vVsRqpx64QWrTzarmFG15qa6Olwb7mWLoyG0whZh3s%2BQgTiJlPmtB81v7XwtFoD4gyDwfZgj42cwz1lNSq024PpkXNpPOqWUWkOd31Utsm6DveWa%2BnS8i%2Fah%2Bliw8TPy1GIw8NpMvKv%2Ba2Fy3rF1sQ5TNWSsIh%2BlU9O03IYTYrwpGleUVZ3Wltv90WrnufCNLL48Zb5rzutzX51OF1sSPyZP73fcgHRUB7GrleAOMNgsD3Y4%2FecWWBlFOptXxQmT7jNSFub9SXrOtxbrqUL%2BacRcou%2FsC4jf54xqPithct6xdbEmSneOSaByvdSCZ7aPom6MSykLNg6biF2ajs%2FNFVRrGqe5GtKbwW0shz%2Bkg%2BbLkSZ8uE4dXE2cSdFXy4PY9crQJxhMNgerM8DYelpbRlZx2nfabs7cuZwjkfh86e1F6aRvTLKMv%2BlMs6ntWPZp%2FBUHteflIHjygVEQ3kKH2m9Yi3iXIeFdm2aegc0iuOngTjDYLA92BPirEa6vD2NZqKp%2B64p7p%2F5fjOZvl9trHjPWfuhPKYHsJxyecvhL%2Fmw6ch0PhynLs4mrvtA2DyNxCnWK%2FawOPP9Zsq%2FGDXvFYgzDAaDNVtdnL%2FBGsXx0%2FawOIOXA3GGwWB7MIjzDgzivB8gzjAYbA%2F23eJ8EIM47we0BxgMtgeDOO%2FAIM77Ae0BBoPtwYI4wz5vYB94xwYGg8HebT%2BpTwIAAADAToA4AwAAADsD4gwAAADsDIgzAAAAsDN2J85%2F%2F%2FvfYTDYC%2ByVeP5hMNjzVmOX4vy3v%2F0NBoM9Yf%2F%2B979Ti3oNaJcw2OttqZ3uVpwBAI%2FTS5wBABPe%2B8lbDOIMwGBAnAHojye4WwziDMBgQJwB6I8nuFvs2OLMPzWYfq7x53S6X17xw8UH%2BflCAB6lrzhf7%2Bcf%2BxviZdjtci7a7fmaWptuz2Hb%2BX6EXzwFwMMT3C12YHHmBk%2BCLI03NGzqAJ4V17X0EG9wcD4pzrfLiUT3Qu00brnfVDuWNhy3UDK0NXBcPMHdYscV514iCXEGX87nxPl2v%2FAMV63xWHF2fQFwDDzB3WIHHjlzQ%2F%2B5ny%2FU5HVjF%2FEMf8%2F385mu1H9%2B7ieKdwnLaRrNimyRLoVf1fRbSsd5xim3FIfin3NY6kiKvNG5gH3xMXG2bc7C23VajJzBgfEEV%2BzXr19uuLYDizNxE8GN4pmnxkRki%2BkyZ7tu%2BLVwwd2eLhDSHF2YsjtT18JxOL88dwfAfti3OKcL3dSmuTkBcEQ8wWVjYRbztosdW5wVNxrlhtGsJ6Lesg5jKunOJxF%2FMmf7qg8AdsZhRs52HYAD4QmuFuY1gf4acZ51ALoj8JZ1GDMLZ39q9OulW%2FUBwP7oK87OfeXcHrbec16JD8COsWJrBdmuWzusOMcp5EkAN4%2Bck5hLw%2Bf0ZTqz%2FWL8x9D6tHaOA8C%2B6CvOdJl8ntoEE9pmmp%2Fe9LS2XQfgQFix9YT4K8WZWi51AnrKmUfNHJyEUQtkZTl0FHJv62zFmbdPD4SdeHo7hF%2BDIOcHvSj%2B9EDYPA8A9kZvcaYGEJ4F4TYTTF1EM8V7zuG%2BctrK7SaHy7a4CYCjYcW2JsJfKM4AgEfoL84AAE9wtxjEGYDBgDgD0B9PcLcYxBmAwYA4A9AfT3C3GMQZgMGAOAPQH09wtxjEGYDBgDgD0B9PcLcYxBmAwYA4A9Cff%2F7znw8bxBmAAYE4A9AfT3RbDeIMwIBAnAHojye6rQZxBmBAIM4A9McT3VaDOAMwIBBnAPrjiW6rQZwBGBCIMwD98US31SDOAAwIxBmA%2Fnii22oQZwAGBOIMQH880W01iDMAAwJxBqA%2Fnui2GsQZgAGBOAPQH090Ww3iDMCAQJwB6I8nuq0GcQZzbjf%2BH3wxEOcDgnZ5ODzRbbUvFefb%2FXo%2B3X9%2BfoKdLg%2Be0bfL%2FXS6kLeDcT3ff85XWrjdL6fTvdh92qfzz%2FnOWz1ivZ3uJ6634CME1v29m57H5MH9lHNNqmuGV%2BeUF9dxOD8X6%2FlF57LhM%2BKMdvm17RK4eKLbat8pzuGklcbLJ%2B5Cx7nEOzqBHnkUjVYafKyH2DFWOoGiLKrBu%2F4%2BhJTxbfXmUOR9XehUa3XOaeScpDjntOzl%2F6pz2fARcX7VvvQ49pa3nV%2BxHg7fLoGLJ7qt9lXifLuc7xfnDL1d6IrzkcvKd3QCPaByn9P%2BXs%2B20S6ISW7skauIxqK%2FN9PzmLTupy5DU3lMnXM9e2ka8s%2Fn8pXjXh%2Buh3eKM9plYvH4HrxdAhdPdFvtO8T5Ric2XU36nVW6QqeTN3eI3Li5IYRGfqZtcartROkvafrofKWYbifAjUhNIYmvtHyWq2DyG%2BIUeVAYdUjxKpnLa%2FIw6cUnp4%2FlSumeaoX1TsB2ls2d58J%2Bu%2BUOxyvFl7oO4c7%2BMyr8RMc5HMfgX%2F7W8tH%2BUrq0qQnJI63KPmmfMjVdHfUEyjrnetWdbTvpXA5Jb6TP57jvm3Yq8hZxRrvcQId2CT6OJ7qtdnBxjvewTucLNegUZOCrTOkIeTk0dO4wOIgbmDRou8wNU%2F5yYkX0E0OnjlZNNzHaB%2FsNBVQNMIRLR8R5SMdr%2FKb0WcDoKjqXia%2BoQ8cw2XoH8epOYHm%2F5%2BVO%2BykJuAMP9V7Zf1svMupszUfCJT4vt9abTsPoPCXcxnEp6zzUK4lSvuBYP2gBfS5nqP5YINjHchlK%2Booz2mXT%2BVXw6nYJ9oAnuq12bHHmBrF01nMjKRoxNwDVweUGWFnWYZocrho%2Bh5kGyVfTl6v2ERs6j7jCaELSeXmthafV7by4E%2BDyrO43Udsfobafa%2BFb06XVJlp8mzhBdLgOivNyLs6b773OzuUS9rkuABNdxRnt8gEgzt%2BIJ7qt9tUj59lJzA2IG6c0It2gvOVqg5PGb9J4jcvzkUY7YSq0ltdaOC9zJ2c6nvUOut4JBH%2FKAQvNqj8uT8t%2B1%2FZHaI1vw7em4%2BXWemvxbeO4mDpn8drY2VbjHHDkjHbp8eJ2CXaBJ7qtNsA9ZyE2XJ6GCh0Hdw66QXnLtgEqQgdD%2FqZOJl59T9O1ng9ugOmKPsTXV%2FApvTd9psuwUKY2FjqBwrd0dGFlgZb9JvK6jS91Utl%2Fia%2FDtf%2B1fEQdWBB1vCZiXU1FTT50njZ%2FF1vnaT06SOUMGzZA5%2FGh7zkLvP9ol%2FNzRFH4TuV7PCPwRjzRbbXvEOeEfSo0NNR0Fk%2BdPZMao57a0g1AlpcaHG%2FLDToROqN0tVw8eDL54DLKNJvXEU3pTVl4mbHrm7GdQLnOHSRP%2B3EZW%2B%2BFtux3uZ8qPuWVBdTbf4bThrhcJu58aZv4W8xnSvfQA2FEOG%2BCDyrnWQSe749yGAusyd%2FF1jnBQp%2F3ab2e9bkcoHN3WfSWeYs4J9AuW7DnSLn%2BULsEH8cT3Vb7KnEGL4JGseG%2B2xfBo95JBMA7xRm8iC9sl9%2BOJ7qtBnEGX0scbZgREwhAnAHojye6rQZxBmBAIM4A9McT3VaDOAMwIBBnAPrjiW6rQZwBGJCvEeenH8RaID%2BnsO0JabmdUn3EgR8wa3lA0M0%2FPtUut2uKhwTB7vBEt9UgzgAMyNeJcw%2BRLsTRiKmmyNt5Mj8TX8uKwmqfzBYxpzjyHrOXfwiTvKK%2FmA7sEU90Ww3iDMCAYOTcAI9w08j0238IBfTBE91WgzgDMCBdxZlFxX2vmJbzlCy%2F3x6jt733rsRJheOHUKYR9zMfpQF98ES31SDOAAxIP3FmwVD3Z7VoauGl0WIUuiQwkoCFmuLhh1DWCd9xt3Gp%2Fh75nCvogye6rQZxBmBAuokzi5MROh69lj80QXjCprHhtfg2fGu6tNpEi28T5yg%2FhAL64Iluq0GcARiQvuLsTOm2CJumNb4N35qOlz88cub89VPXYSS9MjddjYOR867wRLfVIM4ADEg3cSZJKKepHQFj8rqNv3Fam8O1%2F7V8ZtPdW4iiOhU1%2BdB52vxdjDjLenSQyhk2bAD3nPeIJ7qtBnEGYED6iTOhH%2FASsaiKJi%2Br%2BPp%2BMcWZ%2FJi0aYSLH0JJ4GntXeKJbqtBnAEYkK7ifAB41PvYE9IAtOOJbqtBnAEYkBHFGT%2BEAt6NJ7qtBnEGYEBGHzkD8A480W01iDMAAwJxBqA%2Fnui22veKs3n445JuL%2BX3Dq3x%2FSedRll8SNTbpt4ltA%2BCVPJnbvxUpdqWH4BpxeYFwEYgzgD0xxPdVvtSceanIfl1jLQahNI8Hek9Mbkkes42fqgkhxXb6%2FnLqx9Zj%2FOrI2m9haVyAtAAxBmA%2Fnii22pfJc48Ig0j1Cbxel6cCx96e9UPv8O4UYg9WvYPr1aABSDOAPTHE91W%2Bw5xDu9JnpQYpRf5eb2qTs%2BLc33kXMl%2Fwf%2F0kYUIT7%2FH6XTetzQFHqbRKbX2Q8uzd0oD%2BCgBqANxBqA%2Fnui22sHFOf7w%2BOmspokFEjX9yzRzgaqIs9wLzqZGxnYbCd80PW2E18vfxtEE%2F1IeKZuIfEohU%2BD5O8VmJO75T%2BXA5%2FyABuIMQH880W21Y4szj1zVaLMGj3DnXwN6cuTMohce5pL1etqc%2F5J%2FIo%2BWOT4v1OJLOP%2B1FwyV%2B9c8Mm%2BoKjAIEGcA%2BuOJbqt978i5wBHiZ8WZERFlltLmvFbuOSd%2FvE%2BLI20J57%2Bz%2FTJg5AwcIM4A9McT3Vb7ynvO8f7tJGpdRs4B5UNtX8p%2F%2BWlt3g8a%2FeZ8Wqa19XZdRtxzBnUgzgD0xxPdVvsOcU7kp7VZmPL9XhY7EtCZQFXEuZgijhY%2BMO%2BKsxoJW2FcyL94z5nEVr%2FnzFPbxQftw4WHiavz0tu1EONpbbAAxBmA%2Fnii22pfJc7Hh4XWXDAA0AGIMwD98US31SDOe4Gnvmn0u%2FYj6wC8AogzAP3xRLfVIM4ADAjEGYD%2BeKLbahBnAAYE4gxAfzzRbbWxxHn2wFf5MNa7WPzxjd7oOuCH2Z7J0n1Irif8BPrVeb97wOP4JB8T58r5t1iXs%2BMdLVSzu43Ph%2Bh3do5W8mfwgzTg1Xii22rjiXPRUPlDIg%2Fe531JQ3SeGO8K55eeLmdCR8VPkm%2FcF4lv%2F6bN3bhS58mFt%2FkNdxyf5zPiXDn%2F0mrEqculY%2BRsu%2FF5ImHF9nr%2By684NrJUTjAknui22hDivPiDGB9tUJ069dprVLV9fbQOOtbd9FqcwK%2Btpboa%2FTi%2BgHeK82L7m%2FG8OBc%2B9Paqn5WPA7XSsn94xXEoPNFtte8W5%2FAO8GlqDA0Nef7OMG9fGW3qd40pbp4Oc%2F1pVN5E%2FHjJ1C2Fz3leOJ9z4SfHqPqvfYBEPlrCU8MpKIVFH1MnNvMb9pfKIe9vc1ypA%2FlL0crpyYV6LfzpfTLHTJBRM6PymxjpOD7PW8R5diy9889S1mVAHyOLs%2B1WHTlX8l%2Fw7x5LXvXOFe2Hlt99TMH%2B8ES31b5UnONHQGaf9XQboVw1y18JnuJygxRhyI01b5cGnxJyow0iUPc3YToijpPX07YUlt3nzqLBP5Vl9unOFCadSkhfpK34DeWgcN0J2b8pCbNaTu0vbvCPWYB9mHoy%2BU351Ovlq47jk%2FQV54Vj6Z1%2FBaYumVB3SeiypTjeNj5XavW5ev4bgn9zLCmme64UX%2B57%2FzEF%2B8MT3Vb7TnHmK%2BfQ8RncRqg7T9PIZ41XNToJc30SS%2F4y844oX5nTPpTikdD5rvqPsBC41cF52H2o%2Bc0dT4qj0%2Bn0TPCR9qvFH1M7Zgxv0ztm8wuMexwfoas4Lx1LRT7%2F0npkXpezutPM6pVEj45tzn4hrXv%2BO6weS0HC%2Be8HjinYH57othpGzkWDMp1CRjpzlV6nsz6ZRX%2BC0xGlDoDLXwpKQue75n%2F16lwJmt4vz6%2BNI2XQf2NEqqvUmYXVBn%2BB2miL%2FZn0s7SELku1Xr71OG7nYyPnAqfevLDasWG8bSKizFLanJe6WPNYO5aChPPfDxxTsD880W21se85h6tsEZIkKtJCTVy%2Bwj2Rr%2Fl9T5uOGzw34mV%2FkUrnROn0%2FV9u6JMbPR1a80%2Bdo3NfK6ZV%2B8SdDqcxaV2%2FOo4NU9um8gkN%2FjT2mFEZi1EzY9MOdhxfQV9xTphjWT3%2F0nrEqUu3zhNrx0NtX8o%2FbKPlaTqcfYhgm2NJ%2F7rnSjGt%2Ff5jCvaHJ7qt9t3inCieFjVTTcW7jKEzSdts4wlppbGmdWlwOp32ueQvwI16foWt743GfMhn9iONnKj5rz4RGkc0sZwxTSxqFLfpPp7jt9jftGz%2F0n%2FRj1iqrzV%2FDvGYsb95%2FYS0OY%2BYz1jH8XneIs6J6cn72vmncepydryjhbrVxy%2FD542ce3r7cv5czimf8pwqjiXjnSu1c%2BlNxxTsD090W20IcT4W3KhV5%2BR2PmD%2F7Ps4vlOcj485lgA04oluq0Gc9wRPs9GVdnmFDnE%2BHAc4jhDnRrxjCUAjnui2GsQZgAGBOAPQH090Ww3iDMCAQJwB6I8nuq0GcQZgQHYlzjzlHx6sMg9YvRl%2B6Gsqg7Li7YNO6Drgh9meyfLtt1D4CfRrfDBU19uIx9HgiW6rQZwBGJDdibMWk1t8e%2BCh%2B7wvEaar%2B%2FR9Pzg%2F8wYB5791XyS%2B%2FZs2d%2BOaXne0%2BQ13HOd4ottqEGcABmQP4rz4gxjvEhaXTp167TWq2r4%2BWgcd6256LU5QrzuOfhwdPNFtNYgzAAPyUXEO7wCfpg7O7cBVx0rb5%2B8M8%2FaV0ab3LnII9%2Fxpyk59%2BmBMhKdN8YM0CRk1Myq%2FiZGO4xxPdFsN4gzAgHxGnONHQJo%2Bq0tr8UMi6oMiIXiKy52rCEPuePN2EbyUkDv4IAJ1fxNlpx7i5PW0LYVl97njb%2FBPZZl9ujOFiQCF9EXait9QDgrnCtVh%2Bm9KwqyWU%2FuLG%2FxjFmAfpp5MflM%2B9Xr5quNo8ES31SDOAAzIR8SZR1mh4zMsdayh80yjl2yp08zpVEcqYa5PYslfxnTqRBhlcQC%2F91yIR0Lnu%2Bo%2FwkLgVgfnYfeh5vdq4uh0Oj0TfKT9avHH1I4Zo0fNjM0vMO5xZDzRbTWIMwADsvuRc9FJlh3shHTmKr1OZ30yi%2F6EeacunTmXvxSUhM53zf%2FqiEsJmt4vz6%2BNI2XQf2NEqqskTGG1wV%2BgNnJmfyb9LC2hy1Ktl289jhBnAMBGPiPOCZ6apM64es%2BZO70sJElUZMhi4vKoBT9Ik%2BLYMLVtKp%2FQ4E9jj5kdNTM27WDH0cMT3VaDOAMwIB8V50TxtLaZPizejw3CkLbZDjGkTaMgWc8dr0qnfS75C3idOuuRei0o5EM%2Bsx8lDDX%2F1ad84%2Bg0ljOmiUWN4oYfpFHpdn0c53ii22oQZwAGZA%2FifCy4o1Yd%2FYqIgb3y3uPoiW6rQZwBGBCI8wZ4mplGT8U0LsT5eHzgOHqi22oQZwAGBOIMQH880W01iDMAAwJxBqA%2Fnui22lji7E1hvGpaA9Nc4EBAnAHojye6rQZxhjiDAYE4A9AfT3RbbQhxfssH9rf62fA4PgCvBuIMQH880W217xbn8J7aaRLBNXGmZf%2B9trN6f4%2Ffs0vhKj6%2FK6dfbJ%2F5CfnoD8q3v8gOwKuBOAPQH090W%2B1LxbnyyTkWyCyyyoKo8ov1lZfgNTk8fUEmZXCTr%2FrU%2FIS8KbwoEEEXEGufgAPg1UCcAeiPJ7qt9p3izCPd4lN1CU9wC%2FG0wi1f0uGRsP6CT4qvfa35sR%2BUN%2FBn47wiA9ADiDMA%2FfFEt9XGGzlbgSxE1fkkHX9RRo94dXzta82PjS9g5Aw%2BAMQZgP54ottquOecw9I0tcxH53AW5%2Bm%2BMD9cNk1fq2lt%2FmD6kp9Z3rjnDD4HxBmA%2Fnii22rfLc6J5qe1Kx865%2FQyVW0f%2FMrhPPpd8mPzxtPa4INAnAHojye6rTaEOAMASiDOAPTHE91WgzgDMCAQZwD644luq0GcARgQiDMA%2FfFEt9UgzgAMCMQZgP54ottqEOdXoh4Qi3acd5evZ11uZd12gJ9WvzrvheN973ewK3G2D0syXtgjvMoPAA%2FgiW6rQZxfie0IDtkxxFfHuusjfyiGH2P%2Fijo7HhBnAPrjiW6rQZxfQP1VrTcJ3RZWX%2BF6fZlz%2FWT4XfCUx1fU2fHYgzg3v%2BL4DFv94BVH8EI80W01iPMzrHzk5MajQ14P4epHL2jdf59aPhHKPmPgLMx2NrLemAcloP5n6eMnjjgaX5OoSn4xfPpRj4StH0FGzYyUP64dtM6Ox0fFedPHgeKye1z4XAnHmY38yYmn4uMHacAn8US31SDOD0ENmBrz6g9r6A6AOo%2F4CdDKD2NoUQzxedkJy%2FETsh62r%2BWhoA7S%2F2yoFWfnS2jcC%2Br8irxDLL9%2BAmrUzIS0R6%2Bz4%2FEZcW5sN%2Flc4PpvOC5MDjfnKwn4op%2BQt5wDii861uBzeKLbahDnR%2BAr9nyZrljtONLyrCPiTiN2Kj%2FUgYQRRYw8D7N5yHpTHiFFAYttuStGnFvz03Fq9cPwNl0Qm1aw%2Ft392UudHY%2BPiPOWdqOPUe240Db8IA3YM57othrE%2BSEWRgBeQ9fhoZNQ4mdJV%2Bx2ejiH2TxkfUseTOvIuTU%2FHYeW%2FJEzC6cp1yxtwvrfdZ0dj92NnO05oI%2BRe1z4PGVxTal0fO1rzY%2BNL3zRsQafwxPdVoM4PwM14NV7Z0wRHkd2sx%2FGkM4mOqI4vFwLm%2B6H3Xg0Ip3Pah5hZeM95%2BQrdYLFtLb4LPwrbP3YUTNTTduyP3ups%2BPxGXFO2PPCOwdy2NKxV8eUjs80fW3O1yU%2Fs7y%2F71iDz%2BGJbqtBnF%2FA4lOnjA0PnVOaWlOdAPuRqTcRMT%2BMR4RxWu589oSGqORBPc%2FUKbrETq8YYZDvyVfKQ%2BdX2%2B9ErB%2FuHLeMXI5UZ8fjo%2BKciOdFWJifAzqs5diT2BfnpoTz6HfJj80bT2uDF%2BKJbqtBnAEYkD2IMwDfjie6rQZxBmBAIM4A9McT3VaDOAMwIBBnAPrjiW6rQZwBGBCIMwD98US31SDOC7z%2FxyD2i374JrxDXLwLswY%2FAcuvpqg61DZgfX6aocRZPSAWjc%2FftG3n4Adpjo0nuq0GcW7CeYJ5L9inTTsgr6NkPeanXvPrSg3MXqEauz73wHDirI%2FpIY%2Fxm9qMtNWvqLPP44luq0GcHfIrHplBxMR9jYRfgWoX4nndea9QjVyf%2B2AEca6%2FqrXD8%2B%2BRVxyfZLGtfkWdfR5PdFsN4qwJ70GenAPunJh08vrvTE4%2FBnEiP%2FErVWkaWLardNnnqj%2BKy1e1YYqJLfrkDyvENNSQQnzVoGTd%2BvHyCjgfYLA%2Ba9TqzvvwyMj1uRO%2BWpztuWiO442P%2B4bjWLwjnwJnYSaP158r620mbCvyi%2BE575CIaGmrUv64dtA6%2Bzye6LYaxDlAB5lOBP%2BHGhjbMMxoUp9UdOKFcLuct5sTONzIWfHnFUrH4b86LEQgXD%2BVvNJqgBpv%2FnSht71gqe44L11vwsD1mYI%2BzXeKc%2BVcDMcrde66g286jupcDfF52QnL8ROyHra%2F4lzx2oz5Ehqf%2Bzq%2FIu8Qq72thrRHr7PP44luq0GcGb4qDJ16DdMwwsmjTtxgfDKpE0efRPqk0yeWDl%2Fzx1A8vuLNcazPJf86TpEPmzr5Fdzgzxfj07JUd%2FpKvGDg%2Blw6zd7IV4pz7Vy0x1FoOo5RBPGDNAnr392fvdTZ5%2FFEt9UgzoGlK0rGExO1LtiTyi7rMEaHr%2FkLZaCTUgro%2BSziE7U4Xl6a4krUXLnOqNUdp6vlM3J97oPhRs76OApbjmM6hnZ6OIfZPGR9Sx5M9Vx5gTjTUnNbnaVNWP%2B7rrPP44luq0GcNXSQ3XsxdGoUDYO2hiklUazaSWWX04k2JaOTNFzqNfhLZZiipA%2F9L8Xhq%2BFZnEpeccW9hxPKSXFyg%2BZ6slevtu6qo2Zm7PrcA98pzgl7LhbHRNF0HPkckHOd4%2FByLaznuRL9z9pMapT53Nc%2BC%2F%2BKlrZaTduyP3ups8%2FjiW6rQZwd5k8x2oZBhBM8TbPIyaFPHG85%2FKVGkdPJSUas%2BQurdCKmqZ3pQ%2F901RjSxfKFRhriUD4v%2FIEHnXfwXV56Z2LdcYMy9VWA%2Bvw0Xy3OidyO7fESGo9jcZ6kQD%2Bs57lC6WZthm%2FLiK%2BUh86vtt%2BJxbZaS9u4P%2Fuos8%2FjiW6rQZzfyUpjARtBfT7MCOIMwKfxRLfVIM7vBGLyWlCfDwNxBqA%2Fnui2GsQZgAGBOAPQH090Ww3iDMCAQJwB6I8nuq0GcZ7BTwBe5w8lMDqMl%2FkBhfB0sBCfLHQfzvAe6HDDAOgPxBmA%2Fnii22oQZ4u8VtAizqdTGUcE%2B1XiLOkLPwA8D8QZgP54ottqQ4tzfJUgrQTUawWeIOqwtMwvv0%2BP9pOwy%2BsAvF74eGLk3CLOB3itAOwHiDMA%2FfFEt9XGFOfw3txpLmb6ZfxGcb6pNPz1neonJ5fEOcSjC4Xw5Rx%2Bn4%2FKxhFTuH2XsXg3MF8Z7P%2BFfLAfIM4A9McT3VYbTJxJwMJn3rzPdJqX8VkYgwAas8KbBZgFX6%2BrOLy8Js5BkFOh7Jdyan5COuOTLjz2%2Bik7sB8gzgD0xxPdVhtLnMO0cymPGT1qZgpBTOiwvJxEXXy7cZgVcdZ5ybr9Gzemh87SyD8nKuHRdW1XAYA4A9AfT3RbDSPngBk1M1YwGR2mllkIw2ck2UElDq1QHur%2BNCPbi3iEDbfbmTRCLj4qz2DkDBqAOAPQH090Ww33nHndjpoZVxBVmF3WU81eHOJ6nj5Uz9wo39nH6hlZt3%2FDRh5t2w%2FIx2XccwatQJwB6I8nuq02pjgnNn%2F4XYd525nFOJQXj2pJUIPRCN6NJ%2Bs53P4YA4lwugeeLyrwtDbYAMQZgP54ottqQ4szAKMCcQagP57othrEGYABgTgD0B9PdFsN4gzAgECcAeiPJ7qtBnEGYEAgzgD0xxPdVoM4AzAgEGcA%2BuOJbqtBnAEYEIgzAP3xRLfVIM4ADAjEGYD%2BsMA%2BYxBnAAYD4gxAfzzB3WIQZwAGA%2BIM7v%2F9f8jw2aKeeIK7xSDOAAzGZ8WZBOG%2FqGv5v8b%2B6%2F%2Bl7WAZW38ksv%2BbNjXDPjgdjkVPPMHdYhBnAAbjM%2BKchOB%2F0ipz2NGbiFtafRX%2Fc24Qxq15O%2FX%2Bv5SHzQfHoqTpWCzjCe4WgzgDMBhvF%2Bd%2FUFfijfA8QWDh0KO4vP0aO8vgi406Tx1X%2B1nzwfnabZzmH2QsZKFTprjaRy4%2FxdejzX%2FwF%2B85LpUno9ZnflOY9u2VPfj14PwbxWhLvXc5FimeV99MzT%2BHH%2BJYLOMJ7haDOAMwGG8TZ%2BmU9ahNMxME27Fy5ysdMW9TvoIwqE43p2vwocVDOvrgQ%2BI58Hbp0GcCafNU6zO%2FS%2BVT8MjNrTuOz%2Fsupn0lFuu9kl%2B3Y0HbvPpe8n%2BYY7GMJ7hbDOIMwGDsVpxD58kdvbGQnjrS3CETRVrbAS%2F4KDpjgoWFtxUdfkI6ZbFHBUH7XSyfQvIuBJOpCIhmqd69%2FWR6HIu1%2Bq7598q4y2OxjCe4WwziDMBgvE2chTCycgTFEwRPOAKNgrDmY0ksZh23iltsf1IQquUjRAh6TWvbOhd6HIst9a3x6myXx2IZT3C3GMQZgMF4uzgHuBNNHbMwEwruSHVHq6FtuiNdFIQFH3oEpDv9tY6b88vrVhDMOset%2BV0qH4vBqhDYvNfg%2BFLvC2m7HYtKfS%2F5P8yxWMYT3C0GcQZgMD4jzg4zQSBCB05dTzbVmTcJArHkg5fDiDKZXCzMOm4idOwp3j8onc0%2FhKcOXEZZIYx9pTw9v9XytWDFaANeWYQux2Khvpmaf6%2BcuzwWy3iCu8W%2BV5yv5%2FvPz%2Bl%2BMedbM7fL%2FXS6cFPYDqf9%2BaH8xU7383Xd0%2FV8CvHP6Rz7PLf79XJ9rA7AbtmNOL8dLRwDwiKmxbE7Y9e3J7hb7GvFmYXufD7fT4%2Bq87PirNPervfL6WelLNf7%2BefMp%2FN63rJdx3umvDXoAufh%2BgO7BeI8ItSOZQT5NiDOz9jXiPPtcr7TIC9xIzFkoSPBe1SwnhE7L%2B2av0fy6yHIGalD4nq5nzGC%2FhrGFWcA3ocnuFvs%2BOJMo9LziUbJWjxYtMLcMAtMmtoOQkYCnqaO41RziB1HiMUUNIVp4aPlM418w3YRLKYIJ78q%2Flw0y5Gx9nfhfcj5UxxJH%2F46ZU7hkw%2BJu1Demq8axaiZp7dpPZQ1BYHDAnEGoD%2Be4G6xA4szCQYJzel8ITFLQYnbZRIeXg4iw%2BKk7%2F2y%2BMwElBCRy2LHAs%2F3gWNM9vcTFbIIz%2BnsckYuFNQFQwi2%2BZkwr8xLaUI%2BTnlrvuKagX2oixCBp%2BdDnWMUfWQgzgD0xxPcLXZccWZxcYd%2BUZzi6FBGj0bIGCNsPPp249fS1cLtciaNnHmbLlswEuurk76Wh7e9NU0K9suYKEbNc%2FTFDzgeEGcA%2BuMJ7hb7vpEzi06hHGmkqsWPyeLEosnb0xYrZlbE1sLtsqDTyfS2xktv%2FdjwR9Kk4CK%2FgsqomcHI%2BSuAOAPQH09wt9iBxTlh7jnnaWxFCOMnt11xiiNaScIPlpUj7co0sQkvpolnQhif1o7XDCndlGGMq9N4YYwN99KIf1vemq%2B0mnFHzbjn%2FE1AnAHojye4W%2Bz44pyIT2uzMKn7uQILkUxXpyAtTpxWpppPPL3N4Vq8aLl4%2BIrDGPEbwlM6Gx5M3etlwgWFpEuCZ%2FILyzqMmYVH0S8eIkvxZuWt%2BUqrEa4%2FZ9SMp7W%2FCogzAP3xBHeLfY04f5objTjjiBqAfQNxBqA%2FnuBuMYjzE8gXvYoRMAA7B%2BIMQH88wd1iEGcABgPiDEB%2FPMHdYhBnAAYD4gxAfzzB3WKDijM%2FfXydP3DFuA9KPcCr%2FADwYo4nzo3tlZf5FlPx7Ed8e8F%2FMDJ9eyAsC14YANvxBHeLjSnO8rrQWmN%2Fhlf5AeDFHE6cW9trWD6VcTis%2BtbCA%2BIs6Qs%2FAMzxBHeLfb04lz%2BIwajXhbwG9qpGt9UPXlcCb2LP4vxUe03L%2FKGc%2FHAmC7v%2BxkHh44mRc0v7RpseGk9wt9j3irP5OElGf2SjobHP3kdm2Ic8pR3eYU7hKn5%2BX9qEl%2B81n%2B%2Fn8MQ3dwb40Ad4D7sU5xe117Cs0vAbFe6ncePWujin9tn0ozMhWMXLDRhtemQ8wd1iXyjO1CCoQXk%2FiMHbio9scEMLDcpYaHAcV12BF41akcPjva38ZS7qIBb9hLy54zAe%2BWtiofy44gZ92Jc4v6q9pu3StkIYC75eV3F4WYQ4LAtKnPXHg1jwta%2Ban5DO%2BESbHhJPcLfY94kzN6LigRCFvgpnigaW0I1v1hEkkaVt1R%2FKiF7W%2FdhvfRv4Sry2GwA8w67E%2BVXttVhOoi6%2B3TjMijjrvGTd%2Fo0bw4U5fyUwjPxzohK06bHwBHeLDTRyNlfhjG2AjG58s4bLcONVI163sRJrfmx8AVfZoDPHGDlvbK9mmYWQby0FMazEoRXKQ81qMbK9iEfYcLudSW033qZSoE0PiSe4W%2BwLxTlBDaK4h2Wvwhm3gUlYvBqe%2FUBFEOfpHlL%2BoQyJn3qYcA9qyc8sb%2FKM%2B1PgDexLnBNPt1dnWUSyFoe4nqc2y9wo38UfirF%2Fw8Z0wR4zUIKPNj0ynuBuse8V58T0gxiNo1cdFjqMNBWtGpj7QxlxwxTOV8pLfmzeeLITvIldinPiufbqbGcW41Beoa0moxG8G0%2FWcziNhkObjuUs%2BgTpKNCmh8YT3C329eIMACjZszgD8C14grvFIM4ADAbEGYD%2BeIK7xSDOAAwGxBmA%2FniCu8UgzgAMBsQZgP54grvFIM4ADMahxJmfns5PQj%2FA7AGwDXDa9JBXNH41a90TvxrG8ffzTjM%2FNY4H096NJ7hbDOIMwGAcSZxZ6M78bexH1flZcS6e2I5PaC%2BXJb5qGXR5LW%2FZruM9U94a3mtpoDue4G4xiDMAg7FncY6vUqUVkqj4ShW%2FivigYD0jdl7aNX%2BP5NdDkDPqtTS82vVWPMHdYhBnAAZjl%2BJsP0LCsGjFT3yRwKSp7SBkJOBp6jhONYfYcYRYTEFTmBY%2BWtbfG5iuAXS4%2BW7BTDTLkXH5%2FQLeltY5jqQPf50yp%2FDJh8RdKG%2FNV41i1IyPorwTT3C3GMQZgMHYlziTYJDQeD98ob9FHT7HyYrC4qTv%2FbL4zASUEJHLYscCb77gFxWyCM%2Fp7HJGLhTUBUMItvmZMK%2FMS2lCPk55a77imoF9qIsQgafnQ51jFN0TT3C3GMQZgMHYlTizuLhDvyhOcXQoo0cjZIwRtuoP0tTS1cLtciaNnHmbLlswEmvv5ylreXjbW9OkYL%2BMiWLUPEdf%2FIDX4wnuFoM4AzAYhxg5s%2BgUypFGqvbX3LI4sWjy9rTFipkVsbVwuyzodDK9rfHSWz82%2FJE0KbjIr6AyamYwcn4LnuBuMYgzAIOxL3FOmHvOeRpbEcL4yW1XnOKIVpLwg2XlSLsyTWzCi2nimRDGp7XjNUNKN2UY4%2Bo0Xhhjw7004t%2BWt%2BYrrWbcUTPuOb8TT3C3GMQZgMHYpTgnph%2B%2BUPdzBRYima5OQVqcih%2Bf4OltDtfiRcvFw1ccxojfEJ7S2fBg6l4vEy4oJF0SPJNfWNZhzCxc%2FYiGST8rb81XWo1w%2FTmjZjyt%2FVY8wd1iEGcABmPP4vxpbjTijCNqAJ7DE9wtBnEGYDAgziXyRa9iBAzAk3iCu8UgzgAMBsQZgP54grvFIM4ADAbEGYD%2BeIK7xSDOAAzGfsWZnya%2Bzh%2BgYtwHnx7gVX4AWMET3C0GcQZgMHYrzvL6D8QZfAGe4G4xiDMAg7EHcS5%2F4IJRr%2F%2FsSZzx%2BhF4EE9wtxjEGYDB%2BKg4m4%2BNZPRHM9bEmZZn7xcz7EOeug7vJKdwFT%2B%2F%2F2zCy%2FeUz%2FdzeIKbLxbw4Q7wGJ7gbjGIMwCD8RlxJpHzPtMZMB%2FNYIHMIqssiKr5QEkQU2cknMM5vvrSFr%2FHvOQn5K0%2BAyrgk5dgI57gbjGIMwCD8RFx5lFt7eMeetTMeIJbiKcV7iSytK36wxfRy7of%2B%2B1uA34sArTiCe4WgzgDMBj7GjmbUTNjBZUpRNX5NCWFLP7wRQxd92PjCxg5g414grvFIM4ADMZnxDlh7znbUTPjCWQOS9PUkiaHV374QuLLtDb%2FgMSSn1neuOcMHsMT3C0GcQZgMD4qzonpBy4aR686zPvBCQ5mEU1T1PbBrxzOo98lPzZvPK0NHsQT3C0GcQZgMPYgzgB8O57gbjGIMwCDAXEGoD%2Be4G4xiDMAgwFxBqA%2FnuBuMYgzAIMBcQagP57gbjGIMwCDAXEGoD%2Be4G4xiDMAgwFxBqA%2FnuBuMYgzAIMBcQagP57gbjGIMwCDAXEGoD%2Be4G4xiDMAgwFxBqA%2FnuBuMYgzAIMBcQagP57gbjGIMwCDAXEGoD%2Be4G4xiDMAgwFxBqA%2FVmx%2F%2Ffo1C1sKhzgDMBgQZwD6Y8WWRdgKsRcmBnEGYDAgzgD0x4qtCLGIsV23BnEGYDAgzgD0xxNcLchLwswGcQZgMCDOAPTHE1y2FmFmgzgDMBgQZwD64wmu2Jows0GcARgMiDMA%2FfEEd4tBnAEYDIgzAP3xBHeLQZwBGAyIMwD98QR3i0GcARgMiDMA%2FfEEd4tBnAEYDIgzAP3xBHeLHU6cucAwGOw5eyVolzBYH6uxO3EGAAAARgfiDAAAAOwMiDMAAACwK%2B73%2Fw9IsknvHsBweAAAAABJRU5ErkJggg%3D%3D%3B%22%20vertex%3D%221%22%20parent%3D%221%22%3E%3CmxGeometry%20x%3D%22559%22%20y%3D%22316%22%20width%3D%22285.92%22%20height%3D%22155%22%20as%3D%22geometry%22%2F%3E%3C%2FmxCell%3E%3C%2Froot%3E%3C%2FmxGraphModel%3E&lt;/span&gt;&lt;span style=&quot;color: rgba(0 , 0 , 0 , 0) ; font-family: monospace ; font-size: 0px ; white-space: nowrap&quot;&gt;%3CmxGraphModel%3E%3Croot%3E%3CmxCell%20id%3D%220%22%2F%3E%3CmxCell%20id%3D%221%22%20parent%3D%220%22%2F%3E%3CmxCell%20id%3D%222%22%20value%3D%22%22%20style%3D%22shape%3Dimage%3BimageAspect%3D0%3Baspect%3Dfixed%3BverticalLabelPosition%3Dbottom%3BverticalAlign%3Dtop%3Bimage%3Ddata%3Aimage%2Fpng%2CiVBORw0KGgoAAAANSUhEUgAAAecAAAEICAYAAABlHzwDAAAAAXNSR0IArs4c6QAAAARnQU1BAACxjwv8YQUAAAAJcEhZcwAADsMAAA7DAcdvqGQAADD1SURBVHhe7Z09sus4sq33pMrQG82xFNGzeNZx9bzrtl%2FRrgZw%2FS7zRnTIbPM6PQO9TAAJJpIJEpQEiRTWV5VnkyCQAEECiwB%2F9POf%2F%2FznDoPBYDAYbD8GcYbBYDAYbGcGcYbBYDAYbGcGcYbBYDAYbGcGcd6B%2Fetf%2F4LtyLxjBIPBYO80iPMOjAUB7AOIMwwG24P96BED7HMG9gEfC6%2BhwGAw2DstiLO3AfY%2BgzjvB7QHGAy2B4M478AgzvsB7QEGg%2B3BIM47sBZxvl3O99PPz%2F2H7XS6n6%2B3tKWR2%2BV%2BOl3uW1I9necBQXuAwWB7MIjzDmxNnG%2BXE4nj5Z618Xa9n39O98s2pd0kzi%2FJ81U8cGHxKGgPMBhsD1YX579%2B3%2F%2F44%2Ff9L1mWEVS2P%2B6%2F%2FlRxZ9v%2BmvuT7X%2F8cf8taY399ftXEW%2Fm5wttTZwvNGp9WhQ3CdztNXkeEIgzDAbbg7WLsywn%2B%2BtPEtHa9r%2F%2BvP%2F%2B4%2Bf%2Bx28R1j%2Fvv0iwf%2F8l21mof93%2FlPjJ%2Fvr9Bwny7%2FufOZ5J905z9rmXrYlzTVTD6PZ8TWv3%2B%2FX8cw%2BrPMo9pQscGu2G6WgtzrSct5%2FOcxFeE3KTPpQgpDnfz2cqE4WfLtf7JSzr%2FGm7Tcdc1fR5iE9hxh%2BP4rk8YZ8lnhR8oTyxDMrvChBnGAy2B3tYnKPgJoH1tq%2Bmt%2FYXCfqHhPjD9qg4BwH6EZHjaWde5lEviXQWrjQdfWWxYj9mVBxEzPj3wjLJf5rvzhcIoSzJr11mXyFsuhCwFxaZIj6XmxJIWN7HFE%2Fvb6U8%2BT45XwBU92kC4gyDwfZgfUbOwZR4B%2BH9uf%2F6%2Fef9r5r4rgk4bf9FPsIo6A99UfDr%2FusXjbgp%2FA%2Fy%2Fzssp%2Blw2W7TsXH5w4iKLU3RG388iufyhBG9xJPZgIXyxDIov5JnxR4WZyKPlkl8sih58SU8iFYqdzYl1kzNB2O3ab8S7i3X0qXlM10w5PLY%2BHk5CnF4OI1G5jfeWPNbC0%2BrNSDOMBhsD%2Fb4PWcWJD1NPRNWMxLmqW4lWrMRsutDLIl7uv8cxPLXn6lcyZddZl8hjMQy5ZXTFb5tfPKRhZ3LY2YIwvJyefJ9cn0Bs2Br4rx4%2FzeJ8vVsRqpx64QWrTzarmFG15qa6Olwb7mWLoyG0whZh3s%2BQgTiJlPmtB81v7XwtFoD4gyDwfZgj42cwz1lNSq024PpkXNpPOqWUWkOd31Utsm6DveWa%2BnS8i%2Fah%2Bliw8TPy1GIw8NpMvKv%2Ba2Fy3rF1sQ5TNWSsIh%2BlU9O03IYTYrwpGleUVZ3Wltv90WrnufCNLL48Zb5rzutzX51OF1sSPyZP73fcgHRUB7GrleAOMNgsD3Y4%2FecWWBlFOptXxQmT7jNSFub9SXrOtxbrqUL%2BacRcou%2FsC4jf54xqPithct6xdbEmSneOSaByvdSCZ7aPom6MSykLNg6biF2ajs%2FNFVRrGqe5GtKbwW0shz%2Bkg%2BbLkSZ8uE4dXE2cSdFXy4PY9crQJxhMNgerM8DYelpbRlZx2nfabs7cuZwjkfh86e1F6aRvTLKMv%2BlMs6ntWPZp%2FBUHteflIHjygVEQ3kKH2m9Yi3iXIeFdm2aegc0iuOngTjDYLA92BPirEa6vD2NZqKp%2B64p7p%2F5fjOZvl9trHjPWfuhPKYHsJxyecvhL%2Fmw6ch0PhynLs4mrvtA2DyNxCnWK%2FawOPP9Zsq%2FGDXvFYgzDAaDNVtdnL%2FBGsXx0%2FawOIOXA3GGwWB7MIjzDgzivB8gzjAYbA%2F23eJ8EIM47we0BxgMtgeDOO%2FAIM77Ae0BBoPtwYI4wz5vYB94xwYGg8HebT%2BpTwIAAADAToA4AwAAADsD4gwAAADsDIgzAAAAsDN2J85%2F%2F%2FvfYTDYC%2ByVeP5hMNjzVmOX4vy3v%2F0NBoM9Yf%2F%2B979Ti3oNaJcw2OttqZ3uVpwBAI%2FTS5wBABPe%2B8lbDOIMwGBAnAHojye4WwziDMBgQJwB6I8nuFvs2OLMPzWYfq7x53S6X17xw8UH%2BflCAB6lrzhf7%2Bcf%2BxviZdjtci7a7fmaWptuz2Hb%2BX6EXzwFwMMT3C12YHHmBk%2BCLI03NGzqAJ4V17X0EG9wcD4pzrfLiUT3Qu00brnfVDuWNhy3UDK0NXBcPMHdYscV514iCXEGX87nxPl2v%2FAMV63xWHF2fQFwDDzB3WIHHjlzQ%2F%2B5ny%2FU5HVjF%2FEMf8%2F385mu1H9%2B7ieKdwnLaRrNimyRLoVf1fRbSsd5xim3FIfin3NY6kiKvNG5gH3xMXG2bc7C23VajJzBgfEEV%2BzXr19uuLYDizNxE8GN4pmnxkRki%2BkyZ7tu%2BLVwwd2eLhDSHF2YsjtT18JxOL88dwfAfti3OKcL3dSmuTkBcEQ8wWVjYRbztosdW5wVNxrlhtGsJ6Lesg5jKunOJxF%2FMmf7qg8AdsZhRs52HYAD4QmuFuY1gf4acZ51ALoj8JZ1GDMLZ39q9OulW%2FUBwP7oK87OfeXcHrbec16JD8COsWJrBdmuWzusOMcp5EkAN4%2Bck5hLw%2Bf0ZTqz%2FWL8x9D6tHaOA8C%2B6CvOdJl8ntoEE9pmmp%2Fe9LS2XQfgQFix9YT4K8WZWi51AnrKmUfNHJyEUQtkZTl0FHJv62zFmbdPD4SdeHo7hF%2BDIOcHvSj%2B9EDYPA8A9kZvcaYGEJ4F4TYTTF1EM8V7zuG%2BctrK7SaHy7a4CYCjYcW2JsJfKM4AgEfoL84AAE9wtxjEGYDBgDgD0B9PcLcYxBmAwYA4A9AfT3C3GMQZgMGAOAPQH09wtxjEGYDBgDgD0B9PcLcYxBmAwYA4A9Cff%2F7znw8bxBmAAYE4A9AfT3RbDeIMwIBAnAHojye6rQZxBmBAIM4A9McT3VaDOAMwIBBnAPrjiW6rQZwBGBCIMwD98US31SDOAAwIxBmA%2Fnii22oQZwAGBOIMQH880W01iDMAAwJxBqA%2Fnui2GsQZgAGBOAPQH090Ww3iDMCAQJwB6I8nuq0GcQZzbjf%2BH3wxEOcDgnZ5ODzRbbUvFefb%2FXo%2B3X9%2BfoKdLg%2Be0bfL%2FXS6kLeDcT3ff85XWrjdL6fTvdh92qfzz%2FnOWz1ivZ3uJ6634CME1v29m57H5MH9lHNNqmuGV%2BeUF9dxOD8X6%2FlF57LhM%2BKMdvm17RK4eKLbat8pzuGklcbLJ%2B5Cx7nEOzqBHnkUjVYafKyH2DFWOoGiLKrBu%2F4%2BhJTxbfXmUOR9XehUa3XOaeScpDjntOzl%2F6pz2fARcX7VvvQ49pa3nV%2BxHg7fLoGLJ7qt9lXifLuc7xfnDL1d6IrzkcvKd3QCPaByn9P%2BXs%2B20S6ISW7skauIxqK%2FN9PzmLTupy5DU3lMnXM9e2ka8s%2Fn8pXjXh%2Buh3eKM9plYvH4HrxdAhdPdFvtO8T5Ric2XU36nVW6QqeTN3eI3Li5IYRGfqZtcartROkvafrofKWYbifAjUhNIYmvtHyWq2DyG%2BIUeVAYdUjxKpnLa%2FIw6cUnp4%2FlSumeaoX1TsB2ls2d58J%2Bu%2BUOxyvFl7oO4c7%2BMyr8RMc5HMfgX%2F7W8tH%2BUrq0qQnJI63KPmmfMjVdHfUEyjrnetWdbTvpXA5Jb6TP57jvm3Yq8hZxRrvcQId2CT6OJ7qtdnBxjvewTucLNegUZOCrTOkIeTk0dO4wOIgbmDRou8wNU%2F5yYkX0E0OnjlZNNzHaB%2FsNBVQNMIRLR8R5SMdr%2FKb0WcDoKjqXia%2BoQ8cw2XoH8epOYHm%2F5%2BVO%2BykJuAMP9V7Zf1svMupszUfCJT4vt9abTsPoPCXcxnEp6zzUK4lSvuBYP2gBfS5nqP5YINjHchlK%2Booz2mXT%2BVXw6nYJ9oAnuq12bHHmBrF01nMjKRoxNwDVweUGWFnWYZocrho%2Bh5kGyVfTl6v2ERs6j7jCaELSeXmthafV7by4E%2BDyrO43Udsfobafa%2BFb06XVJlp8mzhBdLgOivNyLs6b773OzuUS9rkuABNdxRnt8gEgzt%2BIJ7qt9tUj59lJzA2IG6c0It2gvOVqg5PGb9J4jcvzkUY7YSq0ltdaOC9zJ2c6nvUOut4JBH%2FKAQvNqj8uT8t%2B1%2FZHaI1vw7em4%2BXWemvxbeO4mDpn8drY2VbjHHDkjHbp8eJ2CXaBJ7qtNsA9ZyE2XJ6GCh0Hdw66QXnLtgEqQgdD%2FqZOJl59T9O1ng9ugOmKPsTXV%2FApvTd9psuwUKY2FjqBwrd0dGFlgZb9JvK6jS91Utl%2Fia%2FDtf%2B1fEQdWBB1vCZiXU1FTT50njZ%2FF1vnaT06SOUMGzZA5%2FGh7zkLvP9ol%2FNzRFH4TuV7PCPwRjzRbbXvEOeEfSo0NNR0Fk%2BdPZMao57a0g1AlpcaHG%2FLDToROqN0tVw8eDL54DLKNJvXEU3pTVl4mbHrm7GdQLnOHSRP%2B3EZW%2B%2BFtux3uZ8qPuWVBdTbf4bThrhcJu58aZv4W8xnSvfQA2FEOG%2BCDyrnWQSe749yGAusyd%2FF1jnBQp%2F3ab2e9bkcoHN3WfSWeYs4J9AuW7DnSLn%2BULsEH8cT3Vb7KnEGL4JGseG%2B2xfBo95JBMA7xRm8iC9sl9%2BOJ7qtBnEGX0scbZgREwhAnAHojye6rQZxBmBAIM4A9McT3VaDOAMwIBBnAPrjiW6rQZwBGJCvEeenH8RaID%2BnsO0JabmdUn3EgR8wa3lA0M0%2FPtUut2uKhwTB7vBEt9UgzgAMyNeJcw%2BRLsTRiKmmyNt5Mj8TX8uKwmqfzBYxpzjyHrOXfwiTvKK%2FmA7sEU90Ww3iDMCAYOTcAI9w08j0238IBfTBE91WgzgDMCBdxZlFxX2vmJbzlCy%2F3x6jt733rsRJheOHUKYR9zMfpQF98ES31SDOAAxIP3FmwVD3Z7VoauGl0WIUuiQwkoCFmuLhh1DWCd9xt3Gp%2Fh75nCvogye6rQZxBmBAuokzi5MROh69lj80QXjCprHhtfg2fGu6tNpEi28T5yg%2FhAL64Iluq0GcARiQvuLsTOm2CJumNb4N35qOlz88cub89VPXYSS9MjddjYOR867wRLfVIM4ADEg3cSZJKKepHQFj8rqNv3Fam8O1%2F7V8ZtPdW4iiOhU1%2BdB52vxdjDjLenSQyhk2bAD3nPeIJ7qtBnEGYED6iTOhH%2FASsaiKJi%2Br%2BPp%2BMcWZ%2FJi0aYSLH0JJ4GntXeKJbqtBnAEYkK7ifAB41PvYE9IAtOOJbqtBnAEYkBHFGT%2BEAt6NJ7qtBnEGYEBGHzkD8A480W01iDMAAwJxBqA%2Fnui22veKs3n445JuL%2BX3Dq3x%2FSedRll8SNTbpt4ltA%2BCVPJnbvxUpdqWH4BpxeYFwEYgzgD0xxPdVvtSceanIfl1jLQahNI8Hek9Mbkkes42fqgkhxXb6%2FnLqx9Zj%2FOrI2m9haVyAtAAxBmA%2Fnii22pfJc48Ig0j1Cbxel6cCx96e9UPv8O4UYg9WvYPr1aABSDOAPTHE91W%2Bw5xDu9JnpQYpRf5eb2qTs%2BLc33kXMl%2Fwf%2F0kYUIT7%2FH6XTetzQFHqbRKbX2Q8uzd0oD%2BCgBqANxBqA%2Fnui22sHFOf7w%2BOmspokFEjX9yzRzgaqIs9wLzqZGxnYbCd80PW2E18vfxtEE%2F1IeKZuIfEohU%2BD5O8VmJO75T%2BXA5%2FyABuIMQH880W21Y4szj1zVaLMGj3DnXwN6cuTMohce5pL1etqc%2F5J%2FIo%2BWOT4v1OJLOP%2B1FwyV%2B9c8Mm%2BoKjAIEGcA%2BuOJbqt978i5wBHiZ8WZERFlltLmvFbuOSd%2FvE%2BLI20J57%2Bz%2FTJg5AwcIM4A9McT3Vb7ynvO8f7tJGpdRs4B5UNtX8p%2F%2BWlt3g8a%2FeZ8Wqa19XZdRtxzBnUgzgD0xxPdVvsOcU7kp7VZmPL9XhY7EtCZQFXEuZgijhY%2BMO%2BKsxoJW2FcyL94z5nEVr%2FnzFPbxQftw4WHiavz0tu1EONpbbAAxBmA%2Fnii22pfJc7Hh4XWXDAA0AGIMwD98US31SDOe4Gnvmn0u%2FYj6wC8AogzAP3xRLfVIM4ADAjEGYD%2BeKLbahBnAAYE4gxAfzzRbbWxxHn2wFf5MNa7WPzxjd7oOuCH2Z7J0n1Irif8BPrVeb97wOP4JB8T58r5t1iXs%2BMdLVSzu43Ph%2Bh3do5W8mfwgzTg1Xii22rjiXPRUPlDIg%2Fe531JQ3SeGO8K55eeLmdCR8VPkm%2FcF4lv%2F6bN3bhS58mFt%2FkNdxyf5zPiXDn%2F0mrEqculY%2BRsu%2FF5ImHF9nr%2By684NrJUTjAknui22hDivPiDGB9tUJ069dprVLV9fbQOOtbd9FqcwK%2Btpboa%2FTi%2BgHeK82L7m%2FG8OBc%2B9Paqn5WPA7XSsn94xXEoPNFtte8W5%2FAO8GlqDA0Nef7OMG9fGW3qd40pbp4Oc%2F1pVN5E%2FHjJ1C2Fz3leOJ9z4SfHqPqvfYBEPlrCU8MpKIVFH1MnNvMb9pfKIe9vc1ypA%2FlL0crpyYV6LfzpfTLHTJBRM6PymxjpOD7PW8R5diy9889S1mVAHyOLs%2B1WHTlX8l%2Fw7x5LXvXOFe2Hlt99TMH%2B8ES31b5UnONHQGaf9XQboVw1y18JnuJygxRhyI01b5cGnxJyow0iUPc3YToijpPX07YUlt3nzqLBP5Vl9unOFCadSkhfpK34DeWgcN0J2b8pCbNaTu0vbvCPWYB9mHoy%2BU351Ovlq47jk%2FQV54Vj6Z1%2FBaYumVB3SeiypTjeNj5XavW5ev4bgn9zLCmme64UX%2B57%2FzEF%2B8MT3Vb7TnHmK%2BfQ8RncRqg7T9PIZ41XNToJc30SS%2F4y844oX5nTPpTikdD5rvqPsBC41cF52H2o%2Bc0dT4qj0%2Bn0TPCR9qvFH1M7Zgxv0ztm8wuMexwfoas4Lx1LRT7%2F0npkXpezutPM6pVEj45tzn4hrXv%2BO6weS0HC%2Be8HjinYH57othpGzkWDMp1CRjpzlV6nsz6ZRX%2BC0xGlDoDLXwpKQue75n%2F16lwJmt4vz6%2BNI2XQf2NEqqvUmYXVBn%2BB2miL%2FZn0s7SELku1Xr71OG7nYyPnAqfevLDasWG8bSKizFLanJe6WPNYO5aChPPfDxxTsD880W21se85h6tsEZIkKtJCTVy%2Bwj2Rr%2Fl9T5uOGzw34mV%2FkUrnROn0%2FV9u6JMbPR1a80%2Bdo3NfK6ZV%2B8SdDqcxaV2%2FOo4NU9um8gkN%2FjT2mFEZi1EzY9MOdhxfQV9xTphjWT3%2F0nrEqUu3zhNrx0NtX8o%2FbKPlaTqcfYhgm2NJ%2F7rnSjGt%2Ff5jCvaHJ7qt9t3inCieFjVTTcW7jKEzSdts4wlppbGmdWlwOp32ueQvwI16foWt743GfMhn9iONnKj5rz4RGkc0sZwxTSxqFLfpPp7jt9jftGz%2F0n%2FRj1iqrzV%2FDvGYsb95%2FYS0OY%2BYz1jH8XneIs6J6cn72vmncepydryjhbrVxy%2FD542ce3r7cv5czimf8pwqjiXjnSu1c%2BlNxxTsD090W20IcT4W3KhV5%2BR2PmD%2F7Ps4vlOcj485lgA04oluq0Gc9wRPs9GVdnmFDnE%2BHAc4jhDnRrxjCUAjnui2GsQZgAGBOAPQH090Ww3iDMCAQJwB6I8nuq0GcQZgQHYlzjzlHx6sMg9YvRl%2B6Gsqg7Li7YNO6Drgh9meyfLtt1D4CfRrfDBU19uIx9HgiW6rQZwBGJDdibMWk1t8e%2BCh%2B7wvEaar%2B%2FR9Pzg%2F8wYB5791XyS%2B%2FZs2d%2BOaXne0%2BQ13HOd4ottqEGcABmQP4rz4gxjvEhaXTp167TWq2r4%2BWgcd6256LU5QrzuOfhwdPNFtNYgzAAPyUXEO7wCfpg7O7cBVx0rb5%2B8M8%2FaV0ab3LnII9%2Fxpyk59%2BmBMhKdN8YM0CRk1Myq%2FiZGO4xxPdFsN4gzAgHxGnONHQJo%2Bq0tr8UMi6oMiIXiKy52rCEPuePN2EbyUkDv4IAJ1fxNlpx7i5PW0LYVl97njb%2FBPZZl9ujOFiQCF9EXait9QDgrnCtVh%2Bm9KwqyWU%2FuLG%2FxjFmAfpp5MflM%2B9Xr5quNo8ES31SDOAAzIR8SZR1mh4zMsdayh80yjl2yp08zpVEcqYa5PYslfxnTqRBhlcQC%2F91yIR0Lnu%2Bo%2FwkLgVgfnYfeh5vdq4uh0Oj0TfKT9avHH1I4Zo0fNjM0vMO5xZDzRbTWIMwADsvuRc9FJlh3shHTmKr1OZ30yi%2F6EeacunTmXvxSUhM53zf%2FqiEsJmt4vz6%2BNI2XQf2NEqqskTGG1wV%2BgNnJmfyb9LC2hy1Ktl289jhBnAMBGPiPOCZ6apM64es%2BZO70sJElUZMhi4vKoBT9Ik%2BLYMLVtKp%2FQ4E9jj5kdNTM27WDH0cMT3VaDOAMwIB8V50TxtLaZPizejw3CkLbZDjGkTaMgWc8dr0qnfS75C3idOuuRei0o5EM%2Bsx8lDDX%2F1ad84%2Bg0ljOmiUWN4oYfpFHpdn0c53ii22oQZwAGZA%2FifCy4o1Yd%2FYqIgb3y3uPoiW6rQZwBGBCI8wZ4mplGT8U0LsT5eHzgOHqi22oQZwAGBOIMQH880W01iDMAAwJxBqA%2Fnui22lji7E1hvGpaA9Nc4EBAnAHojye6rQZxhjiDAYE4A9AfT3RbbQhxfssH9rf62fA4PgCvBuIMQH880W217xbn8J7aaRLBNXGmZf%2B9trN6f4%2Ffs0vhKj6%2FK6dfbJ%2F5CfnoD8q3v8gOwKuBOAPQH090W%2B1LxbnyyTkWyCyyyoKo8ov1lZfgNTk8fUEmZXCTr%2FrU%2FIS8KbwoEEEXEGufgAPg1UCcAeiPJ7qt9p3izCPd4lN1CU9wC%2FG0wi1f0uGRsP6CT4qvfa35sR%2BUN%2FBn47wiA9ADiDMA%2FfFEt9XGGzlbgSxE1fkkHX9RRo94dXzta82PjS9g5Aw%2BAMQZgP54ottquOecw9I0tcxH53AW5%2Bm%2BMD9cNk1fq2lt%2FmD6kp9Z3rjnDD4HxBmA%2Fnii22rfLc6J5qe1Kx865%2FQyVW0f%2FMrhPPpd8mPzxtPa4INAnAHojye6rTaEOAMASiDOAPTHE91WgzgDMCAQZwD644luq0GcARgQiDMA%2FfFEt9UgzgAMCMQZgP54ottqEOdXoh4Qi3acd5evZ11uZd12gJ9WvzrvheN973ewK3G2D0syXtgjvMoPAA%2FgiW6rQZxfie0IDtkxxFfHuusjfyiGH2P%2Fijo7HhBnAPrjiW6rQZxfQP1VrTcJ3RZWX%2BF6fZlz%2FWT4XfCUx1fU2fHYgzg3v%2BL4DFv94BVH8EI80W01iPMzrHzk5MajQ14P4epHL2jdf59aPhHKPmPgLMx2NrLemAcloP5n6eMnjjgaX5OoSn4xfPpRj4StH0FGzYyUP64dtM6Ox0fFedPHgeKye1z4XAnHmY38yYmn4uMHacAn8US31SDOD0ENmBrz6g9r6A6AOo%2F4CdDKD2NoUQzxedkJy%2FETsh62r%2BWhoA7S%2F2yoFWfnS2jcC%2Br8irxDLL9%2BAmrUzIS0R6%2Bz4%2FEZcW5sN%2Flc4PpvOC5MDjfnKwn4op%2BQt5wDii861uBzeKLbahDnR%2BAr9nyZrljtONLyrCPiTiN2Kj%2FUgYQRRYw8D7N5yHpTHiFFAYttuStGnFvz03Fq9cPwNl0Qm1aw%2Ft392UudHY%2BPiPOWdqOPUe240Db8IA3YM57othrE%2BSEWRgBeQ9fhoZNQ4mdJV%2Bx2ejiH2TxkfUseTOvIuTU%2FHYeW%2FJEzC6cp1yxtwvrfdZ0dj92NnO05oI%2BRe1z4PGVxTal0fO1rzY%2BNL3zRsQafwxPdVoM4PwM14NV7Z0wRHkd2sx%2FGkM4mOqI4vFwLm%2B6H3Xg0Ip3Pah5hZeM95%2BQrdYLFtLb4LPwrbP3YUTNTTduyP3ups%2BPxGXFO2PPCOwdy2NKxV8eUjs80fW3O1yU%2Fs7y%2F71iDz%2BGJbqtBnF%2FA4lOnjA0PnVOaWlOdAPuRqTcRMT%2BMR4RxWu589oSGqORBPc%2FUKbrETq8YYZDvyVfKQ%2BdX2%2B9ErB%2FuHLeMXI5UZ8fjo%2BKciOdFWJifAzqs5diT2BfnpoTz6HfJj80bT2uDF%2BKJbqtBnAEYkD2IMwDfjie6rQZxBmBAIM4A9McT3VaDOAMwIBBnAPrjiW6rQZwBGBCIMwD98US31SDOC7z%2FxyD2i374JrxDXLwLswY%2FAcuvpqg61DZgfX6aocRZPSAWjc%2FftG3n4Adpjo0nuq0GcW7CeYJ5L9inTTsgr6NkPeanXvPrSg3MXqEauz73wHDirI%2FpIY%2Fxm9qMtNWvqLPP44luq0GcHfIrHplBxMR9jYRfgWoX4nndea9QjVyf%2B2AEca6%2FqrXD8%2B%2BRVxyfZLGtfkWdfR5PdFsN4qwJ70GenAPunJh08vrvTE4%2FBnEiP%2FErVWkaWLardNnnqj%2BKy1e1YYqJLfrkDyvENNSQQnzVoGTd%2BvHyCjgfYLA%2Ba9TqzvvwyMj1uRO%2BWpztuWiO442P%2B4bjWLwjnwJnYSaP158r620mbCvyi%2BE575CIaGmrUv64dtA6%2Bzye6LYaxDlAB5lOBP%2BHGhjbMMxoUp9UdOKFcLuct5sTONzIWfHnFUrH4b86LEQgXD%2BVvNJqgBpv%2FnSht71gqe44L11vwsD1mYI%2BzXeKc%2BVcDMcrde66g286jupcDfF52QnL8ROyHra%2F4lzx2oz5Ehqf%2Bzq%2FIu8Qq72thrRHr7PP44luq0GcGb4qDJ16DdMwwsmjTtxgfDKpE0efRPqk0yeWDl%2Fzx1A8vuLNcazPJf86TpEPmzr5Fdzgzxfj07JUd%2FpKvGDg%2Blw6zd7IV4pz7Vy0x1FoOo5RBPGDNAnr392fvdTZ5%2FFEt9UgzoGlK0rGExO1LtiTyi7rMEaHr%2FkLZaCTUgro%2BSziE7U4Xl6a4krUXLnOqNUdp6vlM3J97oPhRs76OApbjmM6hnZ6OIfZPGR9Sx5M9Vx5gTjTUnNbnaVNWP%2B7rrPP44luq0GcNXSQ3XsxdGoUDYO2hiklUazaSWWX04k2JaOTNFzqNfhLZZiipA%2F9L8Xhq%2BFZnEpeccW9hxPKSXFyg%2BZ6slevtu6qo2Zm7PrcA98pzgl7LhbHRNF0HPkckHOd4%2FByLaznuRL9z9pMapT53Nc%2BC%2F%2BKlrZaTduyP3ups8%2FjiW6rQZwd5k8x2oZBhBM8TbPIyaFPHG85%2FKVGkdPJSUas%2BQurdCKmqZ3pQ%2F901RjSxfKFRhriUD4v%2FIEHnXfwXV56Z2LdcYMy9VWA%2Bvw0Xy3OidyO7fESGo9jcZ6kQD%2Bs57lC6WZthm%2FLiK%2BUh86vtt%2BJxbZaS9u4P%2Fuos8%2FjiW6rQZzfyUpjARtBfT7MCOIMwKfxRLfVIM7vBGLyWlCfDwNxBqA%2Fnui2GsQZgAGBOAPQH090Ww3iDMCAQJwB6I8nuq0GcZ7BTwBe5w8lMDqMl%2FkBhfB0sBCfLHQfzvAe6HDDAOgPxBmA%2Fnii22oQZ4u8VtAizqdTGUcE%2B1XiLOkLPwA8D8QZgP54ottqQ4tzfJUgrQTUawWeIOqwtMwvv0%2BP9pOwy%2BsAvF74eGLk3CLOB3itAOwHiDMA%2FfFEt9XGFOfw3txpLmb6ZfxGcb6pNPz1neonJ5fEOcSjC4Xw5Rx%2Bn4%2FKxhFTuH2XsXg3MF8Z7P%2BFfLAfIM4A9McT3VYbTJxJwMJn3rzPdJqX8VkYgwAas8KbBZgFX6%2BrOLy8Js5BkFOh7Jdyan5COuOTLjz2%2Bik7sB8gzgD0xxPdVhtLnMO0cymPGT1qZgpBTOiwvJxEXXy7cZgVcdZ5ybr9Gzemh87SyD8nKuHRdW1XAYA4A9AfT3RbDSPngBk1M1YwGR2mllkIw2ck2UElDq1QHur%2BNCPbi3iEDbfbmTRCLj4qz2DkDBqAOAPQH090Ww33nHndjpoZVxBVmF3WU81eHOJ6nj5Uz9wo39nH6hlZt3%2FDRh5t2w%2FIx2XccwatQJwB6I8nuq02pjgnNn%2F4XYd525nFOJQXj2pJUIPRCN6NJ%2Bs53P4YA4lwugeeLyrwtDbYAMQZgP54ottqQ4szAKMCcQagP57othrEGYABgTgD0B9PdFsN4gzAgECcAeiPJ7qtBnEGYEAgzgD0xxPdVoM4AzAgEGcA%2BuOJbqtBnAEYEIgzAP3xRLfVIM4ADAjEGYD%2BsMA%2BYxBnAAYD4gxAfzzB3WIQZwAGA%2BIM7v%2F9f8jw2aKeeIK7xSDOAAzGZ8WZBOG%2FqGv5v8b%2B6%2F%2Bl7WAZW38ksv%2BbNjXDPjgdjkVPPMHdYhBnAAbjM%2BKchOB%2F0ipz2NGbiFtafRX%2Fc24Qxq15O%2FX%2Bv5SHzQfHoqTpWCzjCe4WgzgDMBhvF%2Bd%2FUFfijfA8QWDh0KO4vP0aO8vgi406Tx1X%2B1nzwfnabZzmH2QsZKFTprjaRy4%2FxdejzX%2FwF%2B85LpUno9ZnflOY9u2VPfj14PwbxWhLvXc5FimeV99MzT%2BHH%2BJYLOMJ7haDOAMwGG8TZ%2BmU9ahNMxME27Fy5ysdMW9TvoIwqE43p2vwocVDOvrgQ%2BI58Hbp0GcCafNU6zO%2FS%2BVT8MjNrTuOz%2Fsupn0lFuu9kl%2B3Y0HbvPpe8n%2BYY7GMJ7hbDOIMwGDsVpxD58kdvbGQnjrS3CETRVrbAS%2F4KDpjgoWFtxUdfkI6ZbFHBUH7XSyfQvIuBJOpCIhmqd69%2FWR6HIu1%2Bq7598q4y2OxjCe4WwziDMBgvE2chTCycgTFEwRPOAKNgrDmY0ksZh23iltsf1IQquUjRAh6TWvbOhd6HIst9a3x6myXx2IZT3C3GMQZgMF4uzgHuBNNHbMwEwruSHVHq6FtuiNdFIQFH3oEpDv9tY6b88vrVhDMOset%2BV0qH4vBqhDYvNfg%2BFLvC2m7HYtKfS%2F5P8yxWMYT3C0GcQZgMD4jzg4zQSBCB05dTzbVmTcJArHkg5fDiDKZXCzMOm4idOwp3j8onc0%2FhKcOXEZZIYx9pTw9v9XytWDFaANeWYQux2Khvpmaf6%2BcuzwWy3iCu8W%2BV5yv5%2FvPz%2Bl%2BMedbM7fL%2FXS6cFPYDqf9%2BaH8xU7383Xd0%2FV8CvHP6Rz7PLf79XJ9rA7AbtmNOL8dLRwDwiKmxbE7Y9e3J7hb7GvFmYXufD7fT4%2Bq87PirNPervfL6WelLNf7%2BefMp%2FN63rJdx3umvDXoAufh%2BgO7BeI8ItSOZQT5NiDOz9jXiPPtcr7TIC9xIzFkoSPBe1SwnhE7L%2B2av0fy6yHIGalD4nq5nzGC%2FhrGFWcA3ocnuFvs%2BOJMo9LziUbJWjxYtMLcMAtMmtoOQkYCnqaO41RziB1HiMUUNIVp4aPlM418w3YRLKYIJ78q%2Flw0y5Gx9nfhfcj5UxxJH%2F46ZU7hkw%2BJu1Demq8axaiZp7dpPZQ1BYHDAnEGoD%2Be4G6xA4szCQYJzel8ITFLQYnbZRIeXg4iw%2BKk7%2F2y%2BMwElBCRy2LHAs%2F3gWNM9vcTFbIIz%2BnsckYuFNQFQwi2%2BZkwr8xLaUI%2BTnlrvuKagX2oixCBp%2BdDnWMUfWQgzgD0xxPcLXZccWZxcYd%2BUZzi6FBGj0bIGCNsPPp249fS1cLtciaNnHmbLlswEuurk76Wh7e9NU0K9suYKEbNc%2FTFDzgeEGcA%2BuMJ7hb7vpEzi06hHGmkqsWPyeLEosnb0xYrZlbE1sLtsqDTyfS2xktv%2FdjwR9Kk4CK%2FgsqomcHI%2BSuAOAPQH09wt9iBxTlh7jnnaWxFCOMnt11xiiNaScIPlpUj7co0sQkvpolnQhif1o7XDCndlGGMq9N4YYwN99KIf1vemq%2B0mnFHzbjn%2FE1AnAHojye4W%2Bz44pyIT2uzMKn7uQILkUxXpyAtTpxWpppPPL3N4Vq8aLl4%2BIrDGPEbwlM6Gx5M3etlwgWFpEuCZ%2FILyzqMmYVH0S8eIkvxZuWt%2BUqrEa4%2FZ9SMp7W%2FCogzAP3xBHeLfY04f5objTjjiBqAfQNxBqA%2FnuBuMYjzE8gXvYoRMAA7B%2BIMQH88wd1iEGcABgPiDEB%2FPMHdYhBnAAYD4gxAfzzB3WKDijM%2FfXydP3DFuA9KPcCr%2FADwYo4nzo3tlZf5FlPx7Ed8e8F%2FMDJ9eyAsC14YANvxBHeLjSnO8rrQWmN%2Fhlf5AeDFHE6cW9trWD6VcTis%2BtbCA%2BIs6Qs%2FAMzxBHeLfb04lz%2BIwajXhbwG9qpGt9UPXlcCb2LP4vxUe03L%2FKGc%2FHAmC7v%2BxkHh44mRc0v7RpseGk9wt9j3irP5OElGf2SjobHP3kdm2Ic8pR3eYU7hKn5%2BX9qEl%2B81n%2B%2Fn8MQ3dwb40Ad4D7sU5xe117Cs0vAbFe6ncePWujin9tn0ozMhWMXLDRhtemQ8wd1iXyjO1CCoQXk%2FiMHbio9scEMLDcpYaHAcV12BF41akcPjva38ZS7qIBb9hLy54zAe%2BWtiofy44gZ92Jc4v6q9pu3StkIYC75eV3F4WYQ4LAtKnPXHg1jwta%2Ban5DO%2BESbHhJPcLfY94kzN6LigRCFvgpnigaW0I1v1hEkkaVt1R%2FKiF7W%2FdhvfRv4Sry2GwA8w67E%2BVXttVhOoi6%2B3TjMijjrvGTd%2Fo0bw4U5fyUwjPxzohK06bHwBHeLDTRyNlfhjG2AjG58s4bLcONVI163sRJrfmx8AVfZoDPHGDlvbK9mmYWQby0FMazEoRXKQ81qMbK9iEfYcLudSW033qZSoE0PiSe4W%2BwLxTlBDaK4h2Wvwhm3gUlYvBqe%2FUBFEOfpHlL%2BoQyJn3qYcA9qyc8sb%2FKM%2B1PgDexLnBNPt1dnWUSyFoe4nqc2y9wo38UfirF%2Fw8Z0wR4zUIKPNj0ynuBuse8V58T0gxiNo1cdFjqMNBWtGpj7QxlxwxTOV8pLfmzeeLITvIldinPiufbqbGcW41Beoa0moxG8G0%2FWcziNhkObjuUs%2BgTpKNCmh8YT3C329eIMACjZszgD8C14grvFIM4ADAbEGYD%2BeIK7xSDOAAwGxBmA%2FniCu8UgzgAMBsQZgP54grvFIM4ADMahxJmfns5PQj%2FA7AGwDXDa9JBXNH41a90TvxrG8ffzTjM%2FNY4H096NJ7hbDOIMwGAcSZxZ6M78bexH1flZcS6e2I5PaC%2BXJb5qGXR5LW%2FZruM9U94a3mtpoDue4G4xiDMAg7FncY6vUqUVkqj4ShW%2FivigYD0jdl7aNX%2BP5NdDkDPqtTS82vVWPMHdYhBnAAZjl%2BJsP0LCsGjFT3yRwKSp7SBkJOBp6jhONYfYcYRYTEFTmBY%2BWtbfG5iuAXS4%2BW7BTDTLkXH5%2FQLeltY5jqQPf50yp%2FDJh8RdKG%2FNV41i1IyPorwTT3C3GMQZgMHYlziTYJDQeD98ob9FHT7HyYrC4qTv%2FbL4zASUEJHLYscCb77gFxWyCM%2Fp7HJGLhTUBUMItvmZMK%2FMS2lCPk55a77imoF9qIsQgafnQ51jFN0TT3C3GMQZgMHYlTizuLhDvyhOcXQoo0cjZIwRtuoP0tTS1cLtciaNnHmbLlswEmvv5ylreXjbW9OkYL%2BMiWLUPEdf%2FIDX4wnuFoM4AzAYhxg5s%2BgUypFGqvbX3LI4sWjy9rTFipkVsbVwuyzodDK9rfHSWz82%2FJE0KbjIr6AyamYwcn4LnuBuMYgzAIOxL3FOmHvOeRpbEcL4yW1XnOKIVpLwg2XlSLsyTWzCi2nimRDGp7XjNUNKN2UY4%2Bo0Xhhjw7004t%2BWt%2BYrrWbcUTPuOb8TT3C3GMQZgMHYpTgnph%2B%2BUPdzBRYima5OQVqcih%2Bf4OltDtfiRcvFw1ccxojfEJ7S2fBg6l4vEy4oJF0SPJNfWNZhzCxc%2FYiGST8rb81XWo1w%2FTmjZjyt%2FVY8wd1iEGcABmPP4vxpbjTijCNqAJ7DE9wtBnEGYDAgziXyRa9iBAzAk3iCu8UgzgAMBsQZgP54grvFIM4ADAbEGYD%2BeIK7xSDOAAzGfsWZnya%2Bzh%2BgYtwHnx7gVX4AWMET3C0GcQZgMHYrzvL6D8QZfAGe4G4xiDMAg7EHcS5%2F4IJRr%2F%2FsSZzx%2BhF4EE9wtxjEGYDB%2BKg4m4%2BNZPRHM9bEmZZn7xcz7EOeug7vJKdwFT%2B%2F%2F2zCy%2FeUz%2FdzeIKbLxbw4Q7wGJ7gbjGIMwCD8RlxJpHzPtMZMB%2FNYIHMIqssiKr5QEkQU2cknMM5vvrSFr%2FHvOQn5K0%2BAyrgk5dgI57gbjGIMwCD8RFx5lFt7eMeetTMeIJbiKcV7iSytK36wxfRy7of%2B%2B1uA34sArTiCe4WgzgDMBj7GjmbUTNjBZUpRNX5NCWFLP7wRQxd92PjCxg5g414grvFIM4ADMZnxDlh7znbUTPjCWQOS9PUkiaHV374QuLLtDb%2FgMSSn1neuOcMHsMT3C0GcQZgMD4qzonpBy4aR686zPvBCQ5mEU1T1PbBrxzOo98lPzZvPK0NHsQT3C0GcQZgMPYgzgB8O57gbjGIMwCDAXEGoD%2Be4G4xiDMAgwFxBqA%2FnuBuMYgzAIMBcQagP57gbjGIMwCDAXEGoD%2Be4G4xiDMAgwFxBqA%2FnuBuMYgzAIMBcQagP57gbjGIMwCDAXEGoD%2Be4G4xiDMAgwFxBqA%2FnuBuMYgzAIMBcQagP57gbjGIMwCDAXEGoD%2Be4G4xiDMAgwFxBqA%2FVmx%2F%2Ffo1C1sKhzgDMBgQZwD6Y8WWRdgKsRcmBnEGYDAgzgD0x4qtCLGIsV23BnEGYDAgzgD0xxNcLchLwswGcQZgMCDOAPTHE1y2FmFmgzgDMBgQZwD64wmu2Jows0GcARgMiDMA%2FfEEd4tBnAEYDIgzAP3xBHeLQZwBGAyIMwD98QR3i0GcARgMiDMA%2FfEEd4tBnAEYDIgzAP3xBHeLHU6cucAwGOw5eyVolzBYH6uxO3EGAAAARgfiDAAAAOwMiDMAAACwK%2B73%2Fw9IsknvHsBweAAAAABJRU5ErkJggg%3D%3D%3B%22%20vertex%3D%221%22%20parent%3D%221%22%3E%3CmxGeometry%20x%3D%22559%22%20y%3D%22316%22%20width%3D%22285.92%22%20height%3D%22155%22%20as%3D%22geometry%22%2F%3E%3C%2FmxCell%3E%3C%2Froot%3E%3C%2FmxGraphModel%3E&lt;/span&gt;&lt;b&gt;&lt;br&gt;&lt;br&gt;&lt;/b&gt;&lt;span style=&quot;color: rgba(0 , 0 , 0 , 0) ; font-family: monospace ; font-size: 0px ; white-space: nowrap&quot;&gt;%3CmxGraphModel%3E%3Croot%3E%3CmxCell%20id%3D%220%22%2F%3E%3CmxCell%20id%3D%221%22%20parent%3D%220%22%2F%3E%3CmxCell%20id%3D%222%22%20value%3D%22%22%20style%3D%22shape%3Dimage%3BimageAspect%3D0%3Baspect%3Dfixed%3BverticalLabelPosition%3Dbottom%3BverticalAlign%3Dtop%3Bimage%3Ddata%3Aimage%2Fpng%2CiVBORw0KGgoAAAANSUhEUgAAAecAAAEICAYAAABlHzwDAAAAAXNSR0IArs4c6QAAAARnQU1BAACxjwv8YQUAAAAJcEhZcwAADsMAAA7DAcdvqGQAADD1SURBVHhe7Z09sus4sq33pMrQG82xFNGzeNZx9bzrtl%2FRrgZw%2FS7zRnTIbPM6PQO9TAAJJpIJEpQEiRTWV5VnkyCQAEECiwB%2F9POf%2F%2FznDoPBYDAYbD8GcYbBYDAYbGcGcYbBYDAYbGcGcYbBYDAYbGcGcd6B%2Fetf%2F4LtyLxjBIPBYO80iPMOjAUB7AOIMwwG24P96BED7HMG9gEfC6%2BhwGAw2DstiLO3AfY%2BgzjvB7QHGAy2B4M478AgzvsB7QEGg%2B3BIM47sBZxvl3O99PPz%2F2H7XS6n6%2B3tKWR2%2BV%2BOl3uW1I9necBQXuAwWB7MIjzDmxNnG%2BXE4nj5Z618Xa9n39O98s2pd0kzi%2FJ81U8cGHxKGgPMBhsD1YX579%2B3%2F%2F44%2Ff9L1mWEVS2P%2B6%2F%2FlRxZ9v%2BmvuT7X%2F8cf8taY399ftXEW%2Fm5wttTZwvNGp9WhQ3CdztNXkeEIgzDAbbg7WLsywn%2B%2BtPEtHa9r%2F%2BvP%2F%2B4%2Bf%2Bx28R1j%2Fvv0iwf%2F8l21mof93%2FlPjJ%2Fvr9Bwny7%2FufOZ5J905z9rmXrYlzTVTD6PZ8TWv3%2B%2FX8cw%2BrPMo9pQscGu2G6WgtzrSct5%2FOcxFeE3KTPpQgpDnfz2cqE4WfLtf7JSzr%2FGm7Tcdc1fR5iE9hxh%2BP4rk8YZ8lnhR8oTyxDMrvChBnGAy2B3tYnKPgJoH1tq%2Bmt%2FYXCfqHhPjD9qg4BwH6EZHjaWde5lEviXQWrjQdfWWxYj9mVBxEzPj3wjLJf5rvzhcIoSzJr11mXyFsuhCwFxaZIj6XmxJIWN7HFE%2Fvb6U8%2BT45XwBU92kC4gyDwfZgfUbOwZR4B%2BH9uf%2F6%2Fef9r5r4rgk4bf9FPsIo6A99UfDr%2FusXjbgp%2FA%2Fy%2Fzssp%2Blw2W7TsXH5w4iKLU3RG388iufyhBG9xJPZgIXyxDIov5JnxR4WZyKPlkl8sih58SU8iFYqdzYl1kzNB2O3ab8S7i3X0qXlM10w5PLY%2BHk5CnF4OI1G5jfeWPNbC0%2BrNSDOMBhsD%2Fb4PWcWJD1NPRNWMxLmqW4lWrMRsutDLIl7uv8cxPLXn6lcyZddZl8hjMQy5ZXTFb5tfPKRhZ3LY2YIwvJyefJ9cn0Bs2Br4rx4%2FzeJ8vVsRqpx64QWrTzarmFG15qa6Olwb7mWLoyG0whZh3s%2BQgTiJlPmtB81v7XwtFoD4gyDwfZgj42cwz1lNSq024PpkXNpPOqWUWkOd31Utsm6DveWa%2BnS8i%2Fah%2Bliw8TPy1GIw8NpMvKv%2Ba2Fy3rF1sQ5TNWSsIh%2BlU9O03IYTYrwpGleUVZ3Wltv90WrnufCNLL48Zb5rzutzX51OF1sSPyZP73fcgHRUB7GrleAOMNgsD3Y4%2FecWWBlFOptXxQmT7jNSFub9SXrOtxbrqUL%2BacRcou%2FsC4jf54xqPithct6xdbEmSneOSaByvdSCZ7aPom6MSykLNg6biF2ajs%2FNFVRrGqe5GtKbwW0shz%2Bkg%2BbLkSZ8uE4dXE2cSdFXy4PY9crQJxhMNgerM8DYelpbRlZx2nfabs7cuZwjkfh86e1F6aRvTLKMv%2BlMs6ntWPZp%2FBUHteflIHjygVEQ3kKH2m9Yi3iXIeFdm2aegc0iuOngTjDYLA92BPirEa6vD2NZqKp%2B64p7p%2F5fjOZvl9trHjPWfuhPKYHsJxyecvhL%2Fmw6ch0PhynLs4mrvtA2DyNxCnWK%2FawOPP9Zsq%2FGDXvFYgzDAaDNVtdnL%2FBGsXx0%2FawOIOXA3GGwWB7MIjzDgzivB8gzjAYbA%2F23eJ8EIM47we0BxgMtgeDOO%2FAIM77Ae0BBoPtwYI4wz5vYB94xwYGg8HebT%2BpTwIAAADAToA4AwAAADsD4gwAAADsDIgzAAAAsDN2J85%2F%2F%2FvfYTDYC%2ByVeP5hMNjzVmOX4vy3v%2F0NBoM9Yf%2F%2B979Ti3oNaJcw2OttqZ3uVpwBAI%2FTS5wBABPe%2B8lbDOIMwGBAnAHojye4WwziDMBgQJwB6I8nuFvs2OLMPzWYfq7x53S6X17xw8UH%2BflCAB6lrzhf7%2Bcf%2BxviZdjtci7a7fmaWptuz2Hb%2BX6EXzwFwMMT3C12YHHmBk%2BCLI03NGzqAJ4V17X0EG9wcD4pzrfLiUT3Qu00brnfVDuWNhy3UDK0NXBcPMHdYscV514iCXEGX87nxPl2v%2FAMV63xWHF2fQFwDDzB3WIHHjlzQ%2F%2B5ny%2FU5HVjF%2FEMf8%2F385mu1H9%2B7ieKdwnLaRrNimyRLoVf1fRbSsd5xim3FIfin3NY6kiKvNG5gH3xMXG2bc7C23VajJzBgfEEV%2BzXr19uuLYDizNxE8GN4pmnxkRki%2BkyZ7tu%2BLVwwd2eLhDSHF2YsjtT18JxOL88dwfAfti3OKcL3dSmuTkBcEQ8wWVjYRbztosdW5wVNxrlhtGsJ6Lesg5jKunOJxF%2FMmf7qg8AdsZhRs52HYAD4QmuFuY1gf4acZ51ALoj8JZ1GDMLZ39q9OulW%2FUBwP7oK87OfeXcHrbec16JD8COsWJrBdmuWzusOMcp5EkAN4%2Bck5hLw%2Bf0ZTqz%2FWL8x9D6tHaOA8C%2B6CvOdJl8ntoEE9pmmp%2Fe9LS2XQfgQFix9YT4K8WZWi51AnrKmUfNHJyEUQtkZTl0FHJv62zFmbdPD4SdeHo7hF%2BDIOcHvSj%2B9EDYPA8A9kZvcaYGEJ4F4TYTTF1EM8V7zuG%2BctrK7SaHy7a4CYCjYcW2JsJfKM4AgEfoL84AAE9wtxjEGYDBgDgD0B9PcLcYxBmAwYA4A9AfT3C3GMQZgMGAOAPQH09wtxjEGYDBgDgD0B9PcLcYxBmAwYA4A9Cff%2F7znw8bxBmAAYE4A9AfT3RbDeIMwIBAnAHojye6rQZxBmBAIM4A9McT3VaDOAMwIBBnAPrjiW6rQZwBGBCIMwD98US31SDOAAwIxBmA%2Fnii22oQZwAGBOIMQH880W01iDMAAwJxBqA%2Fnui2GsQZgAGBOAPQH090Ww3iDMCAQJwB6I8nuq0GcQZzbjf%2BH3wxEOcDgnZ5ODzRbbUvFefb%2FXo%2B3X9%2BfoKdLg%2Be0bfL%2FXS6kLeDcT3ff85XWrjdL6fTvdh92qfzz%2FnOWz1ivZ3uJ6634CME1v29m57H5MH9lHNNqmuGV%2BeUF9dxOD8X6%2FlF57LhM%2BKMdvm17RK4eKLbat8pzuGklcbLJ%2B5Cx7nEOzqBHnkUjVYafKyH2DFWOoGiLKrBu%2F4%2BhJTxbfXmUOR9XehUa3XOaeScpDjntOzl%2F6pz2fARcX7VvvQ49pa3nV%2BxHg7fLoGLJ7qt9lXifLuc7xfnDL1d6IrzkcvKd3QCPaByn9P%2BXs%2B20S6ISW7skauIxqK%2FN9PzmLTupy5DU3lMnXM9e2ka8s%2Fn8pXjXh%2Buh3eKM9plYvH4HrxdAhdPdFvtO8T5Ric2XU36nVW6QqeTN3eI3Li5IYRGfqZtcartROkvafrofKWYbifAjUhNIYmvtHyWq2DyG%2BIUeVAYdUjxKpnLa%2FIw6cUnp4%2FlSumeaoX1TsB2ls2d58J%2Bu%2BUOxyvFl7oO4c7%2BMyr8RMc5HMfgX%2F7W8tH%2BUrq0qQnJI63KPmmfMjVdHfUEyjrnetWdbTvpXA5Jb6TP57jvm3Yq8hZxRrvcQId2CT6OJ7qtdnBxjvewTucLNegUZOCrTOkIeTk0dO4wOIgbmDRou8wNU%2F5yYkX0E0OnjlZNNzHaB%2FsNBVQNMIRLR8R5SMdr%2FKb0WcDoKjqXia%2BoQ8cw2XoH8epOYHm%2F5%2BVO%2BykJuAMP9V7Zf1svMupszUfCJT4vt9abTsPoPCXcxnEp6zzUK4lSvuBYP2gBfS5nqP5YINjHchlK%2Booz2mXT%2BVXw6nYJ9oAnuq12bHHmBrF01nMjKRoxNwDVweUGWFnWYZocrho%2Bh5kGyVfTl6v2ERs6j7jCaELSeXmthafV7by4E%2BDyrO43Udsfobafa%2BFb06XVJlp8mzhBdLgOivNyLs6b773OzuUS9rkuABNdxRnt8gEgzt%2BIJ7qt9tUj59lJzA2IG6c0It2gvOVqg5PGb9J4jcvzkUY7YSq0ltdaOC9zJ2c6nvUOut4JBH%2FKAQvNqj8uT8t%2B1%2FZHaI1vw7em4%2BXWemvxbeO4mDpn8drY2VbjHHDkjHbp8eJ2CXaBJ7qtNsA9ZyE2XJ6GCh0Hdw66QXnLtgEqQgdD%2FqZOJl59T9O1ng9ugOmKPsTXV%2FApvTd9psuwUKY2FjqBwrd0dGFlgZb9JvK6jS91Utl%2Fia%2FDtf%2B1fEQdWBB1vCZiXU1FTT50njZ%2FF1vnaT06SOUMGzZA5%2FGh7zkLvP9ol%2FNzRFH4TuV7PCPwRjzRbbXvEOeEfSo0NNR0Fk%2BdPZMao57a0g1AlpcaHG%2FLDToROqN0tVw8eDL54DLKNJvXEU3pTVl4mbHrm7GdQLnOHSRP%2B3EZW%2B%2BFtux3uZ8qPuWVBdTbf4bThrhcJu58aZv4W8xnSvfQA2FEOG%2BCDyrnWQSe749yGAusyd%2FF1jnBQp%2F3ab2e9bkcoHN3WfSWeYs4J9AuW7DnSLn%2BULsEH8cT3Vb7KnEGL4JGseG%2B2xfBo95JBMA7xRm8iC9sl9%2BOJ7qtBnEGX0scbZgREwhAnAHojye6rQZxBmBAIM4A9McT3VaDOAMwIBBnAPrjiW6rQZwBGJCvEeenH8RaID%2BnsO0JabmdUn3EgR8wa3lA0M0%2FPtUut2uKhwTB7vBEt9UgzgAMyNeJcw%2BRLsTRiKmmyNt5Mj8TX8uKwmqfzBYxpzjyHrOXfwiTvKK%2FmA7sEU90Ww3iDMCAYOTcAI9w08j0238IBfTBE91WgzgDMCBdxZlFxX2vmJbzlCy%2F3x6jt733rsRJheOHUKYR9zMfpQF98ES31SDOAAxIP3FmwVD3Z7VoauGl0WIUuiQwkoCFmuLhh1DWCd9xt3Gp%2Fh75nCvogye6rQZxBmBAuokzi5MROh69lj80QXjCprHhtfg2fGu6tNpEi28T5yg%2FhAL64Iluq0GcARiQvuLsTOm2CJumNb4N35qOlz88cub89VPXYSS9MjddjYOR867wRLfVIM4ADEg3cSZJKKepHQFj8rqNv3Fam8O1%2F7V8ZtPdW4iiOhU1%2BdB52vxdjDjLenSQyhk2bAD3nPeIJ7qtBnEGYED6iTOhH%2FASsaiKJi%2Br%2BPp%2BMcWZ%2FJi0aYSLH0JJ4GntXeKJbqtBnAEYkK7ifAB41PvYE9IAtOOJbqtBnAEYkBHFGT%2BEAt6NJ7qtBnEGYEBGHzkD8A480W01iDMAAwJxBqA%2Fnui22veKs3n445JuL%2BX3Dq3x%2FSedRll8SNTbpt4ltA%2BCVPJnbvxUpdqWH4BpxeYFwEYgzgD0xxPdVvtSceanIfl1jLQahNI8Hek9Mbkkes42fqgkhxXb6%2FnLqx9Zj%2FOrI2m9haVyAtAAxBmA%2Fnii22pfJc48Ig0j1Cbxel6cCx96e9UPv8O4UYg9WvYPr1aABSDOAPTHE91W%2Bw5xDu9JnpQYpRf5eb2qTs%2BLc33kXMl%2Fwf%2F0kYUIT7%2FH6XTetzQFHqbRKbX2Q8uzd0oD%2BCgBqANxBqA%2Fnui22sHFOf7w%2BOmspokFEjX9yzRzgaqIs9wLzqZGxnYbCd80PW2E18vfxtEE%2F1IeKZuIfEohU%2BD5O8VmJO75T%2BXA5%2FyABuIMQH880W21Y4szj1zVaLMGj3DnXwN6cuTMohce5pL1etqc%2F5J%2FIo%2BWOT4v1OJLOP%2B1FwyV%2B9c8Mm%2BoKjAIEGcA%2BuOJbqt978i5wBHiZ8WZERFlltLmvFbuOSd%2FvE%2BLI20J57%2Bz%2FTJg5AwcIM4A9McT3Vb7ynvO8f7tJGpdRs4B5UNtX8p%2F%2BWlt3g8a%2FeZ8Wqa19XZdRtxzBnUgzgD0xxPdVvsOcU7kp7VZmPL9XhY7EtCZQFXEuZgijhY%2BMO%2BKsxoJW2FcyL94z5nEVr%2FnzFPbxQftw4WHiavz0tu1EONpbbAAxBmA%2Fnii22pfJc7Hh4XWXDAA0AGIMwD98US31SDOe4Gnvmn0u%2FYj6wC8AogzAP3xRLfVIM4ADAjEGYD%2BeKLbahBnAAYE4gxAfzzRbbWxxHn2wFf5MNa7WPzxjd7oOuCH2Z7J0n1Irif8BPrVeb97wOP4JB8T58r5t1iXs%2BMdLVSzu43Ph%2Bh3do5W8mfwgzTg1Xii22rjiXPRUPlDIg%2Fe531JQ3SeGO8K55eeLmdCR8VPkm%2FcF4lv%2F6bN3bhS58mFt%2FkNdxyf5zPiXDn%2F0mrEqculY%2BRsu%2FF5ImHF9nr%2By684NrJUTjAknui22hDivPiDGB9tUJ069dprVLV9fbQOOtbd9FqcwK%2Btpboa%2FTi%2BgHeK82L7m%2FG8OBc%2B9Paqn5WPA7XSsn94xXEoPNFtte8W5%2FAO8GlqDA0Nef7OMG9fGW3qd40pbp4Oc%2F1pVN5E%2FHjJ1C2Fz3leOJ9z4SfHqPqvfYBEPlrCU8MpKIVFH1MnNvMb9pfKIe9vc1ypA%2FlL0crpyYV6LfzpfTLHTJBRM6PymxjpOD7PW8R5diy9889S1mVAHyOLs%2B1WHTlX8l%2Fw7x5LXvXOFe2Hlt99TMH%2B8ES31b5UnONHQGaf9XQboVw1y18JnuJygxRhyI01b5cGnxJyow0iUPc3YToijpPX07YUlt3nzqLBP5Vl9unOFCadSkhfpK34DeWgcN0J2b8pCbNaTu0vbvCPWYB9mHoy%2BU351Ovlq47jk%2FQV54Vj6Z1%2FBaYumVB3SeiypTjeNj5XavW5ev4bgn9zLCmme64UX%2B57%2FzEF%2B8MT3Vb7TnHmK%2BfQ8RncRqg7T9PIZ41XNToJc30SS%2F4y844oX5nTPpTikdD5rvqPsBC41cF52H2o%2Bc0dT4qj0%2Bn0TPCR9qvFH1M7Zgxv0ztm8wuMexwfoas4Lx1LRT7%2F0npkXpezutPM6pVEj45tzn4hrXv%2BO6weS0HC%2Be8HjinYH57othpGzkWDMp1CRjpzlV6nsz6ZRX%2BC0xGlDoDLXwpKQue75n%2F16lwJmt4vz6%2BNI2XQf2NEqqvUmYXVBn%2BB2miL%2FZn0s7SELku1Xr71OG7nYyPnAqfevLDasWG8bSKizFLanJe6WPNYO5aChPPfDxxTsD880W21se85h6tsEZIkKtJCTVy%2Bwj2Rr%2Fl9T5uOGzw34mV%2FkUrnROn0%2FV9u6JMbPR1a80%2Bdo3NfK6ZV%2B8SdDqcxaV2%2FOo4NU9um8gkN%2FjT2mFEZi1EzY9MOdhxfQV9xTphjWT3%2F0nrEqUu3zhNrx0NtX8o%2FbKPlaTqcfYhgm2NJ%2F7rnSjGt%2Ff5jCvaHJ7qt9t3inCieFjVTTcW7jKEzSdts4wlppbGmdWlwOp32ueQvwI16foWt743GfMhn9iONnKj5rz4RGkc0sZwxTSxqFLfpPp7jt9jftGz%2F0n%2FRj1iqrzV%2FDvGYsb95%2FYS0OY%2BYz1jH8XneIs6J6cn72vmncepydryjhbrVxy%2FD542ce3r7cv5czimf8pwqjiXjnSu1c%2BlNxxTsD090W20IcT4W3KhV5%2BR2PmD%2F7Ps4vlOcj485lgA04oluq0Gc9wRPs9GVdnmFDnE%2BHAc4jhDnRrxjCUAjnui2GsQZgAGBOAPQH090Ww3iDMCAQJwB6I8nuq0GcQZgQHYlzjzlHx6sMg9YvRl%2B6Gsqg7Li7YNO6Drgh9meyfLtt1D4CfRrfDBU19uIx9HgiW6rQZwBGJDdibMWk1t8e%2BCh%2B7wvEaar%2B%2FR9Pzg%2F8wYB5791XyS%2B%2FZs2d%2BOaXne0%2BQ13HOd4ottqEGcABmQP4rz4gxjvEhaXTp167TWq2r4%2BWgcd6256LU5QrzuOfhwdPNFtNYgzAAPyUXEO7wCfpg7O7cBVx0rb5%2B8M8%2FaV0ab3LnII9%2Fxpyk59%2BmBMhKdN8YM0CRk1Myq%2FiZGO4xxPdFsN4gzAgHxGnONHQJo%2Bq0tr8UMi6oMiIXiKy52rCEPuePN2EbyUkDv4IAJ1fxNlpx7i5PW0LYVl97njb%2FBPZZl9ujOFiQCF9EXait9QDgrnCtVh%2Bm9KwqyWU%2FuLG%2FxjFmAfpp5MflM%2B9Xr5quNo8ES31SDOAAzIR8SZR1mh4zMsdayh80yjl2yp08zpVEcqYa5PYslfxnTqRBhlcQC%2F91yIR0Lnu%2Bo%2FwkLgVgfnYfeh5vdq4uh0Oj0TfKT9avHH1I4Zo0fNjM0vMO5xZDzRbTWIMwADsvuRc9FJlh3shHTmKr1OZ30yi%2F6EeacunTmXvxSUhM53zf%2FqiEsJmt4vz6%2BNI2XQf2NEqqskTGG1wV%2BgNnJmfyb9LC2hy1Ktl289jhBnAMBGPiPOCZ6apM64es%2BZO70sJElUZMhi4vKoBT9Ik%2BLYMLVtKp%2FQ4E9jj5kdNTM27WDH0cMT3VaDOAMwIB8V50TxtLaZPizejw3CkLbZDjGkTaMgWc8dr0qnfS75C3idOuuRei0o5EM%2Bsx8lDDX%2F1ad84%2Bg0ljOmiUWN4oYfpFHpdn0c53ii22oQZwAGZA%2FifCy4o1Yd%2FYqIgb3y3uPoiW6rQZwBGBCI8wZ4mplGT8U0LsT5eHzgOHqi22oQZwAGBOIMQH880W01iDMAAwJxBqA%2Fnui22lji7E1hvGpaA9Nc4EBAnAHojye6rQZxhjiDAYE4A9AfT3RbbQhxfssH9rf62fA4PgCvBuIMQH880W217xbn8J7aaRLBNXGmZf%2B9trN6f4%2Ffs0vhKj6%2FK6dfbJ%2F5CfnoD8q3v8gOwKuBOAPQH090W%2B1LxbnyyTkWyCyyyoKo8ov1lZfgNTk8fUEmZXCTr%2FrU%2FIS8KbwoEEEXEGufgAPg1UCcAeiPJ7qt9p3izCPd4lN1CU9wC%2FG0wi1f0uGRsP6CT4qvfa35sR%2BUN%2FBn47wiA9ADiDMA%2FfFEt9XGGzlbgSxE1fkkHX9RRo94dXzta82PjS9g5Aw%2BAMQZgP54ottquOecw9I0tcxH53AW5%2Bm%2BMD9cNk1fq2lt%2FmD6kp9Z3rjnDD4HxBmA%2Fnii22rfLc6J5qe1Kx865%2FQyVW0f%2FMrhPPpd8mPzxtPa4INAnAHojye6rTaEOAMASiDOAPTHE91WgzgDMCAQZwD644luq0GcARgQiDMA%2FfFEt9UgzgAMCMQZgP54ottqEOdXoh4Qi3acd5evZ11uZd12gJ9WvzrvheN973ewK3G2D0syXtgjvMoPAA%2FgiW6rQZxfie0IDtkxxFfHuusjfyiGH2P%2Fijo7HhBnAPrjiW6rQZxfQP1VrTcJ3RZWX%2BF6fZlz%2FWT4XfCUx1fU2fHYgzg3v%2BL4DFv94BVH8EI80W01iPMzrHzk5MajQ14P4epHL2jdf59aPhHKPmPgLMx2NrLemAcloP5n6eMnjjgaX5OoSn4xfPpRj4StH0FGzYyUP64dtM6Ox0fFedPHgeKye1z4XAnHmY38yYmn4uMHacAn8US31SDOD0ENmBrz6g9r6A6AOo%2F4CdDKD2NoUQzxedkJy%2FETsh62r%2BWhoA7S%2F2yoFWfnS2jcC%2Br8irxDLL9%2BAmrUzIS0R6%2Bz4%2FEZcW5sN%2Flc4PpvOC5MDjfnKwn4op%2BQt5wDii861uBzeKLbahDnR%2BAr9nyZrljtONLyrCPiTiN2Kj%2FUgYQRRYw8D7N5yHpTHiFFAYttuStGnFvz03Fq9cPwNl0Qm1aw%2Ft392UudHY%2BPiPOWdqOPUe240Db8IA3YM57othrE%2BSEWRgBeQ9fhoZNQ4mdJV%2Bx2ejiH2TxkfUseTOvIuTU%2FHYeW%2FJEzC6cp1yxtwvrfdZ0dj92NnO05oI%2BRe1z4PGVxTal0fO1rzY%2BNL3zRsQafwxPdVoM4PwM14NV7Z0wRHkd2sx%2FGkM4mOqI4vFwLm%2B6H3Xg0Ip3Pah5hZeM95%2BQrdYLFtLb4LPwrbP3YUTNTTduyP3ups%2BPxGXFO2PPCOwdy2NKxV8eUjs80fW3O1yU%2Fs7y%2F71iDz%2BGJbqtBnF%2FA4lOnjA0PnVOaWlOdAPuRqTcRMT%2BMR4RxWu589oSGqORBPc%2FUKbrETq8YYZDvyVfKQ%2BdX2%2B9ErB%2FuHLeMXI5UZ8fjo%2BKciOdFWJifAzqs5diT2BfnpoTz6HfJj80bT2uDF%2BKJbqtBnAEYkD2IMwDfjie6rQZxBmBAIM4A9McT3VaDOAMwIBBnAPrjiW6rQZwBGBCIMwD98US31SDOC7z%2FxyD2i374JrxDXLwLswY%2FAcuvpqg61DZgfX6aocRZPSAWjc%2FftG3n4Adpjo0nuq0GcW7CeYJ5L9inTTsgr6NkPeanXvPrSg3MXqEauz73wHDirI%2FpIY%2Fxm9qMtNWvqLPP44luq0GcHfIrHplBxMR9jYRfgWoX4nndea9QjVyf%2B2AEca6%2FqrXD8%2B%2BRVxyfZLGtfkWdfR5PdFsN4qwJ70GenAPunJh08vrvTE4%2FBnEiP%2FErVWkaWLardNnnqj%2BKy1e1YYqJLfrkDyvENNSQQnzVoGTd%2BvHyCjgfYLA%2Ba9TqzvvwyMj1uRO%2BWpztuWiO442P%2B4bjWLwjnwJnYSaP158r620mbCvyi%2BE575CIaGmrUv64dtA6%2Bzye6LYaxDlAB5lOBP%2BHGhjbMMxoUp9UdOKFcLuct5sTONzIWfHnFUrH4b86LEQgXD%2BVvNJqgBpv%2FnSht71gqe44L11vwsD1mYI%2BzXeKc%2BVcDMcrde66g286jupcDfF52QnL8ROyHra%2F4lzx2oz5Ehqf%2Bzq%2FIu8Qq72thrRHr7PP44luq0GcGb4qDJ16DdMwwsmjTtxgfDKpE0efRPqk0yeWDl%2Fzx1A8vuLNcazPJf86TpEPmzr5Fdzgzxfj07JUd%2FpKvGDg%2Blw6zd7IV4pz7Vy0x1FoOo5RBPGDNAnr392fvdTZ5%2FFEt9UgzoGlK0rGExO1LtiTyi7rMEaHr%2FkLZaCTUgro%2BSziE7U4Xl6a4krUXLnOqNUdp6vlM3J97oPhRs76OApbjmM6hnZ6OIfZPGR9Sx5M9Vx5gTjTUnNbnaVNWP%2B7rrPP44luq0GcNXSQ3XsxdGoUDYO2hiklUazaSWWX04k2JaOTNFzqNfhLZZiipA%2F9L8Xhq%2BFZnEpeccW9hxPKSXFyg%2BZ6slevtu6qo2Zm7PrcA98pzgl7LhbHRNF0HPkckHOd4%2FByLaznuRL9z9pMapT53Nc%2BC%2F%2BKlrZaTduyP3ups8%2FjiW6rQZwd5k8x2oZBhBM8TbPIyaFPHG85%2FKVGkdPJSUas%2BQurdCKmqZ3pQ%2F901RjSxfKFRhriUD4v%2FIEHnXfwXV56Z2LdcYMy9VWA%2Bvw0Xy3OidyO7fESGo9jcZ6kQD%2Bs57lC6WZthm%2FLiK%2BUh86vtt%2BJxbZaS9u4P%2Fuos8%2FjiW6rQZzfyUpjARtBfT7MCOIMwKfxRLfVIM7vBGLyWlCfDwNxBqA%2Fnui2GsQZgAGBOAPQH090Ww3iDMCAQJwB6I8nuq0GcZ7BTwBe5w8lMDqMl%2FkBhfB0sBCfLHQfzvAe6HDDAOgPxBmA%2Fnii22oQZ4u8VtAizqdTGUcE%2B1XiLOkLPwA8D8QZgP54ottqQ4tzfJUgrQTUawWeIOqwtMwvv0%2BP9pOwy%2BsAvF74eGLk3CLOB3itAOwHiDMA%2FfFEt9XGFOfw3txpLmb6ZfxGcb6pNPz1neonJ5fEOcSjC4Xw5Rx%2Bn4%2FKxhFTuH2XsXg3MF8Z7P%2BFfLAfIM4A9McT3VYbTJxJwMJn3rzPdJqX8VkYgwAas8KbBZgFX6%2BrOLy8Js5BkFOh7Jdyan5COuOTLjz2%2Bik7sB8gzgD0xxPdVhtLnMO0cymPGT1qZgpBTOiwvJxEXXy7cZgVcdZ5ybr9Gzemh87SyD8nKuHRdW1XAYA4A9AfT3RbDSPngBk1M1YwGR2mllkIw2ck2UElDq1QHur%2BNCPbi3iEDbfbmTRCLj4qz2DkDBqAOAPQH090Ww33nHndjpoZVxBVmF3WU81eHOJ6nj5Uz9wo39nH6hlZt3%2FDRh5t2w%2FIx2XccwatQJwB6I8nuq02pjgnNn%2F4XYd525nFOJQXj2pJUIPRCN6NJ%2Bs53P4YA4lwugeeLyrwtDbYAMQZgP54ottqQ4szAKMCcQagP57othrEGYABgTgD0B9PdFsN4gzAgECcAeiPJ7qtBnEGYEAgzgD0xxPdVoM4AzAgEGcA%2BuOJbqtBnAEYEIgzAP3xRLfVIM4ADAjEGYD%2BsMA%2BYxBnAAYD4gxAfzzB3WIQZwAGA%2BIM7v%2F9f8jw2aKeeIK7xSDOAAzGZ8WZBOG%2FqGv5v8b%2B6%2F%2Bl7WAZW38ksv%2BbNjXDPjgdjkVPPMHdYhBnAAbjM%2BKchOB%2F0ipz2NGbiFtafRX%2Fc24Qxq15O%2FX%2Bv5SHzQfHoqTpWCzjCe4WgzgDMBhvF%2Bd%2FUFfijfA8QWDh0KO4vP0aO8vgi406Tx1X%2B1nzwfnabZzmH2QsZKFTprjaRy4%2FxdejzX%2FwF%2B85LpUno9ZnflOY9u2VPfj14PwbxWhLvXc5FimeV99MzT%2BHH%2BJYLOMJ7haDOAMwGG8TZ%2BmU9ahNMxME27Fy5ysdMW9TvoIwqE43p2vwocVDOvrgQ%2BI58Hbp0GcCafNU6zO%2FS%2BVT8MjNrTuOz%2Fsupn0lFuu9kl%2B3Y0HbvPpe8n%2BYY7GMJ7hbDOIMwGDsVpxD58kdvbGQnjrS3CETRVrbAS%2F4KDpjgoWFtxUdfkI6ZbFHBUH7XSyfQvIuBJOpCIhmqd69%2FWR6HIu1%2Bq7598q4y2OxjCe4WwziDMBgvE2chTCycgTFEwRPOAKNgrDmY0ksZh23iltsf1IQquUjRAh6TWvbOhd6HIst9a3x6myXx2IZT3C3GMQZgMF4uzgHuBNNHbMwEwruSHVHq6FtuiNdFIQFH3oEpDv9tY6b88vrVhDMOset%2BV0qH4vBqhDYvNfg%2BFLvC2m7HYtKfS%2F5P8yxWMYT3C0GcQZgMD4jzg4zQSBCB05dTzbVmTcJArHkg5fDiDKZXCzMOm4idOwp3j8onc0%2FhKcOXEZZIYx9pTw9v9XytWDFaANeWYQux2Khvpmaf6%2BcuzwWy3iCu8W%2BV5yv5%2FvPz%2Bl%2BMedbM7fL%2FXS6cFPYDqf9%2BaH8xU7383Xd0%2FV8CvHP6Rz7PLf79XJ9rA7AbtmNOL8dLRwDwiKmxbE7Y9e3J7hb7GvFmYXufD7fT4%2Bq87PirNPervfL6WelLNf7%2BefMp%2FN63rJdx3umvDXoAufh%2BgO7BeI8ItSOZQT5NiDOz9jXiPPtcr7TIC9xIzFkoSPBe1SwnhE7L%2B2av0fy6yHIGalD4nq5nzGC%2FhrGFWcA3ocnuFvs%2BOJMo9LziUbJWjxYtMLcMAtMmtoOQkYCnqaO41RziB1HiMUUNIVp4aPlM418w3YRLKYIJ78q%2Flw0y5Gx9nfhfcj5UxxJH%2F46ZU7hkw%2BJu1Demq8axaiZp7dpPZQ1BYHDAnEGoD%2Be4G6xA4szCQYJzel8ITFLQYnbZRIeXg4iw%2BKk7%2F2y%2BMwElBCRy2LHAs%2F3gWNM9vcTFbIIz%2BnsckYuFNQFQwi2%2BZkwr8xLaUI%2BTnlrvuKagX2oixCBp%2BdDnWMUfWQgzgD0xxPcLXZccWZxcYd%2BUZzi6FBGj0bIGCNsPPp249fS1cLtciaNnHmbLlswEuurk76Wh7e9NU0K9suYKEbNc%2FTFDzgeEGcA%2BuMJ7hb7vpEzi06hHGmkqsWPyeLEosnb0xYrZlbE1sLtsqDTyfS2xktv%2FdjwR9Kk4CK%2FgsqomcHI%2BSuAOAPQH09wt9iBxTlh7jnnaWxFCOMnt11xiiNaScIPlpUj7co0sQkvpolnQhif1o7XDCndlGGMq9N4YYwN99KIf1vemq%2B0mnFHzbjn%2FE1AnAHojye4W%2Bz44pyIT2uzMKn7uQILkUxXpyAtTpxWpppPPL3N4Vq8aLl4%2BIrDGPEbwlM6Gx5M3etlwgWFpEuCZ%2FILyzqMmYVH0S8eIkvxZuWt%2BUqrEa4%2FZ9SMp7W%2FCogzAP3xBHeLfY04f5objTjjiBqAfQNxBqA%2FnuBuMYjzE8gXvYoRMAA7B%2BIMQH88wd1iEGcABgPiDEB%2FPMHdYhBnAAYD4gxAfzzB3WKDijM%2FfXydP3DFuA9KPcCr%2FADwYo4nzo3tlZf5FlPx7Ed8e8F%2FMDJ9eyAsC14YANvxBHeLjSnO8rrQWmN%2Fhlf5AeDFHE6cW9trWD6VcTis%2BtbCA%2BIs6Qs%2FAMzxBHeLfb04lz%2BIwajXhbwG9qpGt9UPXlcCb2LP4vxUe03L%2FKGc%2FHAmC7v%2BxkHh44mRc0v7RpseGk9wt9j3irP5OElGf2SjobHP3kdm2Ic8pR3eYU7hKn5%2BX9qEl%2B81n%2B%2Fn8MQ3dwb40Ad4D7sU5xe117Cs0vAbFe6ncePWujin9tn0ozMhWMXLDRhtemQ8wd1iXyjO1CCoQXk%2FiMHbio9scEMLDcpYaHAcV12BF41akcPjva38ZS7qIBb9hLy54zAe%2BWtiofy44gZ92Jc4v6q9pu3StkIYC75eV3F4WYQ4LAtKnPXHg1jwta%2Ban5DO%2BESbHhJPcLfY94kzN6LigRCFvgpnigaW0I1v1hEkkaVt1R%2FKiF7W%2FdhvfRv4Sry2GwA8w67E%2BVXttVhOoi6%2B3TjMijjrvGTd%2Fo0bw4U5fyUwjPxzohK06bHwBHeLDTRyNlfhjG2AjG58s4bLcONVI163sRJrfmx8AVfZoDPHGDlvbK9mmYWQby0FMazEoRXKQ81qMbK9iEfYcLudSW033qZSoE0PiSe4W%2BwLxTlBDaK4h2Wvwhm3gUlYvBqe%2FUBFEOfpHlL%2BoQyJn3qYcA9qyc8sb%2FKM%2B1PgDexLnBNPt1dnWUSyFoe4nqc2y9wo38UfirF%2Fw8Z0wR4zUIKPNj0ynuBuse8V58T0gxiNo1cdFjqMNBWtGpj7QxlxwxTOV8pLfmzeeLITvIldinPiufbqbGcW41Beoa0moxG8G0%2FWcziNhkObjuUs%2BgTpKNCmh8YT3C329eIMACjZszgD8C14grvFIM4ADAbEGYD%2BeIK7xSDOAAwGxBmA%2FniCu8UgzgAMBsQZgP54grvFIM4ADMahxJmfns5PQj%2FA7AGwDXDa9JBXNH41a90TvxrG8ffzTjM%2FNY4H096NJ7hbDOIMwGAcSZxZ6M78bexH1flZcS6e2I5PaC%2BXJb5qGXR5LW%2FZruM9U94a3mtpoDue4G4xiDMAg7FncY6vUqUVkqj4ShW%2FivigYD0jdl7aNX%2BP5NdDkDPqtTS82vVWPMHdYhBnAAZjl%2BJsP0LCsGjFT3yRwKSp7SBkJOBp6jhONYfYcYRYTEFTmBY%2BWtbfG5iuAXS4%2BW7BTDTLkXH5%2FQLeltY5jqQPf50yp%2FDJh8RdKG%2FNV41i1IyPorwTT3C3GMQZgMHYlziTYJDQeD98ob9FHT7HyYrC4qTv%2FbL4zASUEJHLYscCb77gFxWyCM%2Fp7HJGLhTUBUMItvmZMK%2FMS2lCPk55a77imoF9qIsQgafnQ51jFN0TT3C3GMQZgMHYlTizuLhDvyhOcXQoo0cjZIwRtuoP0tTS1cLtciaNnHmbLlswEmvv5ylreXjbW9OkYL%2BMiWLUPEdf%2FIDX4wnuFoM4AzAYhxg5s%2BgUypFGqvbX3LI4sWjy9rTFipkVsbVwuyzodDK9rfHSWz82%2FJE0KbjIr6AyamYwcn4LnuBuMYgzAIOxL3FOmHvOeRpbEcL4yW1XnOKIVpLwg2XlSLsyTWzCi2nimRDGp7XjNUNKN2UY4%2Bo0Xhhjw7004t%2BWt%2BYrrWbcUTPuOb8TT3C3GMQZgMHYpTgnph%2B%2BUPdzBRYima5OQVqcih%2Bf4OltDtfiRcvFw1ccxojfEJ7S2fBg6l4vEy4oJF0SPJNfWNZhzCxc%2FYiGST8rb81XWo1w%2FTmjZjyt%2FVY8wd1iEGcABmPP4vxpbjTijCNqAJ7DE9wtBnEGYDAgziXyRa9iBAzAk3iCu8UgzgAMBsQZgP54grvFIM4ADAbEGYD%2BeIK7xSDOAAzGfsWZnya%2Bzh%2BgYtwHnx7gVX4AWMET3C0GcQZgMHYrzvL6D8QZfAGe4G4xiDMAg7EHcS5%2F4IJRr%2F%2FsSZzx%2BhF4EE9wtxjEGYDB%2BKg4m4%2BNZPRHM9bEmZZn7xcz7EOeug7vJKdwFT%2B%2F%2F2zCy%2FeUz%2FdzeIKbLxbw4Q7wGJ7gbjGIMwCD8RlxJpHzPtMZMB%2FNYIHMIqssiKr5QEkQU2cknMM5vvrSFr%2FHvOQn5K0%2BAyrgk5dgI57gbjGIMwCD8RFx5lFt7eMeetTMeIJbiKcV7iSytK36wxfRy7of%2B%2B1uA34sArTiCe4WgzgDMBj7GjmbUTNjBZUpRNX5NCWFLP7wRQxd92PjCxg5g414grvFIM4ADMZnxDlh7znbUTPjCWQOS9PUkiaHV374QuLLtDb%2FgMSSn1neuOcMHsMT3C0GcQZgMD4qzonpBy4aR686zPvBCQ5mEU1T1PbBrxzOo98lPzZvPK0NHsQT3C0GcQZgMPYgzgB8O57gbjGIMwCDAXEGoD%2Be4G4xiDMAgwFxBqA%2FnuBuMYgzAIMBcQagP57gbjGIMwCDAXEGoD%2Be4G4xiDMAgwFxBqA%2FnuBuMYgzAIMBcQagP57gbjGIMwCDAXEGoD%2Be4G4xiDMAgwFxBqA%2FnuBuMYgzAIMBcQagP57gbjGIMwCDAXEGoD%2Be4G4xiDMAgwFxBqA%2FVmx%2F%2Ffo1C1sKhzgDMBgQZwD6Y8WWRdgKsRcmBnEGYDAgzgD0x4qtCLGIsV23BnEGYDAgzgD0xxNcLchLwswGcQZgMCDOAPTHE1y2FmFmgzgDMBgQZwD64wmu2Jows0GcARgMiDMA%2FfEEd4tBnAEYDIgzAP3xBHeLQZwBGAyIMwD98QR3i0GcARgMiDMA%2FfEEd4tBnAEYDIgzAP3xBHeLHU6cucAwGOw5eyVolzBYH6uxO3EGAAAARgfiDAAAAOwMiDMAAACwK%2B73%2Fw9IsknvHsBweAAAAABJRU5ErkJggg%3D%3D%3B%22%20vertex%3D%221%22%20parent%3D%221%22%3E%3CmxGeometry%20x%3D%22559%22%20y%3D%22316%22%20width%3D%22285.92%22%20height%3D%22155%22%20as%3D%22geometry%22%2F%3E%3C%2FmxCell%3E%3C%2Froot%3E%3C%2FmxGraphModel%3E&lt;/span&gt;&lt;span style=&quot;color: rgba(0 , 0 , 0 , 0) ; font-family: monospace ; font-size: 0px ; white-space: nowrap&quot;&gt;%3CmxGraphModel%3E%3Croot%3E%3CmxCell%20id%3D%220%22%2F%3E%3CmxCell%20id%3D%221%22%20parent%3D%220%22%2F%3E%3CmxCell%20id%3D%222%22%20value%3D%22%22%20style%3D%22shape%3Dimage%3BimageAspect%3D0%3Baspect%3Dfixed%3BverticalLabelPosition%3Dbottom%3BverticalAlign%3Dtop%3Bimage%3Ddata%3Aimage%2Fpng%2CiVBORw0KGgoAAAANSUhEUgAAAecAAAEICAYAAABlHzwDAAAAAXNSR0IArs4c6QAAAARnQU1BAACxjwv8YQUAAAAJcEhZcwAADsMAAA7DAcdvqGQAADD1SURBVHhe7Z09sus4sq33pMrQG82xFNGzeNZx9bzrtl%2FRrgZw%2FS7zRnTIbPM6PQO9TAAJJpIJEpQEiRTWV5VnkyCQAEECiwB%2F9POf%2F%2FznDoPBYDAYbD8GcYbBYDAYbGcGcYbBYDAYbGcGcYbBYDAYbGcGcd6B%2Fetf%2F4LtyLxjBIPBYO80iPMOjAUB7AOIMwwG24P96BED7HMG9gEfC6%2BhwGAw2DstiLO3AfY%2BgzjvB7QHGAy2B4M478AgzvsB7QEGg%2B3BIM47sBZxvl3O99PPz%2F2H7XS6n6%2B3tKWR2%2BV%2BOl3uW1I9necBQXuAwWB7MIjzDmxNnG%2BXE4nj5Z618Xa9n39O98s2pd0kzi%2FJ81U8cGHxKGgPMBhsD1YX579%2B3%2F%2F44%2Ff9L1mWEVS2P%2B6%2F%2FlRxZ9v%2BmvuT7X%2F8cf8taY399ftXEW%2Fm5wttTZwvNGp9WhQ3CdztNXkeEIgzDAbbg7WLsywn%2B%2BtPEtHa9r%2F%2BvP%2F%2B4%2Bf%2Bx28R1j%2Fvv0iwf%2F8l21mof93%2FlPjJ%2Fvr9Bwny7%2FufOZ5J905z9rmXrYlzTVTD6PZ8TWv3%2B%2FX8cw%2BrPMo9pQscGu2G6WgtzrSct5%2FOcxFeE3KTPpQgpDnfz2cqE4WfLtf7JSzr%2FGm7Tcdc1fR5iE9hxh%2BP4rk8YZ8lnhR8oTyxDMrvChBnGAy2B3tYnKPgJoH1tq%2Bmt%2FYXCfqHhPjD9qg4BwH6EZHjaWde5lEviXQWrjQdfWWxYj9mVBxEzPj3wjLJf5rvzhcIoSzJr11mXyFsuhCwFxaZIj6XmxJIWN7HFE%2Fvb6U8%2BT45XwBU92kC4gyDwfZgfUbOwZR4B%2BH9uf%2F6%2Fef9r5r4rgk4bf9FPsIo6A99UfDr%2FusXjbgp%2FA%2Fy%2Fzssp%2Blw2W7TsXH5w4iKLU3RG388iufyhBG9xJPZgIXyxDIov5JnxR4WZyKPlkl8sih58SU8iFYqdzYl1kzNB2O3ab8S7i3X0qXlM10w5PLY%2BHk5CnF4OI1G5jfeWPNbC0%2BrNSDOMBhsD%2Fb4PWcWJD1NPRNWMxLmqW4lWrMRsutDLIl7uv8cxPLXn6lcyZddZl8hjMQy5ZXTFb5tfPKRhZ3LY2YIwvJyefJ9cn0Bs2Br4rx4%2FzeJ8vVsRqpx64QWrTzarmFG15qa6Olwb7mWLoyG0whZh3s%2BQgTiJlPmtB81v7XwtFoD4gyDwfZgj42cwz1lNSq024PpkXNpPOqWUWkOd31Utsm6DveWa%2BnS8i%2Fah%2Bliw8TPy1GIw8NpMvKv%2Ba2Fy3rF1sQ5TNWSsIh%2BlU9O03IYTYrwpGleUVZ3Wltv90WrnufCNLL48Zb5rzutzX51OF1sSPyZP73fcgHRUB7GrleAOMNgsD3Y4%2FecWWBlFOptXxQmT7jNSFub9SXrOtxbrqUL%2BacRcou%2FsC4jf54xqPithct6xdbEmSneOSaByvdSCZ7aPom6MSykLNg6biF2ajs%2FNFVRrGqe5GtKbwW0shz%2Bkg%2BbLkSZ8uE4dXE2cSdFXy4PY9crQJxhMNgerM8DYelpbRlZx2nfabs7cuZwjkfh86e1F6aRvTLKMv%2BlMs6ntWPZp%2FBUHteflIHjygVEQ3kKH2m9Yi3iXIeFdm2aegc0iuOngTjDYLA92BPirEa6vD2NZqKp%2B64p7p%2F5fjOZvl9trHjPWfuhPKYHsJxyecvhL%2Fmw6ch0PhynLs4mrvtA2DyNxCnWK%2FawOPP9Zsq%2FGDXvFYgzDAaDNVtdnL%2FBGsXx0%2FawOIOXA3GGwWB7MIjzDgzivB8gzjAYbA%2F23eJ8EIM47we0BxgMtgeDOO%2FAIM77Ae0BBoPtwYI4wz5vYB94xwYGg8HebT%2BpTwIAAADAToA4AwAAADsD4gwAAADsDIgzAAAAsDN2J85%2F%2F%2FvfYTDYC%2ByVeP5hMNjzVmOX4vy3v%2F0NBoM9Yf%2F%2B979Ti3oNaJcw2OttqZ3uVpwBAI%2FTS5wBABPe%2B8lbDOIMwGBAnAHojye4WwziDMBgQJwB6I8nuFvs2OLMPzWYfq7x53S6X17xw8UH%2BflCAB6lrzhf7%2Bcf%2BxviZdjtci7a7fmaWptuz2Hb%2BX6EXzwFwMMT3C12YHHmBk%2BCLI03NGzqAJ4V17X0EG9wcD4pzrfLiUT3Qu00brnfVDuWNhy3UDK0NXBcPMHdYscV514iCXEGX87nxPl2v%2FAMV63xWHF2fQFwDDzB3WIHHjlzQ%2F%2B5ny%2FU5HVjF%2FEMf8%2F385mu1H9%2B7ieKdwnLaRrNimyRLoVf1fRbSsd5xim3FIfin3NY6kiKvNG5gH3xMXG2bc7C23VajJzBgfEEV%2BzXr19uuLYDizNxE8GN4pmnxkRki%2BkyZ7tu%2BLVwwd2eLhDSHF2YsjtT18JxOL88dwfAfti3OKcL3dSmuTkBcEQ8wWVjYRbztosdW5wVNxrlhtGsJ6Lesg5jKunOJxF%2FMmf7qg8AdsZhRs52HYAD4QmuFuY1gf4acZ51ALoj8JZ1GDMLZ39q9OulW%2FUBwP7oK87OfeXcHrbec16JD8COsWJrBdmuWzusOMcp5EkAN4%2Bck5hLw%2Bf0ZTqz%2FWL8x9D6tHaOA8C%2B6CvOdJl8ntoEE9pmmp%2Fe9LS2XQfgQFix9YT4K8WZWi51AnrKmUfNHJyEUQtkZTl0FHJv62zFmbdPD4SdeHo7hF%2BDIOcHvSj%2B9EDYPA8A9kZvcaYGEJ4F4TYTTF1EM8V7zuG%2BctrK7SaHy7a4CYCjYcW2JsJfKM4AgEfoL84AAE9wtxjEGYDBgDgD0B9PcLcYxBmAwYA4A9AfT3C3GMQZgMGAOAPQH09wtxjEGYDBgDgD0B9PcLcYxBmAwYA4A9Cff%2F7znw8bxBmAAYE4A9AfT3RbDeIMwIBAnAHojye6rQZxBmBAIM4A9McT3VaDOAMwIBBnAPrjiW6rQZwBGBCIMwD98US31SDOAAwIxBmA%2Fnii22oQZwAGBOIMQH880W01iDMAAwJxBqA%2Fnui2GsQZgAGBOAPQH090Ww3iDMCAQJwB6I8nuq0GcQZzbjf%2BH3wxEOcDgnZ5ODzRbbUvFefb%2FXo%2B3X9%2BfoKdLg%2Be0bfL%2FXS6kLeDcT3ff85XWrjdL6fTvdh92qfzz%2FnOWz1ivZ3uJ6634CME1v29m57H5MH9lHNNqmuGV%2BeUF9dxOD8X6%2FlF57LhM%2BKMdvm17RK4eKLbat8pzuGklcbLJ%2B5Cx7nEOzqBHnkUjVYafKyH2DFWOoGiLKrBu%2F4%2BhJTxbfXmUOR9XehUa3XOaeScpDjntOzl%2F6pz2fARcX7VvvQ49pa3nV%2BxHg7fLoGLJ7qt9lXifLuc7xfnDL1d6IrzkcvKd3QCPaByn9P%2BXs%2B20S6ISW7skauIxqK%2FN9PzmLTupy5DU3lMnXM9e2ka8s%2Fn8pXjXh%2Buh3eKM9plYvH4HrxdAhdPdFvtO8T5Ric2XU36nVW6QqeTN3eI3Li5IYRGfqZtcartROkvafrofKWYbifAjUhNIYmvtHyWq2DyG%2BIUeVAYdUjxKpnLa%2FIw6cUnp4%2FlSumeaoX1TsB2ls2d58J%2Bu%2BUOxyvFl7oO4c7%2BMyr8RMc5HMfgX%2F7W8tH%2BUrq0qQnJI63KPmmfMjVdHfUEyjrnetWdbTvpXA5Jb6TP57jvm3Yq8hZxRrvcQId2CT6OJ7qtdnBxjvewTucLNegUZOCrTOkIeTk0dO4wOIgbmDRou8wNU%2F5yYkX0E0OnjlZNNzHaB%2FsNBVQNMIRLR8R5SMdr%2FKb0WcDoKjqXia%2BoQ8cw2XoH8epOYHm%2F5%2BVO%2BykJuAMP9V7Zf1svMupszUfCJT4vt9abTsPoPCXcxnEp6zzUK4lSvuBYP2gBfS5nqP5YINjHchlK%2Booz2mXT%2BVXw6nYJ9oAnuq12bHHmBrF01nMjKRoxNwDVweUGWFnWYZocrho%2Bh5kGyVfTl6v2ERs6j7jCaELSeXmthafV7by4E%2BDyrO43Udsfobafa%2BFb06XVJlp8mzhBdLgOivNyLs6b773OzuUS9rkuABNdxRnt8gEgzt%2BIJ7qt9tUj59lJzA2IG6c0It2gvOVqg5PGb9J4jcvzkUY7YSq0ltdaOC9zJ2c6nvUOut4JBH%2FKAQvNqj8uT8t%2B1%2FZHaI1vw7em4%2BXWemvxbeO4mDpn8drY2VbjHHDkjHbp8eJ2CXaBJ7qtNsA9ZyE2XJ6GCh0Hdw66QXnLtgEqQgdD%2FqZOJl59T9O1ng9ugOmKPsTXV%2FApvTd9psuwUKY2FjqBwrd0dGFlgZb9JvK6jS91Utl%2Fia%2FDtf%2B1fEQdWBB1vCZiXU1FTT50njZ%2FF1vnaT06SOUMGzZA5%2FGh7zkLvP9ol%2FNzRFH4TuV7PCPwRjzRbbXvEOeEfSo0NNR0Fk%2BdPZMao57a0g1AlpcaHG%2FLDToROqN0tVw8eDL54DLKNJvXEU3pTVl4mbHrm7GdQLnOHSRP%2B3EZW%2B%2BFtux3uZ8qPuWVBdTbf4bThrhcJu58aZv4W8xnSvfQA2FEOG%2BCDyrnWQSe749yGAusyd%2FF1jnBQp%2F3ab2e9bkcoHN3WfSWeYs4J9AuW7DnSLn%2BULsEH8cT3Vb7KnEGL4JGseG%2B2xfBo95JBMA7xRm8iC9sl9%2BOJ7qtBnEGX0scbZgREwhAnAHojye6rQZxBmBAIM4A9McT3VaDOAMwIBBnAPrjiW6rQZwBGJCvEeenH8RaID%2BnsO0JabmdUn3EgR8wa3lA0M0%2FPtUut2uKhwTB7vBEt9UgzgAMyNeJcw%2BRLsTRiKmmyNt5Mj8TX8uKwmqfzBYxpzjyHrOXfwiTvKK%2FmA7sEU90Ww3iDMCAYOTcAI9w08j0238IBfTBE91WgzgDMCBdxZlFxX2vmJbzlCy%2F3x6jt733rsRJheOHUKYR9zMfpQF98ES31SDOAAxIP3FmwVD3Z7VoauGl0WIUuiQwkoCFmuLhh1DWCd9xt3Gp%2Fh75nCvogye6rQZxBmBAuokzi5MROh69lj80QXjCprHhtfg2fGu6tNpEi28T5yg%2FhAL64Iluq0GcARiQvuLsTOm2CJumNb4N35qOlz88cub89VPXYSS9MjddjYOR867wRLfVIM4ADEg3cSZJKKepHQFj8rqNv3Fam8O1%2F7V8ZtPdW4iiOhU1%2BdB52vxdjDjLenSQyhk2bAD3nPeIJ7qtBnEGYED6iTOhH%2FASsaiKJi%2Br%2BPp%2BMcWZ%2FJi0aYSLH0JJ4GntXeKJbqtBnAEYkK7ifAB41PvYE9IAtOOJbqtBnAEYkBHFGT%2BEAt6NJ7qtBnEGYEBGHzkD8A480W01iDMAAwJxBqA%2Fnui22veKs3n445JuL%2BX3Dq3x%2FSedRll8SNTbpt4ltA%2BCVPJnbvxUpdqWH4BpxeYFwEYgzgD0xxPdVvtSceanIfl1jLQahNI8Hek9Mbkkes42fqgkhxXb6%2FnLqx9Zj%2FOrI2m9haVyAtAAxBmA%2Fnii22pfJc48Ig0j1Cbxel6cCx96e9UPv8O4UYg9WvYPr1aABSDOAPTHE91W%2Bw5xDu9JnpQYpRf5eb2qTs%2BLc33kXMl%2Fwf%2F0kYUIT7%2FH6XTetzQFHqbRKbX2Q8uzd0oD%2BCgBqANxBqA%2Fnui22sHFOf7w%2BOmspokFEjX9yzRzgaqIs9wLzqZGxnYbCd80PW2E18vfxtEE%2F1IeKZuIfEohU%2BD5O8VmJO75T%2BXA5%2FyABuIMQH880W21Y4szj1zVaLMGj3DnXwN6cuTMohce5pL1etqc%2F5J%2FIo%2BWOT4v1OJLOP%2B1FwyV%2B9c8Mm%2BoKjAIEGcA%2BuOJbqt978i5wBHiZ8WZERFlltLmvFbuOSd%2FvE%2BLI20J57%2Bz%2FTJg5AwcIM4A9McT3Vb7ynvO8f7tJGpdRs4B5UNtX8p%2F%2BWlt3g8a%2FeZ8Wqa19XZdRtxzBnUgzgD0xxPdVvsOcU7kp7VZmPL9XhY7EtCZQFXEuZgijhY%2BMO%2BKsxoJW2FcyL94z5nEVr%2FnzFPbxQftw4WHiavz0tu1EONpbbAAxBmA%2Fnii22pfJc7Hh4XWXDAA0AGIMwD98US31SDOe4Gnvmn0u%2FYj6wC8AogzAP3xRLfVIM4ADAjEGYD%2BeKLbahBnAAYE4gxAfzzRbbWxxHn2wFf5MNa7WPzxjd7oOuCH2Z7J0n1Irif8BPrVeb97wOP4JB8T58r5t1iXs%2BMdLVSzu43Ph%2Bh3do5W8mfwgzTg1Xii22rjiXPRUPlDIg%2Fe531JQ3SeGO8K55eeLmdCR8VPkm%2FcF4lv%2F6bN3bhS58mFt%2FkNdxyf5zPiXDn%2F0mrEqculY%2BRsu%2FF5ImHF9nr%2By684NrJUTjAknui22hDivPiDGB9tUJ069dprVLV9fbQOOtbd9FqcwK%2Btpboa%2FTi%2BgHeK82L7m%2FG8OBc%2B9Paqn5WPA7XSsn94xXEoPNFtte8W5%2FAO8GlqDA0Nef7OMG9fGW3qd40pbp4Oc%2F1pVN5E%2FHjJ1C2Fz3leOJ9z4SfHqPqvfYBEPlrCU8MpKIVFH1MnNvMb9pfKIe9vc1ypA%2FlL0crpyYV6LfzpfTLHTJBRM6PymxjpOD7PW8R5diy9889S1mVAHyOLs%2B1WHTlX8l%2Fw7x5LXvXOFe2Hlt99TMH%2B8ES31b5UnONHQGaf9XQboVw1y18JnuJygxRhyI01b5cGnxJyow0iUPc3YToijpPX07YUlt3nzqLBP5Vl9unOFCadSkhfpK34DeWgcN0J2b8pCbNaTu0vbvCPWYB9mHoy%2BU351Ovlq47jk%2FQV54Vj6Z1%2FBaYumVB3SeiypTjeNj5XavW5ev4bgn9zLCmme64UX%2B57%2FzEF%2B8MT3Vb7TnHmK%2BfQ8RncRqg7T9PIZ41XNToJc30SS%2F4y844oX5nTPpTikdD5rvqPsBC41cF52H2o%2Bc0dT4qj0%2Bn0TPCR9qvFH1M7Zgxv0ztm8wuMexwfoas4Lx1LRT7%2F0npkXpezutPM6pVEj45tzn4hrXv%2BO6weS0HC%2Be8HjinYH57othpGzkWDMp1CRjpzlV6nsz6ZRX%2BC0xGlDoDLXwpKQue75n%2F16lwJmt4vz6%2BNI2XQf2NEqqvUmYXVBn%2BB2miL%2FZn0s7SELku1Xr71OG7nYyPnAqfevLDasWG8bSKizFLanJe6WPNYO5aChPPfDxxTsD880W21se85h6tsEZIkKtJCTVy%2Bwj2Rr%2Fl9T5uOGzw34mV%2FkUrnROn0%2FV9u6JMbPR1a80%2Bdo3NfK6ZV%2B8SdDqcxaV2%2FOo4NU9um8gkN%2FjT2mFEZi1EzY9MOdhxfQV9xTphjWT3%2F0nrEqUu3zhNrx0NtX8o%2FbKPlaTqcfYhgm2NJ%2F7rnSjGt%2Ff5jCvaHJ7qt9t3inCieFjVTTcW7jKEzSdts4wlppbGmdWlwOp32ueQvwI16foWt743GfMhn9iONnKj5rz4RGkc0sZwxTSxqFLfpPp7jt9jftGz%2F0n%2FRj1iqrzV%2FDvGYsb95%2FYS0OY%2BYz1jH8XneIs6J6cn72vmncepydryjhbrVxy%2FD542ce3r7cv5czimf8pwqjiXjnSu1c%2BlNxxTsD090W20IcT4W3KhV5%2BR2PmD%2F7Ps4vlOcj485lgA04oluq0Gc9wRPs9GVdnmFDnE%2BHAc4jhDnRrxjCUAjnui2GsQZgAGBOAPQH090Ww3iDMCAQJwB6I8nuq0GcQZgQHYlzjzlHx6sMg9YvRl%2B6Gsqg7Li7YNO6Drgh9meyfLtt1D4CfRrfDBU19uIx9HgiW6rQZwBGJDdibMWk1t8e%2BCh%2B7wvEaar%2B%2FR9Pzg%2F8wYB5791XyS%2B%2FZs2d%2BOaXne0%2BQ13HOd4ottqEGcABmQP4rz4gxjvEhaXTp167TWq2r4%2BWgcd6256LU5QrzuOfhwdPNFtNYgzAAPyUXEO7wCfpg7O7cBVx0rb5%2B8M8%2FaV0ab3LnII9%2Fxpyk59%2BmBMhKdN8YM0CRk1Myq%2FiZGO4xxPdFsN4gzAgHxGnONHQJo%2Bq0tr8UMi6oMiIXiKy52rCEPuePN2EbyUkDv4IAJ1fxNlpx7i5PW0LYVl97njb%2FBPZZl9ujOFiQCF9EXait9QDgrnCtVh%2Bm9KwqyWU%2FuLG%2FxjFmAfpp5MflM%2B9Xr5quNo8ES31SDOAAzIR8SZR1mh4zMsdayh80yjl2yp08zpVEcqYa5PYslfxnTqRBhlcQC%2F91yIR0Lnu%2Bo%2FwkLgVgfnYfeh5vdq4uh0Oj0TfKT9avHH1I4Zo0fNjM0vMO5xZDzRbTWIMwADsvuRc9FJlh3shHTmKr1OZ30yi%2F6EeacunTmXvxSUhM53zf%2FqiEsJmt4vz6%2BNI2XQf2NEqqskTGG1wV%2BgNnJmfyb9LC2hy1Ktl289jhBnAMBGPiPOCZ6apM64es%2BZO70sJElUZMhi4vKoBT9Ik%2BLYMLVtKp%2FQ4E9jj5kdNTM27WDH0cMT3VaDOAMwIB8V50TxtLaZPizejw3CkLbZDjGkTaMgWc8dr0qnfS75C3idOuuRei0o5EM%2Bsx8lDDX%2F1ad84%2Bg0ljOmiUWN4oYfpFHpdn0c53ii22oQZwAGZA%2FifCy4o1Yd%2FYqIgb3y3uPoiW6rQZwBGBCI8wZ4mplGT8U0LsT5eHzgOHqi22oQZwAGBOIMQH880W01iDMAAwJxBqA%2Fnui22lji7E1hvGpaA9Nc4EBAnAHojye6rQZxhjiDAYE4A9AfT3RbbQhxfssH9rf62fA4PgCvBuIMQH880W217xbn8J7aaRLBNXGmZf%2B9trN6f4%2Ffs0vhKj6%2FK6dfbJ%2F5CfnoD8q3v8gOwKuBOAPQH090W%2B1LxbnyyTkWyCyyyoKo8ov1lZfgNTk8fUEmZXCTr%2FrU%2FIS8KbwoEEEXEGufgAPg1UCcAeiPJ7qt9p3izCPd4lN1CU9wC%2FG0wi1f0uGRsP6CT4qvfa35sR%2BUN%2FBn47wiA9ADiDMA%2FfFEt9XGGzlbgSxE1fkkHX9RRo94dXzta82PjS9g5Aw%2BAMQZgP54ottquOecw9I0tcxH53AW5%2Bm%2BMD9cNk1fq2lt%2FmD6kp9Z3rjnDD4HxBmA%2Fnii22rfLc6J5qe1Kx865%2FQyVW0f%2FMrhPPpd8mPzxtPa4INAnAHojye6rTaEOAMASiDOAPTHE91WgzgDMCAQZwD644luq0GcARgQiDMA%2FfFEt9UgzgAMCMQZgP54ottqEOdXoh4Qi3acd5evZ11uZd12gJ9WvzrvheN973ewK3G2D0syXtgjvMoPAA%2FgiW6rQZxfie0IDtkxxFfHuusjfyiGH2P%2Fijo7HhBnAPrjiW6rQZxfQP1VrTcJ3RZWX%2BF6fZlz%2FWT4XfCUx1fU2fHYgzg3v%2BL4DFv94BVH8EI80W01iPMzrHzk5MajQ14P4epHL2jdf59aPhHKPmPgLMx2NrLemAcloP5n6eMnjjgaX5OoSn4xfPpRj4StH0FGzYyUP64dtM6Ox0fFedPHgeKye1z4XAnHmY38yYmn4uMHacAn8US31SDOD0ENmBrz6g9r6A6AOo%2F4CdDKD2NoUQzxedkJy%2FETsh62r%2BWhoA7S%2F2yoFWfnS2jcC%2Br8irxDLL9%2BAmrUzIS0R6%2Bz4%2FEZcW5sN%2Flc4PpvOC5MDjfnKwn4op%2BQt5wDii861uBzeKLbahDnR%2BAr9nyZrljtONLyrCPiTiN2Kj%2FUgYQRRYw8D7N5yHpTHiFFAYttuStGnFvz03Fq9cPwNl0Qm1aw%2Ft392UudHY%2BPiPOWdqOPUe240Db8IA3YM57othrE%2BSEWRgBeQ9fhoZNQ4mdJV%2Bx2ejiH2TxkfUseTOvIuTU%2FHYeW%2FJEzC6cp1yxtwvrfdZ0dj92NnO05oI%2BRe1z4PGVxTal0fO1rzY%2BNL3zRsQafwxPdVoM4PwM14NV7Z0wRHkd2sx%2FGkM4mOqI4vFwLm%2B6H3Xg0Ip3Pah5hZeM95%2BQrdYLFtLb4LPwrbP3YUTNTTduyP3ups%2BPxGXFO2PPCOwdy2NKxV8eUjs80fW3O1yU%2Fs7y%2F71iDz%2BGJbqtBnF%2FA4lOnjA0PnVOaWlOdAPuRqTcRMT%2BMR4RxWu589oSGqORBPc%2FUKbrETq8YYZDvyVfKQ%2BdX2%2B9ErB%2FuHLeMXI5UZ8fjo%2BKciOdFWJifAzqs5diT2BfnpoTz6HfJj80bT2uDF%2BKJbqtBnAEYkD2IMwDfjie6rQZxBmBAIM4A9McT3VaDOAMwIBBnAPrjiW6rQZwBGBCIMwD98US31SDOC7z%2FxyD2i374JrxDXLwLswY%2FAcuvpqg61DZgfX6aocRZPSAWjc%2FftG3n4Adpjo0nuq0GcW7CeYJ5L9inTTsgr6NkPeanXvPrSg3MXqEauz73wHDirI%2FpIY%2Fxm9qMtNWvqLPP44luq0GcHfIrHplBxMR9jYRfgWoX4nndea9QjVyf%2B2AEca6%2FqrXD8%2B%2BRVxyfZLGtfkWdfR5PdFsN4qwJ70GenAPunJh08vrvTE4%2FBnEiP%2FErVWkaWLardNnnqj%2BKy1e1YYqJLfrkDyvENNSQQnzVoGTd%2BvHyCjgfYLA%2Ba9TqzvvwyMj1uRO%2BWpztuWiO442P%2B4bjWLwjnwJnYSaP158r620mbCvyi%2BE575CIaGmrUv64dtA6%2Bzye6LYaxDlAB5lOBP%2BHGhjbMMxoUp9UdOKFcLuct5sTONzIWfHnFUrH4b86LEQgXD%2BVvNJqgBpv%2FnSht71gqe44L11vwsD1mYI%2BzXeKc%2BVcDMcrde66g286jupcDfF52QnL8ROyHra%2F4lzx2oz5Ehqf%2Bzq%2FIu8Qq72thrRHr7PP44luq0GcGb4qDJ16DdMwwsmjTtxgfDKpE0efRPqk0yeWDl%2Fzx1A8vuLNcazPJf86TpEPmzr5Fdzgzxfj07JUd%2FpKvGDg%2Blw6zd7IV4pz7Vy0x1FoOo5RBPGDNAnr392fvdTZ5%2FFEt9UgzoGlK0rGExO1LtiTyi7rMEaHr%2FkLZaCTUgro%2BSziE7U4Xl6a4krUXLnOqNUdp6vlM3J97oPhRs76OApbjmM6hnZ6OIfZPGR9Sx5M9Vx5gTjTUnNbnaVNWP%2B7rrPP44luq0GcNXSQ3XsxdGoUDYO2hiklUazaSWWX04k2JaOTNFzqNfhLZZiipA%2F9L8Xhq%2BFZnEpeccW9hxPKSXFyg%2BZ6slevtu6qo2Zm7PrcA98pzgl7LhbHRNF0HPkckHOd4%2FByLaznuRL9z9pMapT53Nc%2BC%2F%2BKlrZaTduyP3ups8%2FjiW6rQZwd5k8x2oZBhBM8TbPIyaFPHG85%2FKVGkdPJSUas%2BQurdCKmqZ3pQ%2F901RjSxfKFRhriUD4v%2FIEHnXfwXV56Z2LdcYMy9VWA%2Bvw0Xy3OidyO7fESGo9jcZ6kQD%2Bs57lC6WZthm%2FLiK%2BUh86vtt%2BJxbZaS9u4P%2Fuos8%2FjiW6rQZzfyUpjARtBfT7MCOIMwKfxRLfVIM7vBGLyWlCfDwNxBqA%2Fnui2GsQZgAGBOAPQH090Ww3iDMCAQJwB6I8nuq0GcZ7BTwBe5w8lMDqMl%2FkBhfB0sBCfLHQfzvAe6HDDAOgPxBmA%2Fnii22oQZ4u8VtAizqdTGUcE%2B1XiLOkLPwA8D8QZgP54ottqQ4tzfJUgrQTUawWeIOqwtMwvv0%2BP9pOwy%2BsAvF74eGLk3CLOB3itAOwHiDMA%2FfFEt9XGFOfw3txpLmb6ZfxGcb6pNPz1neonJ5fEOcSjC4Xw5Rx%2Bn4%2FKxhFTuH2XsXg3MF8Z7P%2BFfLAfIM4A9McT3VYbTJxJwMJn3rzPdJqX8VkYgwAas8KbBZgFX6%2BrOLy8Js5BkFOh7Jdyan5COuOTLjz2%2Bik7sB8gzgD0xxPdVhtLnMO0cymPGT1qZgpBTOiwvJxEXXy7cZgVcdZ5ybr9Gzemh87SyD8nKuHRdW1XAYA4A9AfT3RbDSPngBk1M1YwGR2mllkIw2ck2UElDq1QHur%2BNCPbi3iEDbfbmTRCLj4qz2DkDBqAOAPQH090Ww33nHndjpoZVxBVmF3WU81eHOJ6nj5Uz9wo39nH6hlZt3%2FDRh5t2w%2FIx2XccwatQJwB6I8nuq02pjgnNn%2F4XYd525nFOJQXj2pJUIPRCN6NJ%2Bs53P4YA4lwugeeLyrwtDbYAMQZgP54ottqQ4szAKMCcQagP57othrEGYABgTgD0B9PdFsN4gzAgECcAeiPJ7qtBnEGYEAgzgD0xxPdVoM4AzAgEGcA%2BuOJbqtBnAEYEIgzAP3xRLfVIM4ADAjEGYD%2BsMA%2BYxBnAAYD4gxAfzzB3WIQZwAGA%2BIM7v%2F9f8jw2aKeeIK7xSDOAAzGZ8WZBOG%2FqGv5v8b%2B6%2F%2Bl7WAZW38ksv%2BbNjXDPjgdjkVPPMHdYhBnAAbjM%2BKchOB%2F0ipz2NGbiFtafRX%2Fc24Qxq15O%2FX%2Bv5SHzQfHoqTpWCzjCe4WgzgDMBhvF%2Bd%2FUFfijfA8QWDh0KO4vP0aO8vgi406Tx1X%2B1nzwfnabZzmH2QsZKFTprjaRy4%2FxdejzX%2FwF%2B85LpUno9ZnflOY9u2VPfj14PwbxWhLvXc5FimeV99MzT%2BHH%2BJYLOMJ7haDOAMwGG8TZ%2BmU9ahNMxME27Fy5ysdMW9TvoIwqE43p2vwocVDOvrgQ%2BI58Hbp0GcCafNU6zO%2FS%2BVT8MjNrTuOz%2Fsupn0lFuu9kl%2B3Y0HbvPpe8n%2BYY7GMJ7hbDOIMwGDsVpxD58kdvbGQnjrS3CETRVrbAS%2F4KDpjgoWFtxUdfkI6ZbFHBUH7XSyfQvIuBJOpCIhmqd69%2FWR6HIu1%2Bq7598q4y2OxjCe4WwziDMBgvE2chTCycgTFEwRPOAKNgrDmY0ksZh23iltsf1IQquUjRAh6TWvbOhd6HIst9a3x6myXx2IZT3C3GMQZgMF4uzgHuBNNHbMwEwruSHVHq6FtuiNdFIQFH3oEpDv9tY6b88vrVhDMOset%2BV0qH4vBqhDYvNfg%2BFLvC2m7HYtKfS%2F5P8yxWMYT3C0GcQZgMD4jzg4zQSBCB05dTzbVmTcJArHkg5fDiDKZXCzMOm4idOwp3j8onc0%2FhKcOXEZZIYx9pTw9v9XytWDFaANeWYQux2Khvpmaf6%2BcuzwWy3iCu8W%2BV5yv5%2FvPz%2Bl%2BMedbM7fL%2FXS6cFPYDqf9%2BaH8xU7383Xd0%2FV8CvHP6Rz7PLf79XJ9rA7AbtmNOL8dLRwDwiKmxbE7Y9e3J7hb7GvFmYXufD7fT4%2Bq87PirNPervfL6WelLNf7%2BefMp%2FN63rJdx3umvDXoAufh%2BgO7BeI8ItSOZQT5NiDOz9jXiPPtcr7TIC9xIzFkoSPBe1SwnhE7L%2B2av0fy6yHIGalD4nq5nzGC%2FhrGFWcA3ocnuFvs%2BOJMo9LziUbJWjxYtMLcMAtMmtoOQkYCnqaO41RziB1HiMUUNIVp4aPlM418w3YRLKYIJ78q%2Flw0y5Gx9nfhfcj5UxxJH%2F46ZU7hkw%2BJu1Demq8axaiZp7dpPZQ1BYHDAnEGoD%2Be4G6xA4szCQYJzel8ITFLQYnbZRIeXg4iw%2BKk7%2F2y%2BMwElBCRy2LHAs%2F3gWNM9vcTFbIIz%2BnsckYuFNQFQwi2%2BZkwr8xLaUI%2BTnlrvuKagX2oixCBp%2BdDnWMUfWQgzgD0xxPcLXZccWZxcYd%2BUZzi6FBGj0bIGCNsPPp249fS1cLtciaNnHmbLlswEuurk76Wh7e9NU0K9suYKEbNc%2FTFDzgeEGcA%2BuMJ7hb7vpEzi06hHGmkqsWPyeLEosnb0xYrZlbE1sLtsqDTyfS2xktv%2FdjwR9Kk4CK%2FgsqomcHI%2BSuAOAPQH09wt9iBxTlh7jnnaWxFCOMnt11xiiNaScIPlpUj7co0sQkvpolnQhif1o7XDCndlGGMq9N4YYwN99KIf1vemq%2B0mnFHzbjn%2FE1AnAHojye4W%2Bz44pyIT2uzMKn7uQILkUxXpyAtTpxWpppPPL3N4Vq8aLl4%2BIrDGPEbwlM6Gx5M3etlwgWFpEuCZ%2FILyzqMmYVH0S8eIkvxZuWt%2BUqrEa4%2FZ9SMp7W%2FCogzAP3xBHeLfY04f5objTjjiBqAfQNxBqA%2FnuBuMYjzE8gXvYoRMAA7B%2BIMQH88wd1iEGcABgPiDEB%2FPMHdYhBnAAYD4gxAfzzB3WKDijM%2FfXydP3DFuA9KPcCr%2FADwYo4nzo3tlZf5FlPx7Ed8e8F%2FMDJ9eyAsC14YANvxBHeLjSnO8rrQWmN%2Fhlf5AeDFHE6cW9trWD6VcTis%2BtbCA%2BIs6Qs%2FAMzxBHeLfb04lz%2BIwajXhbwG9qpGt9UPXlcCb2LP4vxUe03L%2FKGc%2FHAmC7v%2BxkHh44mRc0v7RpseGk9wt9j3irP5OElGf2SjobHP3kdm2Ic8pR3eYU7hKn5%2BX9qEl%2B81n%2B%2Fn8MQ3dwb40Ad4D7sU5xe117Cs0vAbFe6ncePWujin9tn0ozMhWMXLDRhtemQ8wd1iXyjO1CCoQXk%2FiMHbio9scEMLDcpYaHAcV12BF41akcPjva38ZS7qIBb9hLy54zAe%2BWtiofy44gZ92Jc4v6q9pu3StkIYC75eV3F4WYQ4LAtKnPXHg1jwta%2Ban5DO%2BESbHhJPcLfY94kzN6LigRCFvgpnigaW0I1v1hEkkaVt1R%2FKiF7W%2FdhvfRv4Sry2GwA8w67E%2BVXttVhOoi6%2B3TjMijjrvGTd%2Fo0bw4U5fyUwjPxzohK06bHwBHeLDTRyNlfhjG2AjG58s4bLcONVI163sRJrfmx8AVfZoDPHGDlvbK9mmYWQby0FMazEoRXKQ81qMbK9iEfYcLudSW033qZSoE0PiSe4W%2BwLxTlBDaK4h2Wvwhm3gUlYvBqe%2FUBFEOfpHlL%2BoQyJn3qYcA9qyc8sb%2FKM%2B1PgDexLnBNPt1dnWUSyFoe4nqc2y9wo38UfirF%2Fw8Z0wR4zUIKPNj0ynuBuse8V58T0gxiNo1cdFjqMNBWtGpj7QxlxwxTOV8pLfmzeeLITvIldinPiufbqbGcW41Beoa0moxG8G0%2FWcziNhkObjuUs%2BgTpKNCmh8YT3C329eIMACjZszgD8C14grvFIM4ADAbEGYD%2BeIK7xSDOAAwGxBmA%2FniCu8UgzgAMBsQZgP54grvFIM4ADMahxJmfns5PQj%2FA7AGwDXDa9JBXNH41a90TvxrG8ffzTjM%2FNY4H096NJ7hbDOIMwGAcSZxZ6M78bexH1flZcS6e2I5PaC%2BXJb5qGXR5LW%2FZruM9U94a3mtpoDue4G4xiDMAg7FncY6vUqUVkqj4ShW%2FivigYD0jdl7aNX%2BP5NdDkDPqtTS82vVWPMHdYhBnAAZjl%2BJsP0LCsGjFT3yRwKSp7SBkJOBp6jhONYfYcYRYTEFTmBY%2BWtbfG5iuAXS4%2BW7BTDTLkXH5%2FQLeltY5jqQPf50yp%2FDJh8RdKG%2FNV41i1IyPorwTT3C3GMQZgMHYlziTYJDQeD98ob9FHT7HyYrC4qTv%2FbL4zASUEJHLYscCb77gFxWyCM%2Fp7HJGLhTUBUMItvmZMK%2FMS2lCPk55a77imoF9qIsQgafnQ51jFN0TT3C3GMQZgMHYlTizuLhDvyhOcXQoo0cjZIwRtuoP0tTS1cLtciaNnHmbLlswEmvv5ylreXjbW9OkYL%2BMiWLUPEdf%2FIDX4wnuFoM4AzAYhxg5s%2BgUypFGqvbX3LI4sWjy9rTFipkVsbVwuyzodDK9rfHSWz82%2FJE0KbjIr6AyamYwcn4LnuBuMYgzAIOxL3FOmHvOeRpbEcL4yW1XnOKIVpLwg2XlSLsyTWzCi2nimRDGp7XjNUNKN2UY4%2Bo0Xhhjw7004t%2BWt%2BYrrWbcUTPuOb8TT3C3GMQZgMHYpTgnph%2B%2BUPdzBRYima5OQVqcih%2Bf4OltDtfiRcvFw1ccxojfEJ7S2fBg6l4vEy4oJF0SPJNfWNZhzCxc%2FYiGST8rb81XWo1w%2FTmjZjyt%2FVY8wd1iEGcABmPP4vxpbjTijCNqAJ7DE9wtBnEGYDAgziXyRa9iBAzAk3iCu8UgzgAMBsQZgP54grvFIM4ADAbEGYD%2BeIK7xSDOAAzGfsWZnya%2Bzh%2BgYtwHnx7gVX4AWMET3C0GcQZgMHYrzvL6D8QZfAGe4G4xiDMAg7EHcS5%2F4IJRr%2F%2FsSZzx%2BhF4EE9wtxjEGYDB%2BKg4m4%2BNZPRHM9bEmZZn7xcz7EOeug7vJKdwFT%2B%2F%2F2zCy%2FeUz%2FdzeIKbLxbw4Q7wGJ7gbjGIMwCD8RlxJpHzPtMZMB%2FNYIHMIqssiKr5QEkQU2cknMM5vvrSFr%2FHvOQn5K0%2BAyrgk5dgI57gbjGIMwCD8RFx5lFt7eMeetTMeIJbiKcV7iSytK36wxfRy7of%2B%2B1uA34sArTiCe4WgzgDMBj7GjmbUTNjBZUpRNX5NCWFLP7wRQxd92PjCxg5g414grvFIM4ADMZnxDlh7znbUTPjCWQOS9PUkiaHV374QuLLtDb%2FgMSSn1neuOcMHsMT3C0GcQZgMD4qzonpBy4aR686zPvBCQ5mEU1T1PbBrxzOo98lPzZvPK0NHsQT3C0GcQZgMPYgzgB8O57gbjGIMwCDAXEGoD%2Be4G4xiDMAgwFxBqA%2FnuBuMYgzAIMBcQagP57gbjGIMwCDAXEGoD%2Be4G4xiDMAgwFxBqA%2FnuBuMYgzAIMBcQagP57gbjGIMwCDAXEGoD%2Be4G4xiDMAgwFxBqA%2FnuBuMYgzAIMBcQagP57gbjGIMwCDAXEGoD%2Be4G4xiDMAgwFxBqA%2FVmx%2F%2Ffo1C1sKhzgDMBgQZwD6Y8WWRdgKsRcmBnEGYDAgzgD0x4qtCLGIsV23BnEGYDAgzgD0xxNcLchLwswGcQZgMCDOAPTHE1y2FmFmgzgDMBgQZwD64wmu2Jows0GcARgMiDMA%2FfEEd4tBnAEYDIgzAP3xBHeLQZwBGAyIMwD98QR3i0GcARgMiDMA%2FfEEd4tBnAEYDIgzAP3xBHeLHU6cucAwGOw5eyVolzBYH6uxO3EGAAAARgfiDAAAAOwMiDMAAACwK%2B73%2Fw9IsknvHsBweAAAAABJRU5ErkJggg%3D%3D%3B%22%20vertex%3D%221%22%20parent%3D%221%22%3E%3CmxGeometry%20x%3D%22559%22%20y%3D%22316%22%20width%3D%22285.92%22%20height%3D%22155%22%20as%3D%22geometry%22%2F%3E%3C%2FmxCell%3E%3C%2Froot%3E%3C%2FmxGraphModel%3E&lt;/span&gt;&lt;b&gt;&lt;br&gt;&lt;br&gt;&lt;br&gt;&lt;br&gt;&lt;br&gt;&lt;br&gt;&lt;br&gt;&lt;/b&gt;" style="rounded=0;whiteSpace=wrap;html=1;fillColor=#ffe6cc;strokeColor=#d79b00;" vertex="1" parent="1">
          <mxGeometry x="868" y="409" width="259" height="176" as="geometry" />
        </mxCell>
        <mxCell id="ufcLUfaZhDcKgXgrHdeU-29" value="&lt;b&gt;IRDS&amp;nbsp; Comparison&lt;br&gt;&lt;br&gt;&lt;br&gt;&lt;br&gt;&lt;br&gt;&lt;br&gt;&lt;br&gt;&lt;br&gt;&lt;br&gt;&lt;br&gt;&lt;br&gt;&lt;br&gt;&lt;/b&gt;" style="rounded=0;whiteSpace=wrap;html=1;fillColor=#ffe6cc;strokeColor=#d79b00;" vertex="1" parent="1">
          <mxGeometry x="630" y="409" width="218" height="176" as="geometry" />
        </mxCell>
        <mxCell id="ufcLUfaZhDcKgXgrHdeU-31" value="" style="shape=image;verticalLabelPosition=bottom;labelBackgroundColor=#ffffff;verticalAlign=top;aspect=fixed;imageAspect=0;image=data:image/png,iVBORw0KGgoAAAANSUhEUgAAAtMAAADqCAYAAABgHsl9AAAgAElEQVR4Aey9B5Ak13nnOXF3e6e4uIiNOMWFFBvaO93F3m7srRxFL9GApEhCJCFakUuJkrDUkgAJeo+BB8Z77313edPVVe29995Ue1vtu7z3v4vM6p7pGYzBDAEMhvg6oqKqs9K8/L/fy/q/L7/3cls8Hkf+RAFRQBQQBUQBUUAUEAVEAVHg/hXYJmb6/kWTLUQBUUAUEAVEAVFAFBAFRAFFgW0igyggCogCooAoIAqIAqKAKCAKPJgC23bv3v1gW8pWooAoIAqIAqKAKCAKiAKiwLtcgW07d+54l0sgpy8KiAKigCggCogCooAoIAo8mALbTpw5d2PLjI+S83t5/sVXuVo6SGbjm8xyD4f2vsorr52gbzmWW5r102g6y/PPbufZ51/C2j6nLh+qvMSzz27n5VdfY8drr/Dic8/y4hkrzcVXeP655zaWv6ouf/a4nrUoBCYaOLzjWbZv387zOw/SPh9V95VKpshkNwpxh7d0KkUqfY+V7rDtgy5u63yZLxu/zsH+oXvsIksqkyClFi9FbfNP+LrjEDPRt7e89yikfC0KiAKigCggCjxEBTJ4podobmqiqamJls5BvMlNB3L3YmUTYcZ62+l2zrLhTm7ZIM26a4T2lhZaWpppamyid3QBv2uC5sZ25nwh1maGaOsYYD18t9/mDN6VMdo2y9jex2rwjZXxlgLd8d9sJkM2e7cy3HHTm75IRf0MdbUxOu+7aflN/6TDTA520dLSQnNzM03NzfSOzJK4aaXb/JPNkslkuVcpUyEvg10tNDY10djUwsj8+j23uc3R7rwom1HLcecV7v1Nwr9KT3uzWsaO/jGC6Y1tol6c3W00qqzMk7r3rthWOOC5sVpqgd3/+De8973v5Yvf3clUztMyYHiNx/76vXzoA1+icDQMGR+nnv0aH/7k53nqmR/zo2//PX/1yS9zxNFHb9kZfvDMD/jG5z/C+x/7HN99+nv85KCWGstJfvyjH/LNJz7G+z7+ON956ml+tD+Pkb4qnvnSR/nCN/+Vn/z4R3zn+09j7QsS7M3jy3//c9rmQzfKd+un8BivPfNtXsvruvWbt+7/5AzPHPt9tv1qG//v+e0s3IW8qLeBLx/+Y17pmVHLU934DF8s2MdU5F4YvnXFlz2LAqKAKCAKiALvFAWy6QjD7VUY9HqKSiupra2iqKSG+egbsTCQCXupL9RhqeoieNuTSjLdX4U2T0dRWTU11dW0D87hmx+noa6VOV+AqfZStIZiZrx3MMeZJNO9jRj1OgpLyqmtraG0uIKxleRtj/ggC9PuScrsRfS63A+yeW6bbIbg8igVhWby8zQ09C/eeV8pN80lJjT6Aiqra6kqdaDTaimq68V7x0neUsx0V2OvaMN/5z0TWh2jrMCIwWynuqaWyrJiGvum2PSqd9n0DX4Vpb+hhNLGYWIPvNMEM70NlJVXUVtRglGnp6p7klgyTHdVIUaLnYrSIgx6E23OxevB5TsVcNvhg0dufJdaYN+Tn+dfnvxHPvHFf8XW7wXWOL39n/naPz/JEx/7BiUzEebLj/LYRz/Fr682oqKUWOXAjx7nr7/wc/q9OXdZtPsrfOC/7WQheLNxrDjwDd7/zy8x7ctBO1N6kL/4i/dwsGRCLUciE2Siq5ZXvvd5PvDRx3lq+246Fnz0WE/zwnPP8fxzr6EtGyJJAsfR7/Opxz7O3/3D01wu76KvMp+d+40sA4nZZna+cpTGSS+Z4Cx5J3fy3HPbee2EDfeWNuodLuOl1w7ROL6lU3FDkdd9Coyd4P/a+5/55uUn+KMD70Ezc8Psu6bN/KvhSzxh/A6Xe4p5TvcJ/pfnt/HHp77E+ZFB2nr38NO6a/RNFPN9839DOzEPpKlo+hlPlh5lPpJm1HmWJ/Vf4IvmX1G9fJde5etKJgtEAVFAFBAFRIFHSwHf0hBWnYbyFifRZM4vRAI+ppy9tLb1saLeyQ0w0tNG78gSmVSChbE+WpQIdlsfrrV1movNFNb2oPwaJ0IL9LQ209TUwtDcuvobOztYjdFUwrTy78ZfbGWGrs4+lgNBpjsrMFrKmPNlIZNgZrBLjZK39jgJJiGxNk2RSYujrhtvMufeEiE/oViWbCqAs6eN5uYmWrsG8UbTkAwy1ttJ76hLjfR6p5XI9yDuSJh5Zy/dg8OMDPXR2tyCc9ZLIhKgq6YInc6AvbyWUdcWPxJdo6+9hb7xZe55Ez4ZoqemmOLKaqwGPU2DS5un+/r3lIfWMgsFld2EFSOXjDDcVEa+xkSvy09wfZb25iaam1to7xnBn8qyNjVAkUWP3lRAXbcTf9CDs7tVjWw3t3QytRYBlDIUorOUMraY80fZTBR/IAwo+xiipbmZ5pZ2xpcCarnW5py0dfbjDadIhJVocSvjiwESngU6O7oZGx+hu6OV1s4hfPEoi85WCgw6jNYiWnvHCV031Glcoz00dwziS1xf+PpzV5Zk04QCfhKKH4yt0VhkoqCqj/XlUew6LTU9i5Dx015hpaCqG/89+k3btj+nu3Gg1CJ7/+kxfnjwNL/6yt/xm2steKdb+OFX/pbn977K5z/yDcpnlina9T0+9Xffpmn+Ri9u0Pwy733fE5gHFQMOtp1f4QNPvsrCLbdBSvZ9g/d/63mmvbkTjay08vO/+yQf+NBn+dmuK/QuRAiM1fLLJz/Dhz/2Gb71g2dpnF2k5ux+fvHzX/CT7/5XPv7pb+Pom8Z84Nt88hOP8bdf+RYnChooPPgU7/vYzxgBIp1XeP+ff56LdcOYD/wTH3787/nZz37Kr/ZoWd0iynpfAT/82YtUDK/d0OGOn1JYSj7P/3P8W3QMO/jL3X/Av9RUqWu7xy/wZ7v+V/7g0J/w/nOf5YXSU3zv6of4Ny9u4/84/DEODbRzWf9f+J8O/BMN05V87rVt/Bf9VVLRaZ489Ie858pOeocu8ae7fp+/uPQ3fOjEH/F/Hv8XBm/f1b5jCeULUUAUEAVEAVHg0VAgw2xnBVpdISNrN9/mdU90oM/X0DruI7XqxKw30jG5iKuvAb3OQFFFFRUl1Qy6lmkpUcx0H4H4Go2lVqxF5VRXl2I0FjK05md+uA6jwUaPc4GV5WX8kQT+0RbyrproX/Iw01WJ0VLOfCCl7t9kslFTU0uR1Uh56wBTo00YdWb6Z26Jx6b9dNcVYTDbqKiuxmbUY61sI+RZpsGmx1rbh3KD39VWSp6umFmfh96qAvK1RsoqqrCb9OhttUyvrdNeVYheb6CguJzB6S1+JLJCR30N7cML9zbTZMmk0wRWnBTqdTS+ATNtregktBGJji72YdHoaOifx+Ny0lRfT0NNBWaDkdr+SWbGe3GYDRhMFipa+vCsL9Lb2kBDfR2lhSbMxY3ML89RYdFT3DyEYq23/q2OdGI2GCgpq6S8yIreYGd42c9UbxX5Bjvz7gRRzzhW7TUaB1eIzA1i1ORhtpdSUV6EVqOjqW+cuaEmLAY9Rksh9R3DBK4HSFPMDLRS1diFJ3594dYi3Pazd3YIu1FPTe88kegSlWYN9uoulmdHqLQZMBU34bkRN73tPraxNXitmOlvfZyfnSqh6Pj3efy7ByjRvsrn//E1KqyHefyvv07F9BKFO5/m01/6Di0LN/Y5aH2N933g77AM3J+ZVo6/NNWH4fiLfOaD7+PDX3yaqskQk7YX+cDjT9E0m3OTky16Dh08wP5XfsrffPDTHK+ahaVWvv21x3n2cifKfoqPfI+PfmY740C0V8PHPvxVrjUMo9nx93z4C9/itcNXGVi4hyI3Tun1n0IjPHniD/jP2nMkMx5ePPeH/Ltz2/EksxSWPMG/3fmXFLhikIkTjYZZmM7jP734e2zvnFR7ZFeNf8L/fORbjHrcHNa+h98/+iT1fef5/3b/ITsGZigr/iTbXv53fM3+I57Mfx+/v/uPuTTxW5T39WcgS0QBUUAUEAVEgXeIAhmm28rR6u2Mbb1lrJQu7KbRYaK4qYuBnnoshdUs+ZdpKjZgKe9So5HZRIyg301TsQl7wwBzU0NY9TpKapvp7GjEZjLSNDjNrLMBo1aLTqclX2Og0bmAd6ITvcbK4MqGmbZW4lpbobXMjKGgjM7ObupKbBSW1tDZV49Rb2Fww49sihdemVYNcdOwS1204KxHry/A6Zyjtdiilkkx0wudlehMZcz5vfTVFGJ01OMJp1kerEOvszHiThOeG8Cst9A5uyV8vnmg+3wPrz6gmV7qx6LRUt+/SDywykBPF90dzRRb9NhrBwjF0gxU2zAWN+XSPDIxZpy9dHV10Vhpx2gupn9khnKrjpJWp9qRuF50peNRZcNS3oZPifZ75ygz66noHGRksA6DpQSXJ0HUO4XdoKV5eJXI/BBmvYHm8RUSETe1Nj1FTcPEs55cndcO/BZpHkrJkrjGeik0aimu6yegJt2nmRlqwqzXYrIXUWKzUlDehncj7fn6+dzy4eaHtqhm+mP85Gw10902/uGxx3nic5/gV5dqGCg/zWc//FVKZyM4za/xkb/+NPvsA7ndpX2c/tUT/NXXfoPTm+sNvNHIdCywyupG92Wx+QpPfOxDPHepg277S3zw8adpXUiQnK3j21/8ME/t0TFYr+NzH/oMp2rmSC008y9f+SzbVTOdpfzEj/nYp5+hPwH+ltN89INf4lKzMjAyQMn5fTz5tc/z+BO/oDdwj/D/LSJt/rswfZE/e3kb2176H/m9nb+nRp237Xgv1plZLlk/xf++73M0KHdnsknSySSu8Qv8hxd+j+e6pq6b6X9z+JsMRWG055f833v+kK9f/iJ/evTrjCWTXND+R7bt/AB5k9NEkl4mlsbxp25E/zfLIe+igCggCogCosDvggJr462q0a3tnCB3Zz5DJBQimU2xNNxCgdWMxWqltmuGTHyZqgI9jvohYspPYypFJKAYKzOOhh5GRzox6gy0DM2SSKUI+b2Ek2FmBmswGh2MLURIJRNqhDcw1obuVjM9N0+d3YCltIW1YJx0LIQvEGF9fkA16aXNAwQ3ci2SsRBLM4PYjAZaR3LpFEvjTWoEfHTSRVupBVttL+E0zLaVojOVb5hpG5bSVvxxcI81Y9RZGV5KEpzpx6Q306Wmpvx2NXs/ZlpJ8wgpd+vTEQabStDobQzMLtNTbUNfWM3c7DQNDpNqpsOxNP1VVtVMKwkaayNt6HVG2gdmmOqqwmAqYXx+NdchsVUxs5obEprNxAm5F2lR0kqqOvGnIeVfoNxioKrLyfhQAwaTg5m1KOH1UQr0N8y0oknnnJtMPECTw4i9oZ9oap0Gu1Et04PnTGdYnuzAYjDTODx/y8DLLNlshphnmgqrkdKW4Zs7BrepnlvM9AI7vv5BnjpWRcY/wwtPfoz/9KGvUtCzymTFYT7+ni9QOKZMvzHNru99ho984Zs898ouXvv5t/nwpz7PnoKe66M1La98nj//hxdwBW42g45dX+bPvv5rpjZM93TlKf75md+wa/cetv/wn/nEZ5/gWtsarurDfPCvPskzrxyjqOAS//C5D/Hkz3ew8xdP8t6/eIxjlTPgHeD7//XTfPbrT3GtoZ++wsN85n0f4Nu/2Mkv//sTvPfPv8DFOid11kPs3ruXX3znazz2iadp99wI/3tHKnh111GaJrbkKN1GKCXXx1T4Kba98B/4ed0JLvdd5nDN0/z77dv4UKEd19gJ/vjl3+M/nvkMX9H9I3va21hbtvPhl7bxRye/ypXxfjXN43/Y/w26lWCzu5rH9v1btv1mGx+1mtUjDrT/gv9t+zb+5PwT/JP1q3zRcArJmr5tZchCUUAUEAVEgd8BBdLhFVrKrORrDVTUNtHe3kBpeS0uZaB+fIHKAgMaXQFDK0ouQprp9go0GiOVjc00VDcw7FqiyWGgoKaX9fVcVNRoK6OlrZWqqgZmwyGUnGmd3s7U6o1AWmC0hfxrJgaWPUx1lKEzljLvjuJsLlXTMKobW2irr6S5b0XNge6sdaDJ11Fc3UBbWxsVZTWML67QWVWAwVpMQ0sLxRYDBUraRCZEf70djc5KbX0LxVYdGmMps34PPZVWjEXN+OKwPtKALt/E4FKC1JJTNew2JWd6IXeHX63e6DoDHa30T6y8gTSPHBDh1SGsmrx7DED00FJqRmey09jSTlN1GXqtjvL2YQIRNw0OPSZ7Je3NdVh1+dhq+gnHMzgbHGj0Vhr7hulvrkRntNLQ1EpVkRmN3s6EO8XaaBsmrQa1Hlrbaawpo6V/EpezFYPeSHVdE3UVdvRGJb0nhm+qR+1QFVXVUl/pQJOnoWlISfMYQK8x0D67Tibmp96mo6C2lyhB2sut6M0OWvsmbsqZXhjrVWeD8d8rZzoRoaPUSJ6+gNrWDtpaW+h2zhFLpJh39tDW1kp1uQ29qYiRNSXf++5/N5vptBv97p9y3Natpk00XjvE9p0nmYvCUpeVX//wZVpdG7HuwCyaoy/xne8+xTM/+CF//7mP8MTTL1HbMa46/Fbty/xgXx7rt8xc0W7cwTN7LrMcypns0GIbO773FE99//s8/fT3uFY9piaeZELLXN33A777k+eoHpui9PgrfO+7z6OzaXn5p9sp7M7lmPQWn+AHT32bveYO8M9yevdv+M6PX8VqyeMXP91BRf80had/xneeeoqnn3oOa+vUdcOvSLPeY+H7P36O8qHVuysVm2Ov5XE+X3iS9c3UrtAUO8yf5Su2o6yloL1rB4+d/0v+/MITnBxXBheGsdQ8w/vPfpLdvW1UNHyfv7XsZFKNxEcwVPwTH77wJfQzGyNuswkaOl7jsxfey3vOfpQd3W/jLCV3P3v5VhQQBUQBUUAUeEsUSCdijHY3UVVVRWVlJQ1do8SUsYhZD43FJkylrQRzc8xCPMBoVxOVFRVU1Xey5PUz3N5AS9+EOjVe2DNFc42yn3IaOseJZ9KszvZSV9/Gsu+GmY64nNRWNzHjDbI83k19YyerimdKhBnpaqSqspKK6kamPRu3zpNR5gbbqapU9l1BXWu/GmFNRhfpqK++vsyz4W3iK1M01FZT19jB0EAndQ1drIZDTPU209jhVAf9BVxD1Nc2MetWTEWK8d5mKiur6J/c4kciy7TXVtE29EZypnPVE/PN0Vxbw+DMXYKE6SAjXc3U1NRs6F5D79gyadWapVmd7qe2qpq2nl46W5to7ZtW6yS8PktLXRXVTT2sLc/R1VhDbWMr/YNd1Ne3sRBQKi6DZ2WSptpcfVZWNzC5HFbv2k/3t6p1rCwbW/bk/Fg6yFB7A1U1dXQNDNHaUMvwrJf42gwNdQ2MrgbIJsMMttbRMjCleszg4gh1lZVqzrT/enw0xXR/C5UNnffMmc4kYgy111NTW0t1dZXKU2PPBNF4isnuRioqKqmsaWJyNTdI8l7g32ym77X2Xb6f76/EYjbhqGjDd/3E7rKBfCUKiAKigCggCogCosBtFPDPjdBSV47RYKF7You5vM26skgUeNgKvGlm+mGfiBxfFBAFRAFRQBQQBX4XFMjiHuuirKySLufcG3poxu/CWcs5PLoKiJl+dOtOSi4KiAKigCggCogCooAo8JAVEDP9kCtADi8KiAKigCggCogCooAo8OgqIGb60a07KbkoIAqIAqKAKCAKiAKiwENWQMz0Q64AObwoIAqIAqKAKCAKiAKiwKOrgJjpR7fupOSigCggCogCooAoIAqIAg9ZATHTD7kC5PCigCggCogCooAoIAqIAo+uAmKmH926k5KLAqKAKCAKiAKigCggCjxkBcRMP+QKkMOLAqKAKCAKiAKigCggCjy6CoiZfnTrTkouCogCooAoIAqIAqKAKPCQFbinmfav9VNWWEihrYTO+VXUx7azQmtlCXaHg6KiIhwOh/oqKi6lob2PRU8497x15TH3ET9NlXbsjiKKinLrKesXlZRSXd/KmGuFWCJ9kwzZVILV2VGaaisp2dymqITyqgYmV8M3rXv9n2wKV1cdNvvNZXI4iimvrKFraApvOLZR/utbvbEP2SyJaBh/MCxPYnpjislaooAoIAqIAqLAPRXIppNMD7Rht1mxWi3YSmpZ8EQYbi7FWtZCMJW95z7utsLCYAuFxTXMBhJ3WC1DNOjDG7jhW+6w4h0Xp5N+htprsBVYsVrMOKo78EWypKIB3L7gXX1HNhnD4/ESTabuuP837wvFywRwr6/jdrtxu9dx+0Jq+RJuFzXFDur6pog/wAGT8eCW/XqIxHNu8QF29WCbZONM99ThKKlhbv3t0PLmYm5LJ5M3L7nlP+9SB5a8fPLzjDRMLm1AsUiNzYBGq0Wn06HVanMvnRadVovBWs6MJwduPOSloiAfjVaHTrexnrq+Rt1eq9VTUt/Fenzj5DNJJrtrMdy0rrKdhrw8LY0j7ltKuPFvJsV0Ywl5mlvKpNWi0WjRajSYCitwLgRvv/0dlwaZGOigsqgQR00n3juuJ1+IAqKAKCAKiAKiwP0osDragkGrpbplkMkxJx0tzcyuhlhfmGR00kUi89uZ6dmuavL1DiZ8d7CIiTDtpUas1d3c3Q3d6axSjHdWoNOaaeoeYXJkgPaWbtb9SZx1NvRFTUTu4iv9k13o9FZGlnx3OsCbuDzF3HAd+rw8NBoNmvx8NMZCuseXiK7P4DBoKW4bJXqfR4yuz9FUUZjbnyafPI2B3qkoJNwM9/Yx4wnd5x7BPTdKz9Ak8fQbrP9sjPHWErQGB5MrD1aT913ILRtsO/m972359/UfvcudWFUzaqZp6oaZri00odVosVW2shSPE/Ys01FbgkGvR6vVUdszo+4sEfJSVZgzw4WVfbj9cSIhP7OjvZTbLej1OnU/5S3DatQ37p+g2KgYYj2Woiqcc6uEo1H87hVGejsZcQVeX0hliWKmm0pzBt1SzPTCOvFoGPfiFC01JRj1OTNvsFXhCt9HryW7SJVFT16ehsKabvy3P7osFQVEAVFAFBAFRIH7UiDDQm81+RoDrUMrpDIZMsornWako5rS+h5iET+DjZWUV9fT0FBBYWEJHc4puhorKLAV0tw3Q4ooA83lFNd1E8mkWZ3qoai4gum1MK7eWrTGYmaCIVwjzdgsVgoKbJTWdeFJhBluq0Sv02EwGCiu61f9xsxwM46CAgpsNhq6poinIe4aotheSlNTDY7yRtZCG4Ytk2Cgzo7WUMjAjI9MVjF/McZ76jHqtej1euyV7ay5F2gsLcSq7NdeSs/MKgHPFKVWAzq9AXOBg57BeTprSqjuHCUGzPU0YC9tZDGSZHG0m2J7ARarlbru8Zui3aNtFVhK6vHG7uVtUsw76zHoLPROrhDyuai26TA46pmZn6HUpKe0fUw105GAB7fHg8fjxh9OQDZFyO/B4wuQUg1umrDfjz+0Rl9DEXn5Fnpm10gkEyxPOZmY97E41Izumoaq3gn80QTxWBivx63uU9mPmpSQVfbjxesPEAwE8AeChILLNBYZyTOXMrPqIZHKotzB8HuVaLobX+hGlkEqHsbj8RDwrTHcUobeVMzUwzDTX/3qV++K/r3MdGFNJ5v9Kd/MIAVGrWpoK1qd6n63mml77TDRLR2GyPo4ZQVGNWKtVwywJ0Xc1Y1Zp0On1VPWfh89pC1mWmMtZckTuX5e2USQ7vpitcEokfCG/vlcGkomiXd5npGhQfr7+ujrG2B0epHYRi8yGlxgsKcRh8WIXjH3jnLa+voYnVlSjX8q6mNuYpTBgX76evsYGBphyRu5nuJyvQDyQRQQBUQBUUAUEAVep0A8MEudw0zetXxsVY2MutZJk6Wn2orW0UAk5KGr3Eq+oZC2rm4q7CY0WjMNnd3UFZvRF1Sx6AvSVWXBUNxEOJNmcbQZvcHK6FIQV1+daqanfBECK3OMjIww0tWEVW+kcWiKxdkxiq1K8K6S0bl15gabMeiM1HUN0NvWgFGnpWHIRXCmF4MmH2txNUMTc4S3pKdGFpyUKkG3fB0l9e3Mr/vwLc9QUWjEUFDK4ISLcMDHzPgIo85hWstt6K2VzHnd9DWWozMo5zPA4vwidYUG7PUDqqGdbClFa6lgxDVJsSkfR1ULztFRZpc9N/mM9flJhsZmiKbuEgJXlVfMdB16vRWnKwhJH40OA3pbLePT05Sa9ZR1TBCK+6m369WMAuWuvrmojiX3Cr21Nq7pHUx54xBZpdZmoKixm562GrQaHWWNHcyt5gKevqVBCvT5akdBk6+hrG2QkYFmVUMlg0GrN9M8MAcxHx2lFnRGM1azicLSKurqitFrdWqGQr7BzsTKKlMDjZh1GjVLwWArZ3IpDnEf/XVF5OXlqdvbCgswWkoekpn+l9deB/fWBfcy0/aarg0zreQ9NWHSK2ZaT8vIirqbm8x0zc1mGrKMtVWqqSEavZneqTUS/gn1VoNOr8dgLqSlbwJfKMo97/S8zkzfnFsdcw1iMyhRcB1FDX0o3/qXeyjU68i7do2rV69yLS8frd5IVfuwCrJvqRXdxato9Qa116rXably6TIFtb1EidJT60Cbn8+1q1e5evUa+RotxoIynMv3m0qyVXH5LAqIAqKAKCAKvHsUSCUiLI51U2I1ojE6GFvy0ldnz6VIbJhpS0U7vjQMKVFgWy3+TJTJ3koM5nJcbj/dNQWYSlvUyPTSWAtGk42x5dANM+0PszTZQ0V5BU31tRToDVT0TBOJR2gs0mGvGwDi6nFNJW0ElKyQ+CpNRSYKa/pZHevFpDXRNuu5TcVkSESDzPQ1YTXqMNirWfQG6a6yYCprVXOQk9E12uvKqaxpoK60EL2xmKkIrI22ozPamFwNkY14qC00UtQ4qEamp9rKVdM9sbJCZ6UNo9lKSU0bq4HoTWb6NgW6w6IU8yMNGLU6zNYCCqxm9EYLTf1zhNZnKVYj0+NEs+BbWWB+fh5nbxtmvZaa/ll8C/2YNTqanEt45gewGkx0z3jIJCP0t9ZQYNKjNZgorZ5Mda0AACAASURBVO/AG02w5GzDqDFQPzSrGn0l7dc1P8fs9BS1xSZ0thrWfG56KgvI09sYmFwmFk8Qi63RVGpGV1jFUiCK3zVMgU5LSXMfM1PjVBToKWsbxjXRjkGjp7ZvGr9vnbZyCzrzQzLTvy5ZvoPoucV3M9M6rU6N1nYMDtLdWofNpFdzqAsrO3Encz2ku5tp8A215HKpdSaaRlxkSDPSXoFe6bko+dg6LaaCYpq7h3GH7jSA4OY0j1xk+mYznU7MUG42qLndtspO/GnwLHVSXlJDz6CT8fFROhsrMOk0aAx2RpcDJGJrjA+3UWRRoud6rEVVdI+Oqikkafx01JRR29zF8Ng4o0M9lCupL/kaHDXdqlm/q7DypSggCogCooAo8G5WIJvBv7yAL5y7Zb0y0oYuX0fz+BI99Xb0xU3XI9PWyg58WRist6MrrCO0aaYt5bg8MQbqC9EV1rIeizDTW60a1E0zrTeXMuyapcKqobhxFP9iLqVh00zX27UU1vWTIcVgfRE6azWL4Qxp/zzlVj2lrWN4JnsxaUx0LWzei9+ouHSSlYVllEwIUPKnK8nTFuBcWKez0oKxVDHTWaZ7atAZ7YzM+Zlur0BnKGY6CivOVrSGAsZXQhD30lxkoqCyC38yyUCdA62lnPlIGhIBZp19VBQYMJe34X2DqcQ347WZ5mGkpqUbp9PJpMudS7Fdm1bNdFnnBAH3AlU2A5biGno6W7Do9VT3ThNLB9Ty2avaGWopxeSox7Nl/oiYZ5HO2iI0eVrq++dYn1Y0M9Iysw7ZJBPtVej0Zpo6e6ktsaC3VbPic9NdbsVgr2P5ehZvMGeMHfWEM1mWR9rVQK3esBHY1Bsoqq6nVfGKhkLGFpWc7AQT7eUPL82jfwPimwW/8d9dzbTegBKtVSKzSlRWpzdR3T6MP3mjlu9lpv1bzHSzaqYVHiNMD7ZT6ihQUzPUQY4aLQUl9cwrtxdu93ePyPRNZrqqE6/SdtNx/F4vXo+HlcVpelvrsZl0aPPNNE8v53p+2SU288Ptt+RMx8N+vF4fHvcy0+ND1JXa1Ci7ekvkfjP4b3dOskwUEAVEAVFAFPidVSCXM20yWSi027EYFQPXoM4I1lNtIb+wnnDITUexCWNpG74M9NdYuWatJpCJMNFVisZQjMuTYXGwXr1TbLbZsVtN5OtzaR7zPdXk6RwMLUxRZzegN9kpK3GgU1IPupQBbkn6au3qRAUlDUOszY1SatVjtBRgMZvUiQum11PEpjvRXNHRPnermU4wUF+E2WLDbrdhMuhRvUI4xVhbGUqKQ1FNMz0t9Zj0egodpThsRvJ1DiYjEFoYpsCgQW+xMzy5xlhrOZp8LVZ7EYUWPRpzGc6FCWpLHRQ57JiUiHqb86aA3Vh7FdbSBrybEznckZcbaR7D89edq7p2bDVnpss7J5kZbEJjsDE442J+vFNNva3unVLztF0DdZgMFqwWPRWdc0CU0b5ORpfchIN+prpr0OZpaBhcwDfTo0am6wZn8S3PqhHl4vpu1r2LNJSY1cj0ppk2FTdyY7K2MO3lFrS2SuY9AZYnujFrNJQ09zLrUiLmLtwBP9OD9ejyDTT0T7K24qLarkf3sNI8Uok7mNONyribmVYGGqrR2uEeymwmdeChrbyRJfX+SG4H9zLTkx1V19M8eiZWb0IgEfEy7eym1GZWk/h1Gi0lTSNs6QjdWP8eZjqxNEyhcSPNo7EPpR+zNj1AZZEVnVaj5izZbDbMRj1ajZmm62Z6cYuZ3kxpgUzEy0BLNRajTk1rsVht2JRbJjotZkcdSzdStm+UUT6JAqKAKCAKiAKiwHUFosFlRoeGGBoeZmh4hBWfMoguy8rsOMOTLpKJGMtTY4xOLxHLwtr8BMPjcySyKXwr0zhHpwjGIJ0IMDU6zPDYFAuuBUZHx/GEEgRX5xgemcQfj6t5zENDI7gWXEyOjTK97FMNYsS3wujwICNTSyTTGQKrswwrZRpysuBRhgJCyreMUxkXtcXf5E4iS3BtDqd6DkM4RybwKnkSSpZIyM24c5DhCRehgI/psWFGxqdZXpjB6ZzEm1DWS7AwNcbgkJMlb5JUcJ0x5xDOiTlWXVOMjM3gDriZHFHKM8Tw6DTBW3Kj1+bHGRydfkM503PDteg0ZgZv6RQoZlqZzaOkY4K11XnKrDo0OiNFRaWY9DoqeybV2U6S7mkqCnRoDEWMrSkZABnG2ivIz7umzhCSn6+ntKmHtVAWQqvU2I1cy9NQUtdJZ2sVOk2+mg5bajOiLahmxeums9SMwd6AEpzf/JsfacSYf408o4NJ1zKTA/WYtBo1Y0GjNdE1E4Koj85qB/l5+RjNNoqKC9Cbih5OznQ8/luYaY0WJWda6d/4ZnspNOamviuuH0C5K6H83c1MpwMuqh1mNfXCUFDOnHIPJ50gsZEisilqeHGCYktulhBLWcvtZ9S4q5mO4WytUKPcGq2RViWfO+qiwqpXRxE39M4QSSTwrsxQYlGmi7mTme7eyA9PMTtYhz4/D31hFXPrfhKJBCMt5eoUfGKmN2tO3kUBUUAUEAVEAVHgnaJAKhElGAwRv8VnKbNlhINBwrEk2WyWeCRIIBgmFksQDgWJKMuVkwgod+sNWCu72Jy6O7fPIMFgkGAgRDy1GfJU5rUOEQgo2ydIJ2MEgwHCkYQ621owFCGdSROPhAiGo6S3jJ/MqOUJEAiFSaazZDO58qnHCAaJbZQ/E48SDAQJR6LE4xGCwdz6b7fe93xoy10j0xot12fzSEcZbC5Vo8xanYUuJUfmVjOtzOahztySwrc0TUulI2dwNXqqu6fUiHN4foD6pi5ca35y0wumWRvvxb6Z71zVqSbmv06o15npXGg4FnLj7KrHatSrEWhzcQNrccjMD2JRBiTqjbSPKrNHp5kbbsFsUOak3mqml6lzKFF3LdayJlaVvKhsmMEGR27u6uJGPPEs6YibxtICdT0x06+rHVkgCogCooAoIAqIAo+sAnGWZpw015Vi0JnpmnQ/4CDIR1aAuxb8TTHTmw8ySa5PU2bNDfKzFNWxHFbSn33qPNPK7BxKGL64uJSSkiKsZkNu0nBlCryGAQLK/RsgMteFIS8Po7kgt25xEVaTIWfS9Va6Jm43knbLAESdDr3RhN1RTGlJifpUJb1Wox7L7Khkai0300bGP02JWZl7Wo/ZaqO4yIHVbMakDKLcMNO5TlKMnmqbOkWMwWDCZiumqW8I50Adeo0GvcFEofIUyAIrFrMyhZ5O0jzuipx8KQqIAqKAKCAKiAKPlgJhhjuqsRcW0+FcYMvQuEfrNN6i0t7TTHuWOjCrT0A03PQExGqbQc1TKajq2PJUwAxzfbWqyczP11LZNUko6KdyyxMQ1afuqCbUiKOslv6xWbZO0pHwzdNUWYzZZFAjv8r6OoMJR2k1A1MruUm+byeGEpluLN7yBMScgdbodFgKi2nqHGTFu3VUoBKJbqVwI+JtLCyns3+QUms+edeMNF5/QA2EF8epUnOrteTn5eFo6CcQXqetSomsKzk8Bsoa++huVAYb5GGy17J482QityuxLBMFRAFRQBQQBUQBUUAUeMQVuKeZTqdiBP0BAv4AkcTm03VShIMB/MoTa5Q8ly0iZJT1AwECAT/BUIx0Oq2uG1CXKctzLyXvJRpP3fY2QSoRU3N3NtcNBENE41ue9rLleDc+ZklGQvhvOY6SqxOKxMjcbqLqTJpoOKiWKRSJk06nVPOvnFckuXmuyhEyJGLh62UPRZWJbpT07qh6noGNHKFkLILfr5x3hFvGB9wopnwSBUQBUUAUEAVEAVFAFPidUeCeZvp35kzlREQBUUAUEAVEAVFAFBAFRIE3WQEx02+yoLI7UUAUEAVEAVFAFBAFRIF3jwKqmc5kMshLNBAGhAFhQBgQBoQBYUAYEAbuj4FtsViMZDIpL9FAGBAGhAFhQBgQBoQBYUAYuE8GxEzfp2DS8ZCOlzAgDAgDwoAwIAwIA8LAJgNipsVMSw9UGBAGhAFhQBgQBoQBYeABGRAz/YDCbfZG5F16psKAMCAMCAPCgDAgDLx7GRAzLWZaeqLCgDAgDAgDwoAwIAwIAw/IgJjpBxROeqDv3h6o1L3UvTAgDAgDwoAwIAxsMiBmWsy09ESFAWFAGBAGhAFhQBgQBh6QATHTDyjcZm9E3qVnKgwIA8KAMCAMCAPCwLuXATHTYqalJyoMCAPCgDAgDAgDwoAw8IAMbFOeciO9qXdvb0rqXupeGBAGhAFhQBgQBoSBB2dg2w9/+GP14eki4oOLKNqJdsKAMCAMCAPCgDAgDLw7Gdh28uRL92GmU6QzN55Xnkq9O0WTxvK7VO8Pl+l0Ok1qy22lVDqNcrdIeaVTKblrtEUbaXdvtN1tZTrNjet0itQmU6mUypjyncpcOv02s5bKHVc4f5t1f6MMyXpyvREG7oeBbZlMgGTyjf5oR/GurbC44GJ+YQl/OLblQv3GhU9nsmTTb/SYb3y/93Pisq7ommPgZqYDD8j0rTxlslky92A8EY/g8/qIxnN1kUomCPndLC0s4HIt4vZH1M7rVrO9eZxcG3q7DZAws6n/O/s9x/TCgouFxRWC0WSOxUSMaDRGMpUmEfGz5FomFE8QDXhYWlolEk/d1LF7684xTSadxL++gmthEU8g8lsYyhRKW0vfo629decibUK0FQaEgST3MQAxQzI+zpkXn+fAifNc0loZdgUgu/GDnlIiIMrFOIUSbVNeisCp9I3/1c+pBCvTg4y7/Oo6SlREXV+i3L/FD4o05gdrzBmSsTHOvLCF6QU/kBtHoLCpMJ1W2N7g9HqUT1muLNuM9G3hPpuKszA2yNRKUP2RT6U2GN/8wVeiglmIugc5d/Ick+sJspk0JILUXN3Pc3tOcPnSOY4cP0/D8AKJjHKcG/tIp5OsTY8wOu9Wy7V1/7cz3g+mjTD1SOqWyjF9+oXnOXjqIhfPnODkJRMT7iTxhV705ho8qTCNxrOcvFjCzMoklovHyLM1sBbNqBwqXKucbzK+we11ztRr9Y3rurr+xh0EtU1sbr+lTVxvN8kUmUSI/toCjhw6wukTxzmnq8SdgMzmb0E6Z+qV4+Ui6bkotsK2WoaNcqltMxlmcmSIBU/4np3XR7I+5c6M/C4KA48EA9tisTcaFciQjI5wbu9RulwJNTUkFvbj8YdIplPEgn68SoQhEWF10cXympdEKk0o4MXrdbO8pESyE6Qjq9jP7uC0tZtgLEnYt45rfh53IHrjFqTA80jA8+j/OGVIRpyc3XuU7oUc0+loELfHTyKdIRzw4A8GCfi8eD3rLC4uE4wkSGfSJGNBlhXO3X4SKSUlI453dZnFVS8xzxy6I7u4XDFAOJkhEfax6HKx7guTymRIxSOsry4zN9nG2VMXbjLTVZcOc7V+kmw2zWyPg/2HrjDjixNyr+ByLeAJRMlEPJRdOMBRUyPeSIKQbw3XvItVT5DEdXMvZvjR5/MB6jCVIRFxcmbPETrnopAM0GA4wQlTK0H/EoPDU6yu9XF21z7qx/y4BsrYf+gso0thMpkkntVFXEtrRBIpYuEAbo+bldV1YokkQfcyroVl9bqdjIfxeb24V1dYVphXTHI6pbK4sLBEIBInnYyxvrzA4opb/V4xw+lslrWRag4eOEPvgp9kNMDMxDjeKMRDXvWu56onoAZhIgEfvlCUVCKmHiscjRH0efB6PSwpbTGWIOIe5fS+ndiaxolvmPB3Zb3Lb6b8ZgoDD5WBbbFY9A0WIBfxOPvKK1zQ2alv62W0vYwjp02spdI0G8+gq+ult7YQjVbHpTPnqe5foDJ/PwdOXeXa+cMculLCwmQPJ1/+JS8f09Pe0Uje+dPk64x0TrivR7PlYvgAP6LSkN4gx1u13WD65Ve4oLdT19LN6vwYF0+eoX10DNPFS7RO93F1z07O5VvIO3OUk7pqvEEvLeUmtDoN586cp210mfHmQk6cOM250zoamorZ+8Kv2XnWyMjUJJUFBnS6PM6cu8bwioe+cg3HT10k/9pZdh++wLT7RmRaNdO1E2RB7XheOn2Yrsl5OisL0eVd5Oh5A5POHk7v2s4LBy/QN7XAYFM5Ru1ljhw5R99iVCJ07+a2sGmmdx+mYzasBj2iI7UcOu1gqL+c42dNtPcWsetX2zltrKLUcJLnX3gNS1kHQ7116LU6rp0/g6G2j/7afF7ZcRBTeSvjAy0YNFo0Vy9wtbCB+ZlG9r+0F402n4N79lHpXMM328nFkyc4f+YURa2TDLWWo9VquXTuNLbmEVLK7ZhsnK7Cc1wtGiKjMJ5Sxghkia6Ooz9/gnMXL3PyxDnaRhZoM5ziTJkTAnNcOHSE5vEZbKd3cfSyiSvH9nHKXIezp4LXnv0Fh8/aWVAMvHQmH+A6uPWaKJ/FfwgDD8LA/aV5xMY4+9pONI5auvqc+HwutCdP0jY2guH8Jfr7Ozjw0oucuJTH6QN7uVrchePKQa5UDhPxjHPk4FEm1r00aA+ia1wmPNvO4YOHKGkbwR9JPFD+9YOctGwjjSXHgGKmRzn76k60jjq6+obwJ2CmvZCd23/N1cpRMplZLu05QMNEFPxTnD1xloauCvY99yJnr17jxMHd5NmquXjyGO3zAVIeN17/Mo5zh7ENrrHYVcCLL+7gSt4V9h84THl1FecPn6HPmyG22s3JY+eZutVM1+XMdCo4y9njR+mdXKKvvhSz7iLbd+xncN5Dl/EUF6vHIBtlsK0Gm/Eae158lpK+AGRkPMK7to3fxkx7+0o4dK6Ekb4SDh6zssoc+qOncXohstjKmYtmvN41dIdfYveJi1w+fYSjF+zU1+Rx4GIZGRKUX9jFy/tPk3fxJDtOahgeruLAznPMBqP0Ok5x2dJMTf4ZNPUKuwFmx/s5/dpzHDp7hfPH93NQW00itWmmz3KxcOC6mVYc/0DZeY4ZGkgDk01aTl8rpV57hnMVIxB0cfHwUdVMW0/uwtS2TtzVzKEDl5j2usk7fpDGce/19Kx3bd2/mzuRcu7SiXrIDNyfmY6OcHbXQVqng2TTSdLpBH3lek4ePczZwk4iq70c2nVcNRXKoJa1dQ/FV/ajaZwk7p/jxP599K+sUa85wJXyiVzUxDOL9dwejpqaUQZVyYVQjO7bx4CSuuTkzK5DtF1nOsZArYkDL7/IBUcfsdQMl3bvp2Y0QGypl+PHL9DRV82RPacYWokQ86+zODvG+aP7qHGuEA+GiIRWcJw5gKlziYWuAvac0LAcTOD3LOOeHuT0/uO0L0bwTtay78DZm8x05cWDXKoaJRYN0FF0iRN51cx2lLL/VAHzy1OcPHSQ/tl1Oo0nOFc2hn+umwPHLjCzPovh2E6Kevxiph/yRfXt4/c21wrVTA9zeudBWif9xDxTGE4fwtw2y1pPEXuPWlhOT6E5eJz+VQjMNnLyrJ719WW0R/di7pwhEQuxtLbKQMVlDuTXAHFKL+3jUkkvsXiI1dV1lqZqObDnMsuxhGqEz2mrqMk/zYUSpc1EWJsf4cz+XdQMrZCIrLOw7COh5FBnM6w5q9i39wQto0uE/MrgxzV6Kq5x5FoF4UyKgcorXDDV0VZwnpOWLiIrTo7t3EPzxAyKmXb0hkgttXBo32lGl93kH9tD1fCqmOl3M/dy7uKdHjID92Gm06Ti0+Tt3cWBoyc4efYabZPr+Fw9HH/1NSrH3JCN0Vtp5Pjxk1y4aqB7cpk68xmsbTPE/PNcPnWKIXeI+U47h45foqaxgQLdJc6cuUhV/5ykeTxkGB6qCXgo554mGZ/i2gbTp85raWiq4doVAyOuGcyXLtM21ce1vTs5eTGf8ydPYq4fJhYP0l6Ux/GTZ7h0xUj/go+57gpOHT/G6bMmRjxeRuuNHDp5lYGpOWqM5zl26ixXDYXMuOMMVes4ePgkGr2G0xe0zHkSZNQBiCGaTad4Ze8Rzpw9h8ZWxYI/TmxtmKsnjnJZa+HM+XMMLQZZ6ivjyJHTNPcOYrtyiot6HZeOH6N2OEBWItPv4h8WJZ9/Sk1NOnD0JOfOX6aocYBgGtb6Kzh1sZjV9BzWc5dxritB33au5BXgiaRZHKzhzPETnLtwhbLuMcabTJwxN6opR+7pDq6cOsbpcxcorB9gaa6dsyf1rMTiDNfkc6Wwm+DiIPlnTnDi1Blq+lxMthdz6sRJzl26TG3/Iqm0MrA3RSYZxdns4Nihw+pvha60HY9nmaL8Mxw/dZpzVy2MLUdwT7Vy5uhh8q5d5fChM3TPuCi5coyKwRDJ5S7Onb7KtCdNd8kFDhwzMROOSZrHQ7mO3qZTJ+V4F1+D3p083IeZ3hAoEScWjRCJRInFEyRTKRKJpPquXCiVKYri0SgRZQomtUElSGw0rEQyoS5TRmHH41GisSjRSIRoLCFGWi4+D+/is5XpWEzlOTdDQYpEbJwLew5QP+pBmbru+gwf6WSuHURj6qA/Zf1ELMe9wrvKeCxKPKHMBpLc4DyuthOljShtKBpP3HYqMmUcg9K+lIGN6vR6Sh6oOq1ZnERqSxtS958klYznpjxT2qFwJBooDCQUJpRra1ydXlFhUGFDvVar3+c42rxG567dihHfYG+Dpc1rt8K9wmAkEiG+yVlicx+591ybiavsKuso/8fVNhG9/hugHk+d4zpNIq7sT2kjuXaVTibUdpLbVpnBI0UyHiOqtMlNrq8fUznHzbagtMXYjXJtrivv0haEAWHgbWLg/s3021QwMQVijB4+A2lSiWm0J07TPh2U9Alp+/LDJAwIA8KAMCAMvI4BMdMCxeugePgm9p3VkUhsjYYJL8KLMCAMCAPCgDAgDGxhQMz0FjHERL6zTKzUh9SHMCAMCAPCgDAgDLzTGRAzLWZaepfCgDAgDAgDwoAwIAwIAw/IgJjpBxTund5LkvJJT14YEAaEAWFAGBAGhIG3ngEx02KmpScqDAgDwoAwIAwIA8KAMPCADIiZfkDhpKf31vf0RGPRWBgQBoQBYUAYEAbe6QyImRYzLT1RYUAYEAaEAWFAGBAGhIEHZEDM9AMK907vJUn5pCcvDAgDwoAwIAwIA8LAW8+AmGkx09ITFQaEAWFAGBAGhAFhQBh4QAZUM608+lheooEwIAwIA8KAMCAMCAPCgDBwfwxsC4VCeL1eeYkGwoAwIAwIA8KAMCAMCAPCwH0ysC2ZjKui+Xw+5CUaCAPCgDAgDAgDwoAwIAwIA2+cgW3VNV1AVtI8JNVFGBAGhAFhQBgQBoQBYUAYuE8Gtn35y99A+ZPRnm/9aE/RWDQWBoQBYUAYEAaEAWHgd4uBbb/58pfFTD/g6E1pDL9bjUHqU+pTGBAGhAFhQBgQBu6XgW3Pi5mWqLx0JoQBYUAYEAaEgXcYA4lEgmQ8TiYRJRMPk46F5CUaPDQGFAYziRiJePx114pt3xcz/TpR7rdHIutLL1YYEAaEAWFAGHhzGYjHoiyu+ygc9pLf6yG/1y0v0eChMaDt81A55iMYCBC/xVBve+Wb35Q0j3dYb1wuyG/uBVn0FD2FAWFAGHi0GIjFYupMY6+UrvKxHUv86c+X+dNfyEs0eHgM/Pkvl3j80BLXOteJhAKod042/OO2iM9HMpV6W6KzyiTgckF7tC5oUl9SX8KAMCAMCANvNwORcJgZ1yIfObLG3zw9wyefmpWXaPBQGfjUU7N86Jl5vluwRtC9itLh22wX22K3hKo3v7jbeyqdIZvNkrqfiG4iTjQaJXE/27xu3ZR6XDWUDmRSd77ApdJZMpn09RO92/lsfpdWzus+t9ncVt7vXBfvdG0UntW/+2X6dXw+uhq80+tIynd/bAnT96eX8PXO0kuJ+IWCQUanpvnAgXUe++4cn/ievESDh8zA03N84PsLfMe8zPrSvOppN68d6uPEN/95Q++pDOG1STp7Jolk0jlDrc7Hl7w+L+HmfjYfR6l4lfBCP0dPHWLGmyaT3vKYxi2GZHP9VPJ2EewUkGCyvYEih4PSihqWwll1X5vHU9+VsqTTRNZmGZhcIZlWyphSo++5/W9cNJT1rh87RTqTwr88w8TkCon0/Znwm45/fZ/vrIuTlPH29aF0oPxLY5Tb7dS2DhFO3WcnUer7vjqswuHtOXwzdUmn09eZrmsbFqaljT5ybVQx08FgAOfEJB88KGZaTPRDNtGbHbkNM/3fTYusLcwRiUSut637NNOKoY1Qf/Y4P/rVdvr9QDpJIh4lFo/h96wTCMVJK9HdRJyA143bGyCZhYirh32HdzPlzUI2qX637vYRT+UMeTqdIuRz4/EGiCUSxJVRvNcvginIxOgtO8PePRewFRZh0h5mzz4ds74E6UScWDy3vjJgQYl+T1Wc50cHbXiSCeLxBPFoCI/bTSCaUA24st6NbWKksjG6bafZe6CQ9XiG9F2i3jfK9db/MMqx3kqN06TjyxQce4UzVws4c+AAps4FsmS2sPdWHl/2LXy/2QzkmLYefYWzV60q0+bORWH6+m/Jm6237O+taMOKmQ4E/AyPTfBBiUxLVH7TzD7s9w0z/a/GRVYXZn8LM52B7Pogpy5dpcB4nryyMfXu+FjlSZ7dsZujO17i588eYiiYxD1ew4Hnn+UX23/FBccg4aVBDhzdy3wgw0h5Pr96cTsvPfs8F8w9xADXQCG7n3uWfXv38fKO4zSMr5PN5iLE6UwW31Q9h3YcZTK0meQRo+LUATT1A/TYCyiqHycLdNoOYG/o5cKrT/GFbz6Fpb6fsqvHeG7Pfnbv/A3bd59l3g/9jv3YutcgE6XKno+9sZGTv/ou3/jHZ7jWOAlZMVRvxUXyHbXPVIZYYIgzLxzFBQxXajit6yAJW+5ayI/lO6rOxBTdvaOnMj3ImRePsgAMVeRzWi9MC8OP1nVMzPQ7JBL7sM3rO+34b5aZViJ2o1UmLttbWJ9u4+jxq3gz4Czax7NH9cSBbkH3qgAAIABJREFU2rxdHC1xEgutsLgWYmWohENHLjI7PcrhkwcYHe3k2I5DDHqUp5j7MBzZTcvkNBde20e7Jw0JF6d37KFqZO16NCWTzeBqLeDQ2UbVeCvpGUqW63zLVS4VVdFiMFFQPaKa6Rb9SxQORfB1mXjuYqOaGuI4+RKvmbtVF96ev4uDxRMMFu7C2LEC2SilpvMUDq/hatJz9kK9eh43UkAerYuQ/GjcT32lyKRDdDrOs+flV9l1JI/uBf9959qL5vejuaz71vKSY7qj6By7N5juWQgI09IJu3sn7B2mj5hpMdPvyNSWN8dMK6kWIbT7fsxzx000Vhr59c+eo2kuwWjZIY7YO1SzOlxt4rJjGNdYHSf2P8/zv1TWz8c1M8qRUwfo7qzl4lkN3rSyepaWgr1Yq+s4usvIsuKQ036sly5TObxCdiM6rESml/uK2X/QiJJZouRcK9v2265iqOukzWyisDYXJe80vYp9MIS7Vcez52qBKPYLJ9B1KHEaWO3SsdcxpJppS9caEKfSdgn70Aoz9fmcOltDVCKTj9SF90HNSSoD3pEydu7PY2rVy0C5jiMX7fiTSJrPO+zH9UHr+N22ncK0x1nGzgN5TKtMazlyySFMC8+P1DX9UTfTH39qjg9/e5aP/v/svYdbVFnWt+2/817f9X3P+z4z7/R0GztP9zPdM9Nxpnu6p1skmQMqUQmCCGbMWVGMiEhSBMk5Q1URhYrkTBGrivu7dgFqh+lW2xHQVV7bKk6ds/c+e99nnd9ZZ51VHo9E8aIVet5w1bPIVc9CV/1vDt1Y6qZ3tvHH5XpUWez+qK0XIkQ9DCx00bPoVXo49HmIaZsdrE338Q0I52r8LeJuJXBu7xaCrlagS97Nrht5TrFanXqVszezidm/iWTdMJ01t4mIUJ7pWiIPhFPfpGGvjz93ajuwttdyIuwgmm4TZ4MCuF3dypC5lG3rtpBc16Vk85QBsDtwDJk4H7aOI0laBoeGadPcY2fAXiraR6m7c4qjMVkMdLawz28F16tG6Cm8jNeBREbtwyQd8mHbhRys/RYuR+4gXtNPfeoBIm4UM9qjIXSLN7d1neizotm3P4HucYmZfhVEiBIe3dUJBO26TrttjAf5FwmJOEvXqIjpV2H+X8Z9VEx3Vd12Mt1hG+dBXjQhEefoHhOmX8b5fln3aT6L6SWuBr7e1cnt/EF8vA0s9lDi2Uz4jUHOXO5h75UBjkZ38KabnmXPGMaw1FXPJzs7uZZnJaNshKzCQTaHm16csHXXs8y7jRNpg4TufoHtPuN4PbeLi+chpu2T0JJ/lRt5jU7RrP5zdNcQfSaBwuw4buVrneK3pTybtOJmjJXJhPptZ2foQS6npdPRaiT21lXarNCty2BXmD/+vgfIru9whmf0GHLZ7+PP3r1RhB88SU69igN57DUJ4z11nNsbTkDANkJ2RFFqHHBuO9lVy/E9wfjuOc21mOMU60ewD7Vwfpcv19PLSDh7hMDIXYQGbeX4zSJGbDA2WMeJwAB2hBzj4u2bFLYMYO9u5MS+YM5k1EnM9CviycE+RvWdC3j7+bJz/1G0lomfZoh5RcbiZT0xv2r79UOmj6FrFaZfNQbm+/7OZzG9zFXPuyFdNPRPkh7fxhvftfBmSAc1vQ5SbnQQGT/EpSudvKu81CumvMrKs7zEfcrTu9DNwDIPA28sVyLcwJvuel53mfpeicIlbno+3dNN3aCD5voRYu8NkJI/iP9ei9NTrDziM97qJR4Glk17yVUdavlCNz0Lp9t9Q9XvaeANF/1UeczLPdMHZ10uepaqtl31/FHV810LS3zauFJoZfdB8w/anfG6K6/1TD8WKa+5h4FFLlP7ovZN1aP699yE7osQ2s9DTKuD0+b4UR5m21S+aYdz+VQ6O2d+Z7sdFZrx8DVpd6bNUzHXNpuq59F3k87UdeOMDFsZGRuntyWL3btOUFFVwtHwUMJ2hrEjZC/pNa3OOOlHW06FeziNhs3uFNUq9EMVh32CCeVKVy/HEDeP7uFsgXHq70nHdDq/6dzCTDr/qWwiahtnDZJrel7dEvxtJw4bj3D8mVSLIqRfIRZelnhuYfq32YSXhYP5ux/zWUw7xelyE+crJrDUDPCpSwsexwcZGB5n/XoLQZcG2H+uAyVkN17q507xMPdy+lkb0srh1EEORbby/lYLJ7OsHDhiYpFfJ1fS+1kTaHB6nhe5GzlfZ6O3ZoC/r5wSpUoML3Ix8JeADmKyraQVW0nO7OP79QY+2d3J1cwhYpIHuFcyxOFj3Ry+NUB66TAnzrWxeEUrRxMGOZPSz+VsK/cKBtjsb+TPQe1EZw6RVmIl4W4f36zS436uj1sZQ9xOHyT0Ri8HkgbYFmHgo/AuYnOtpBdb2X+qncWeJvYkDnKveJj0okGCw8y8vtZCZMIg1+/0cSPPSmpmH26+RhbPpzCR5yWm/zMGyobDMUTOlYME+PvjHxJKWnUH9rEhWk1GTCYTRqOF3sGRZ/ilRhtMWMlPvkmqtu1hDPZ/Zj/mr+GS8ZC5EwaEAWFAGJgrDMx3Ma3CMD47PcTwwCgbwkzsrbTRXtbDkuWt3K2xU5Tfy1fH+mnvtXEpupvYyglMDQNcbLBjKuhm1YFeBlQ2ntweVsQM0GYcZeNGPQvd9Sz1aKe6x0Hu1U7edpkOFfHQs3hNK6nNNvQPhomK6Ufb6UBb0MvaC/0MTkJpTj+xFeMw4SA7q5/k2nGGO0dY6dpBoXmSvo5RTl3vo8zswKQZYM2eDs7e6sX//ABdQ5Ncv9xOQMYoTNq5cqKNd/Z3UzVk59qFdq5V2ekyDnPkWi+7T3cTljJCX+8E0Vd6SdGNM9QxgntQB3dNk1g7Rzhysx/9xCSlsZ285/rs4S4v3Ks9t8X0lAFzTD7yOU/9cqEN9eMDM+W3ZNdQISpOz7N4GcXLKAwIA8KAMCAMzGkG5ruYXuah55317dQMOUi62E9Dr50LR1v5v99YSKq2k5PZz/GsUcb6J0hNGySjeoKejlECL1lp7xxh7/1RyhsnaKwYJr9whJKC3ofCeYmHhfxuB5W3unj7u5aphxq/a2HR/n46rDb2HDLyv75owef6EL3GUU5c7KNzaIKdoS18HDTIuN3Gyi1Gvj3VS2fHGP4e7RSaHdy91cX//qwF74vDDHSN4R3QRmR8P9fuDdMxOEnC7S4C0kcYNg/hsqGZ/w7tonLQzpXzZrbGWmnrniAnu591EZ1kNDvIudfFf3/RzMfhnRitDi6c7STJ4CA/o5s/fK/nst5BW3E3H65UFwjzJNxjPojpuXJFLP0Q74wwIAwIA8KAMDB7DMx3Ma3ig9/wNBKaM8Ho4CRW8zBrffX87rtWkqvt5GX1sj3ZymDvOJcudxMe00vU6Xa+CO+gYnCS3t5xdh/voaDZzvCgjavHzbwxHQ6hsmcEpI1hHxpnz9F2vgtqxTO8lc9299A0YCcxsZOP1ls4WzBGa/0g2y/00TUwwc5gPZ9uH2TMZsPDx8hXp/poa58S03kmB5UFfXyywcKp7HHaOke4Um1joGOEQ+cHMPY5psT0/RGshiFcN7Twu7AuqgbtxMaY+SygFZfdXZT2OGgsGCa/coIG7SDfbDLhFTNAj9VGYHgHd4wOcu938Uc3A1cNDixF3XzgqXfGiL9wL/OzxFiLmJ49oyAGWcZeGBAGhAFhQBh4cgbmvZj2nHrYbsXBPmc63/KMXj5Y3sJr37eSWGWnMKeXt33bSTPYMRnHqGoZJ/d2B4s9LcRU2RkzW1m5SU+UxgZDY6zaZHyY+k6l3XtvXRvRRWOM2Cbp6bNjHZgg8kAbWy4N0TFkp8U8QU/POLv3mfnmXD/d/ROEBev5ZPsgI+OPxLS5dQw/j3aymh30D0xQbZhgaHCCqFPtbLs7yuDQBGXVY/SNOoiP68I/fYQB/ZSY/n1YF+X9di6da+dS3ji6B2MYOmzEnW/HJbKb6m47rRYbbf020uI7WbS5nbtGB9npXbzuZnB6pk2FIqbn9C0iMVpPbrRkrGSshAFhQBgQBuYSAy+DmFae1rdWG/h4s5kP1xmd2TCUx/p/Npr4aIMRlSf63fUmPvex8KWPmT+vNTozb3yw3sRfN5p428PAuxtM/M3LxLKVPwyDWKpS060y8pctZj73NvPpZhPvrVZp+Ax8vMXMF75m/rpJtWHgnbVG/rrZxPurDLy9ysjftph5Z6WBt9cY+YuXkWUrOigzOUhO6eGjTSY+2Wxy9uOdVUY+8Tbz+VYzf5neh/dU3zYZndur9j9Sy9ca+GCjmS/9LHy2xcS7nnpU9o4PNpr43NfsXPaOp4GlKw382cvMn9cbnRk8Ptxk4i8bjLz1LB7i2dpGPNNiKOeSoZS+CI/CgDAgDAgD/46Bl0VMK/GsPMkqzdxMGIOKD56JEVbLVUo8VWbWUe9qG7X+459ntp95n/lObetsY1pgqs/OZTNtTrcxk9Pa2db0uktU2r1pMX0rvos/fv8oBd+P61d9VsvU9jN9mNm3mXVn/p7pu1rX2d50X1SaPrWu+v7xcZipb86/i5gWo/XvjJYsFzaEAWFAGBAG5hIDL42Yni0P6lO0u8zT6PSeK4/xjNCd86L2Kfbvue7LL4lpm21cQjbkyW5hQBgQBoQBYUAYmBMMPBTTDY38YXcXy+ZTLuLZEnq/oV3lUZ7xlj9X8fkb+jQn+6HEtKeZ5dcsdJj1DA8PPzxeFty8ttP5YyZz6apU+iJeEmFAGBAGhAFh4NVkQInpwcEB6poe8ObBNt71bOYtd70UGYNZZeBtNz2L1hhwu9FKV6uRkZGRR2J6eeg5EdPijXgIhJy8Xs2Tl8y7zLswIAzMJQasVitmk5GQ+Eb+b3gb/29wF/9fiBQZg9ljQDG4bJ+JC1kNdHe2Mzo6+lA7Lci12pgUMflwQOaSMZG+yMlNGBAGhAFh4FVjQHmmldevp6ebuoZG7hRWEpdRSGxanhQZg1lh4GZ6Prcyi7lfUo1Br6e/v5+xsbGH2nFB6dgoDhHTDwfkVTNasr9yohYGhAFhQBiYawwoQa1iUnt7emhvtWAytGBoaZYiYzArDBj1zZiNBjraWp1CWl3sKUZnjpsFRaMipmcGQ97lhCIMCAPCgDAgDMwNBpRYUbfSlahWYR9SZAxmmwElohWTjwtpZS8WmEdHsYtn+uHVhRjRuWFEZR5kHoQBYUAYEAZmGPixeJlZLu/CyIti4JcYXDD+WAD1i+qQtCPwCwPCgDAgDAgDwoAwIAy8DAwsUO5qm80mRcZAGBAGhAFhQBgQBoQBYUAYeEoGFqj4k4GBASkyBsKAMCAMCAPCgDAgDAgDwsBTMrCgs7OTyspKqqurpcgYCAPCgDAgDAgDwoAwIAwIA0/BgFNMV1VVUVNTI0XGQBgQBoQBYUAYEAaEAWFAGHgKBkRMP8VgyQWHXHAJA8KAMCAMCAPCgDAgDDzOgIhpEdNy9SkMCAPCgDAgDMxZBlQYqrqDLkXGYLYZmAmJflxIq88ipsWAzlkD+mNY5W/xBAgDwoAw8Oow4BROFeWUlZVQXFJIUXGBFBmDWWOgpKSI8vJSqisrnPHkj9siEdMipkVMCwPCgDAgDAgDc4oBJaQryks5eaeSv5w0sTiqnSVSZAxmkYFlh9r45nwzt7PKqKwo/4GgFjEtBnROGdDHr/Tk86vjgZK5lrkWBoSBxxmoqKggKzePD44YeXttM0vcDCx1lyJjMHsMLHPXs8TLgGtME+XFec6woxlmRUyLmBYxLQwIA8KAMCAMzCkGysvLuHs/g99HdPCmm543PQ1SZAxmlwEPA6+tsvD3c00U5WY400o/o5jWoNVq0Sijo9Gi02mpmc7Dp9Xq0Go0Pz0YNRp0Oh2amqk81hqNDp1W+9P1pg2Zs37N012hP8s2MwMg70831i/feGnQaDTO2zUajfYHDCumaxXjcpKVMZhnDGi0iuWaH9yGFI5fdVs3f/ZfPeRVVlpKUuq9KTHtLkJaLibmAAMeBv6oxPTZevKy0lB3T2bs6lN4pjVUV2RyPCyC1LJaajUVXD4cyCpPV9w9PNi48xgFZdVofiCENU6DnhK9h1Wr3J3rrfHezZ2CcjQ6LbW1tdPrq8911NWXcTbcm2uZdTTU6qaXNdDY2IBOq4T69DbTYr62ro766hL27Q3lZlYljbUifGYmVt6f5MShQVtTyuld3riucGOtVyR3y6uczOrq6ki7sguP9eHkV6gLxSepT9YR7mafAY1WR2XWbYK817HcZT1HrqZSU6d7aPRljmZ/jmQOfnkOlJguLSkh8W6qiGnxRs+uN/rx8Z8W01+eqSc3896zimkt1eVpRG7xI6WsjpunAlkddJiyai31dTou7tvI1vBTlGvrpzzXNTVOj/T9a0dx9womvbSa+vo6ks9EsMovnLzSIm7EXiOvTIu2LIsrV+NJunGM5X9+i++2RpGclsL1y6c5uWc3fj67uJVTRl1VLjEXb1FUraGyOIu4q7dIiNnP5598iPvmSNJLakT0zDMP2uyeVDRUVuZw+3YmDfVaLoRtwedALJrGBmrLsghe+TWfrPYhp+zf3HWRsRaBNucY0KCtKuRkaCin7+Y5HRbOO4hzrp+/LKZm1y5I32Z7/GfEdMKdu/wuop03xTM9dwTl4+LyVfv8/MR0Onu8t5FckEPE5lVcza6lXleDRleLNu82630CSC2onvYi16DTVHM0xJ2Dt0poqNNSo9HRUJVNiK8f0TdvEhK6neSCWuoKY9myZS/38pIJdPuSsLP3yLt/EdePPyHi3C1iz+zG0yuC7PwEfLwiyKjSUZZ9kx2+YdxJS2TD2uVEnr5FWbXmoZCfbWMg7c+XE5IGXV0tTdoSju/czr6rWTTWV3BxXwj7DkSxZbsfmSXimRae5wnP2loqMi6zznU9Pt4euK7ayMWEgqmQPBHUcvE3TxgQMT0HQhpeNaH8JPv7vMV0Yn4mu702EF/YQJ22hhptLfVFd/ELDfuhmK6p4nDQCs7cqaZBp3HGWTdV57MrbBfX4uII2xXCnQK17S38fKIoqC0mytuVs2l1VGVfws/Ll4xKPc0PCjmwfguXE2+x3XcfmdU6ynPj2RUQTm5ZGcHbvbiYWkqDhHnIyeIpTxYabS3ashyO7wslfP8FSjT13Ik5iP/BcxSm3WCzvw+ZpSKmRUzPDzGt0dVRdnMfX3j4k1ndRG7cUTb7RlBYXSd37Z7SNgjzs8f8fBfTyzwMLHLVs9TjkShe4qZnsbuepSojxHPwtC/z0LPYTe9s58dtvaj4arVPSx7bxxfV7qy183zFdAB3Sqo4vnMtgSdSaHrwgOaWRlIvReITvJ+iqvqHRrtWpyH2cADrwqOpaXpAc3MLRcnn2RAQSEbGPYJ3BHGnrAlddgwbN+0lX1fIPq/lRN9voiYnBq/Vm0itMPBAl0rI2h3czUtg26YIsnXNlKVdJMB7J7klRWzz30BMegVNyvstBlPG4IkZ0KCpLOL84QhOx2fTpDfQXF/C/i3L+afLSla6fM17H36I3/EE6mol5lSOrdkTF0889lod5ekX2eR9gNJmI+XJZ1nrHUBuee1Du/zEdT3xcTQPxkX2ZV6dF+azmFZC+sONZr4LsvDxKgPLPA0sczPyqY+Fr33MfOZt4fOtJt78DSJ0mUoRuNrIP7a3siK0FZdgCx+vN6DaflFCc9lqE1/4t/K3DS+23Re1fz/bzi+L6Y4f5Mr794b2Ucx0UlkDFTmxbPZwx8cvgMDtW1izNZBbmaXU19U54/TUw4V1dXVUFd8nbJMH67y9CQoMZNVGL6ITc2msK+PYjs2s3OhDiN8avl21i8K6ai7vXMly70MkJkWz/l9/Z8u2nXitXYXPkcvUNVZw0m8NHpsD2OaznpXrw8ivrubozg2s2xRBmsRMzyuD+e9Ze0EnZ3VLPOUEX37pQkDoDgK3+RN1IZ5KTR21dfWUpMaw3nvLdJjHz2SqkRO08DbnGFAZl4o5GbaBdWu98dngRdTFe9Q4Myq9oONqzo2J7Pes29qnZGI+i+nFK/T8I6qXtjEHl4+YeH2FntfWt5NusFOY1U9C+QSlub28u0J5qPUsdp3yMCsh/Lin1/lZebCnPdAzXm4lpN9ebyYqb5QR2yQ9fXZGrBMcPGnhdZepuqbqnBbyM224G5xtKU+y00vu+shDrvqh8ng7l7tNe9QfW095wNVFgfKqq7oXubSwNKiLyh4716MtvLHC4PSSq/VmvO6P79uM99q5zG2qH846X6D4/1lx/CShHY+v8+tiuvrJTorVFRRk51BWpUFXW0tlUSbxcbHE3owjq7iK+lotefeTiY+P53Z8PPF371NRU4u2PJ/EeLXeTe7klFKvvHwaDRVF2STE3eTu/Uxycoup0mipLskhPjGVjLvRbNvsRUxcqvPvsqoaZ1q+iqIsbsXFkpKRQ2FePpUarbOepPhkCipqJGb6KY3WfDOyz7W/KpVjWQHJSbeJuxnHzZuxpNzPpapGO5Uur6KE7JxsKqtFSD/XcRdGn8zePuM4qbR41eWFJMXGkng3i2pdrdjFZxxL4X52LkTms5hW4vf1lW3ce2CnKq+Xd75t4R/7erCM2Dm008zy3Z1s3GXhTVc97282szy0jeWBZt5fbeTv21r5bL2RN1cb+WJ7K59vMqA8wF9vt/Dnac/zIjcDW+6MMD44zp79rXzmbearAAsfbzCy1NPI36e91d8GmHnHXc97G018vc3iXMclpJVPN5j4zNfCipBWPvcystjDyJd+Fr7wM/PP4Fa+D7TwwUo9b6018Y+gVlxD2/jGz8y7bnr+Z6uZf26z8F1IK1+FtrHxSCeuAUYWrzHxTVAbbqGtfLbZyGJXA3/1teCyo43lQRb+vNrAkpVGPvO38JW/mW9DWvkuwMx7qw0sfVyszvXPvy6mq57QuD+WZ7qmBpWCSXmgVdFqVRo8DXGnw/H18yPAzxf/vaed6fK0ukfr6VTs9LRhUzmn1bYqD7XKFa2Wq2X19Q2UZkTjvWEr9ytaaKh7FLOqThRT22gfbeNcpvtRWr7ZMQIz+ybv82T8NVM8zXD8gxzoGg1ayTP98HgVpucJ0047Os21bvp3AURMCsfziIF5LaY9DSx20bP57jDDZisuXgY2J45j7RjkzytaSai0U5Tfy5KtbaTpbTQ3j2Hqs5GU0E1Ku4Oa2538I7SDFhsUpnbwTlQ/nR1jBAUbeEN5jz0sFHQ5qE7s4p3vW1ikYrFV7PQKI8FxVnqsdpr0E4yM2bhwso1/neundwKMTWO0Djsw149R3TBG+8gkZm0/f3Vpp9DgoKN/gormCYbtDu5c7+C7w91UtYxT0jzh9HzvDjcRkDGKwz5JXeEg3rcHKO21c/m8he1Jo/T0TKA1jJOY0s0/dnfT0O/AZByne8RBRWYP725pJ8XgYKx/nHKDjYkJO+cOtbJ0xZTX+7l4jv/TYvyXxPTAQDtVVU/omX6Cg1FXp/JCN06V+rpnFLgaqiqKyc7KpkIydMhJ4Am4E6E3f4SezJXMlTAgDPwSA/NdTKtwiD9t66FzxMaeQx3caXNQfL2dN/5lIbHaTl5WL8Epwwy1jxER2c6hlHGG+keITB+nrWkAnwuDtFodNBQOcDJ5iPqaQb50PuynQjDaqe5xkHu5k3eXTwtRFaYR3E3LkJ0b19t529PEkcxROlusRFzoo2fMxonjZlyOWnFgJ3y3hS3XB+jvGsPXvZ08swNNbh9/W2ViX8oY/Z0jrNtsxiOyDbeIXhq7HSQmduGfNoKtb4SNW1v4/4I7qRy0E3OujcsVNvosw4QebOcr/w7itDbqyvv5ZJWR1Wf76BqxsS+qgySjg9rSfj7eZCaxzYEpu5sPPPQvNNb7N4n2XxLTx44EUFtbPwcFm8b5S4nOX1sUMTUH50dOBr90MpDvhA9hQBgQBp6Ngfkupp3xz6vNXDbYMZSMMdA3xrZdJn73bStJ1XZyMvs5mjnK6KCNvEIr94qtJN7tZVVUL4YhGxlNY1xJslJTN4HFMM7dhDbeWDH1k+qL3E1cbLbTXT3ApyqkZIWeRctbWLSvnw6rjQNHTPw/X7bgFztEt3GUw9F9dAyMExrUwl8DBhmz2XDbauQfJ3tpbR/D36OdQrOD5Pgu/usLPf5XRujuGePYjSFqLWNkZI/QNTTJ7fguAu6PMGQYYsX6Zn4X1kXloIMbl4y8F9DOsXvDWPptJCcOUtRoJze9m9//vZm/RnRisjo4faKTJIODnLQu/uBiIMbgwFLczYcrf5j15DeJ3dn0TK89nCgp5USsi1gXBoQBYUAYEAbmBAPzXUwrQageytsYM4x6tdUM8I1nC7//ro1UjZ3C/F7+eaqPjiE79+/1cTJ1iIQb7bzj08o98yRYx/ANNXPb4ABs7A40sWg6nd5iNwNf7+3DODyJ2ThKWqGVEs0wgVGd3K610W4ZJTpxkKYeO/lpXXhE99M/NEHEDj2fbR/CgQ1PXxP/PNtHR8c4293bydQ76G8f5VziIA3dDorL+zipsWPrHuXCbSsD45MkJnazXV0AmKy4b2zhd+FdVFvtxF5q50DsIIev9VHR5aA+o58ziVZ6h2wkJPWT2TRBV4uVz/3bybBMUpzVxetuBq6ZJ+koeYnEdE9v7xNm83i2K0y5MpdxEwaEAWFAGBAGhIEnZeBlENNL3fR8FNDKqbsDhES1TmftMLP9fB8RJ9tZ6Gpg3dk+rqYNcu3eAOF7LCxxMeJ1so9zl7v4xMPA8nN9XI7v5sPVP0w/px7w+zqik/P3Bom9P8i1lD7cA4y8t7WdI8lTy85f7+Kvq/T8bWcHp2/34rrVwP9s7iQ6pY8vNhr5S2g7x2N7+Ma9g0K9nfIaK2fvDHIloYcv1xv5KqyLC/cGiI7r40xiP/77Wvn+SDfnrnXx2Ro9b/i0sud2H1vDzHif6eNGxiCXEnpZ6Wtk0SozQdf6uXF/kKtEUcnYAAAgAElEQVQpfazxN/L6WjMh1/oJO9zKYncDPlf7OXaqjXc9X5KY6c7OThHT4o2YE96IJzW0sp6clIUBYUAYeHkZeBnEtPJOqzR2ry/Xs9B1KkRDLVu4Qs8b03+rNHp/XD5VFroZeHOlgUUr9M4UdyoV3RL1vcvPi02Vxk7VPbO9Skm3zP2xZS56Z6aMZWo9l6kfV1E/9KLWV2n2nH1zaeG1FR1oWh3cSuziv79ucbanvldx3866XabqVA86LnGd6o/KwPGWh4E3XPSo7CKqzzP9UELZuZ8uP1rmYWChy9S+v+VpYJGq1/XF5cVWffrN5ZdipkVMv7wGSU42MrfCgDAgDAgD842Bl0VM/2bx9jwE4K/UscTdwp7r/Ww70IoKIZkPfZ61PoqYFmM634yp9FeYFQaEAWHg1WRgRkwn3k3l9xEdvPkcfn571gTYr4jZudAv5WFe6PbIez4X+jQn+yBi+tU0SHIiknkXBoQBYUAYmG8MPBLT9/h9RDtvuemdYQUqtECKjMGsMeBu4I8rLXxxtoG8rDQqKioehsgukDAPMbTzzdBKf4VZYUAYEAZebgbKy8q4l36fvx6uZeEmA6+taeO1tVJkDGaRgTVtvOHdwsroSgpyM6msrBQxLYb45TbEMr8yv8KAMCAMzF8GlNcvLzeb0zfT+O50OV8cL+OLY6VSZAxmjYEvT5Tjea6IuMS7FBUW/iB5h3imJZPHwysrOfHM3xOPzJ3MnTAgDLxMDFRVVVFaWkpOdibpKbdJuXWDxJvXpMgYzAoDSXHXuXP7JvfvJpOfl0t5eTkqHGnmmBMxLWL6IQwzUMi7nJSFAWFAGBAGZpsBJaiVaCkpKaGoqIjCwkIpMgazxoBiUF3gqbsmjwtpdZyImBYxLWJaGBAGhAFhQBiYkwwo0aKKEtZSZAxmm4EZHn98oSliWgzonDSgPwZV/hYvmTAgDAgDwoAwIAzMRQZETIuYFjEtDAgDwoAwIAwIA8KAMPCMDCzo6Ohwxn/Mtutc2pfbN8KAMCAMCAPCgDAgDAgD842BBUNDQ/T390uRMRAGhAFhQBgQBoQBYUAYEAaekoEFo6Oj2Gw2KTIGwoAwIAwIA8KAMCAMCAPCwFMy4BTTExMTSJExEAaEAWFAGBAGhAFhQBgQBp6OgQXj4+MipOViQhgQBoQBYUAYEAaEAWFAGHgGBha0tbU53flyFfJ0VyEyXjJewoAwIAwIA8LAf44B5ewbHxtjcnwYx9gQ9lEpMgazx4BjzIpjfISxsbGfXHAs+PTTT1EvMQj/OYMgYytjKwwIA8KAMCAMPDkDSkiPjgxj7OjjclUvR4t7OFbULUXGYNYYOF7UQ4Kmj97+AdTzho8fzwv+9re/iZh+Bpf+44Mon5/cQMpYyVgJA8KAMCAM/BIDU0J6hJ7eXnyTOlgaZOG/1rfyXxukyBjMHgP/Z6OF9yIsnCzsYmRo4Ace6hciplW2ELtNjMcvGQ/5TvgQBoQBYUAYEAamGBgettJsMrNwXxdvu7fwlrteiozBrDPw2koTbjc7Gehq/4F3+hnEtA2HY9LpzVb/2W22H7i6f2oIbIwNDzJoHfnZ9ZTQnnlNOhzO+G0m1fuvGVUb9slfat8+Uy2qvl8S86oeh/3X9uPx/kyNgeNX9/3xbeTzT9mYG2Oi5t/5mpzEJncpfvY4natzJ/36+WNImP75cRFe5se4KM/00OAgdQ+a+cPuLpa5GXjTU4qMwSwz4GHgDyvNuN5oo6vVyMjII137lGLaxiR2jOU53Lgcw7UbGVisYzjs9ukT8FS+aqfBstmx2+0ondJw7zB7bmRhd0wyMb1ciXCbzc7EcBe5iVeJuXyT/BoLIyMdaKs0DI7jFNSqDlVmRI4zJ7bdAfZRmrQ1NHdZcTh+KIRtdgf28S5y4m5w5cplkjKKGJgAh21iKnfitGBSdTns45gatNRa+nFM2rHZp/rlbHNa0Kv1Zoyw6rNjcgxjdSUt7UPYn0qEzw9DNrOvr8K7ushqqUwnJuYKabl1jCCC+lWY95d5H5VtbZ5mOjVHmH6Z5/pl3TclpgcHB9A1NvHaHhHTIqJnWUTPXMhNi+kV1y10mg0MDw8/1IYLCgoKmJycfLjglw7OyckJNCnHCAg/SvKdDO7EXiGxqInhEVWhjQn7ONa+fkZsk0xYezGbTPRY7dTfO0jEtQwc6kHH4T7n8i6llhngztlwjl2K5/7t2ySlF6GtTGGHbxDlJiXSR+lub8VkbmN4zIZtYoyhfit9vR30WRo5GhrEybRqRm2Oh2J7wuZg0mrk+pEQjp5J5n7GXa6c2Mne05kMO+wMD1oZHVeidpxh6xA2axdXD4QQEVvI8Pg4VusIg32dmMwWBsfsTgE+PDTI6LgN2/gYQ9YRxicsXArw4VRyDdYxJdBFJP8SN3P3OxvjY13cT4jlXkoSodv9SKnrgsmZi0OZ17k7dzI3Pz83dsZGDdyOuU5aagoHQnZwtUSPA8cT2fifr1PGWsblxTKgxPTAQD/a+kZeE8+0eOVnxOxsv0+LaZdrFjrM+h+KaYfjCY2sbZKRtnx2+h+hwapk8dRr2FBKxP4oGvomcfSVs3fXRfQWAxeiduAXFMyuk3cpvX+E3dezYLSby8cjCNixg6DDZzH393J7TyDXi9qna+slOWo7//j87+yKKaSzvpDde0II8PJi1+V8xq1N7NvgS8iBSI4f2o/bv/6Jh184la0TTNrVwa5CRmxUxR8j6tJ9Rmc6OW7mdEAYOW16boefpbTTimO4m7jzEWTnZrPV/Wv+tTGIiuoa9gRtI2z/HoKDNxNxPIl+6xiJ54Ipsijt38jB81coyU9i898/Z7nPXgqb+1SMiJyo5m14xDjjzoigCdKuRBJb0aOCl2Q+5+18vtiT/twUWWOMOqGepCjuJEfiKp2OjJm7e3OzzzJvMi+PGBAxPUc8sbMtXuda+78kpn+c3uPfHdA2BwxU3MTnfBYOZjzZdpjs5mrkYbJNVkwZpziZpUUTd5JTyVXOEA/rwBCa1Cj23sqh6e5hgo+n0GsdIvV8CIfS9YyZyonauZ3AyMu0jE4yYing8N4oLOMw1tOJubOL7ob7bNsRTVtPLZHrQ8hpV17tIa4dj+JWdQc89LrYwDFE6tnTxObpmZzupwo1KYwJ4lZVPfFhpyjtHHKK6esng9F1Q9aVI5zJM8NIE8H+20lu6Af6Ob8nkPgyM3fOB1LgFNMNRJ68hHlkgLQDe0goVRcBT3gxIuJkTgrUSYeNhuxr+Pr5cy4ujQ7rL8fX/7vjQ5Y/OhHKWMz2WKhnOuz0PSgkKvIYpW1j6uGSOXn8CSuzzcrcbF/EtIjpORna8jzE9IQdrE2pbA+7TI9SpyqW2THloTbkRXM5LY9rh89R0W7i7r7DpGuVyJ16NaRGse92JmXX9+Ll5Ut4+E5CwvYSX6R3rmC3jdJ0/yrbD12hsTGPQ5EHMQ9DR1U2hyMjCQvawkq/aDr7ajmw5SjaURuM93D50D6uV7Q+JmiVZ3qM/IuHOZ1Y4RTzdueTOP3ERe4nt62ZuB1nKO8ZgdF+4s6EoOuwc//CQU5kG8DaQFj4CTR9SqxPcP/WUW4UNnP3fBDFSjdbH7D3TAxGaw8pe8O5VdDqfLhRTghz0yA/ybzYbA4mRq0MDvSQeDqCMwnVqCcDxIs3f+f0Seb9ZV5H2WVT9R2iTt/gQc8Ik5Nywf8yz/fLuG/zXUwvdTfwuouexR6PRPGiFXoWuupZ5Dr1/lvF4lI3vbONN1z0qLLE/VFbv7XuJ9rew8DCFXoWvUoPhz4XMT1hw2Hr5Wa4D3uu5GDp7MHSVEZ+dSuTYxaig3ex70Y8fXaojjvItv1XaOnopKq6noo7+9h1PQtTwU12Hr+FZWCQgQErE/ZOcjNLae/owlSbSeTeA1TW5HJwZwR15i5i9kYSU9hMX+M9tgadpa1HS+T6A1QN22Cij6uHdnP2vuYHMdO2SRhtySEkwJuEEgu93e0UxR0mdG8CfQyTejCYy3nNWMoS2Lh1K7Vdk2RG72ff7XIm+5rYsWUtF3Ob6ajNYveOg9R2jTjDPC7nNmMuuY7Lxr1YRvu5ty+M83e0DEvM9Pz1eNkcjHZrKS430NPdRsLZ/ZxJ1qAemxUxLWJ6XooUu4NRcymREccoN3bS3dFGV98g4+qZFrk7JmMwTxiYz2J6sauef0Z2kVZmZbu/gUXuet5wM7MvYYiY670cvjnIuSsdvOmqZ9kzhjEoIf3lnm6SykYo0oxSWjWEb6SZRa4vSFC761nq0050rpXI/aZXR1A/HzE9wYR9kskBEzdO72N7YBA7DsTQqLy8OEg5HcTx+01OT7PDNkbO9X0EbA/iZKqGtpq7xOdrnOvlx0URGBjIrgPHqe+ZpC4zhuCgQEKU57ihFyYGyLh2hN0XsmhpyCVqVwCRh6I4e62AgSETSdF30I9OOONazVWpHIiMoLxVBZ7MvCaZdEzS11LAgR07CA4K5tC5RNpGJlErDTVmExYSSPiZWFJTYjEMQu+DfA5H7KS4vJLInfs5dCyc4OAQ7tWo+Floq89kr18gx49dJjoth06rnb66DHbuiyKvsUdipueJgf6pmLAzMdrCld272B4YzPHYfAYfyxzz0/VFYMqYzHEG7JOMGYqJCAsjLCyU4KDtnEsqYXhiKjuSzN8cn795a0uf77jOZzG9zE3P24Gd6HonyUhsZ+G/WnhnRyfaPgeJVzrYcX2QU9EdvKu81CumvMpOL7a7gYUueha6GVjmYeCN5cqDbeBNJcYf8zwvVkL6YA8tI5PUVlu5cLufG/cH2BJpdq4346lWdS7xMLBMecmXT9UxVafe6VF+WL/nVLsz26nli92ntnMuWz7lAV/iaWCJ63R/v29hmW8b5zKHCN031a5qT62/yE3Pm9Ne65k6Z7zXan9n1pvp3xN5wZ/xouO51/3cxLQ60O1258MsM9JVZbjoaavgwp5z6AYnmFSZLWzqRvnUa3JyKhxEvStDrjKHTH/jzP2s0uXNvKZS3NlwLpqcxK5S4M28VA5gm925vX3a4ExtO0F5yln8t20nKGg7YZFXMYxO4HiYaBVQdU1vo9LmTb1Uu1PxsepWv/PVqyUw+CCVvSrMQ0VwTHlzZrZRW6g4bOW1tE2HuEhqvOdrRF/8yf5RPnJ1O1w80vN9PqX/Ew9t3JRZkwekhYkXb1d/25jPZzGtBNwb3xs5XTpOu3aAz11bWHlqiEHrGKvXWgi/PsjxS5287mrE5/ogWVUj5JYOsmVnG6eyrJza38afvFu5VDTC8VNmFm3rIj53gA1BBqcHeJG7kcuNNjor+vnMQ89r00JZCfFPgzq5VTxCXuUIWYUDeGw28NneLhIKrdxKGyK3ZoRz53o4nTJIvmaE6Jh2lqxo5UyqlSuZA8QVDVNQMYR/kImPQtq5UTBMTvUI6dn9uKzRs+pSH/cKrdzLGSL8Vh/H0wcJ2WPkr7u7SS4ZIa9qmKPn21m2yszRNCu5VSPkV1mJ3GPhjXUWDqRaScrsJ6F0hNzCAVYFmFg8n8JEnquYfuzK2WafZLirmeioAJJKO2clftg2MY51oI/Ori66urro7u5n9LE+PrERUYJ60EhsbAoP+kef4MdofpuxeOJ+Pcu+yDZyO1cYEAaEAWFgnjIw38X0Ulc9nxwfxDo4hle4iYMaO5aibhZ/38rdGjuF+b18e6qfrt4JTp/sIqZkgrbmAc7X2bGU9LDmQC+DgDavh5VXBmk1jLBuvZ6FKrzCo53qHge5Vzp522U6VMRDz+L1bWQa7TTWDhF+utd5x76htI8N5/sZnJykIKOXCwXj4HCQntZHbNUYw90jrHHtoMA8Sa9llKjoXnJbHLTWD7Amop0jV7rxOtFP+6CD2GsdBNwfVT/YwflDFpbs6aZ6yM61C+3E1tjpMljZd7GH0GPdRN4bobd7nOPnuomtGGO4Z5TVIR3cMU8y0DbMnku9NIxNUnmrk/d+Q7jLc/c8/5oH/D8lpp2CcNoLPePFnR2ROPVjMc4fdHnsB1aeui/OH2RBvJPz1AA/9XzLforYEAaEAWFgzjEw38X0Mg8976xvo3zATurlAR702Th9uJU/fGMhqdpOTmY/J7JHGRuwkZE1RK5mgg7LKNuirbR1jRCVNUJR7QSNlSMUl4xSmNfDW9PCeYmHhdwuBzUJ3bzzXQtvqFCR71pYeKCPDquN3VEG/tcXLXhfG6LXOMrJi310DE0QtqOFjwMHGbfb8Nxs5JtTvXR2jBHg0U6h2UHKrU7+67MWvC8O0981RkBgG4fuDHA7Y4SuoUkSbncRkD7CsHkIlw3N/HdoF5WDdq5eMLH+8hCGzgmKiwfYsq+LzGYH2ald/J8vmvloZydGq53os50kGRzk3e/i/36vJ0bvoLWkmw9XqguEFxTr/Wti+de+/4+KaTFEc84QiaiUuwbCgDAgDAgD85WB+S6mVczw6x5GgjMnGB+ZxGqwstpbz+++ayW5xk5eVi9+CVYGe8e5eKmLHRd7iDrdxiehHZQPTjLUN86uI93kttgZs9q4fNjEG9PhECr+2OfOKI7RcY6e7cQzvA2v/e18taeH+n479+528cWWVmJKxrHUDRBwoY/ugQl2Buv5dPuUmPbwMfLVqT7a2sfw92gnz+RAU9LPV1tbiS6YoLVjhKtaO0Ptwxw404+p3+EU09vujzBsHMJtQwu/29lF1aCdG5csfBXYxvLILoq7HTwoHCanfIKm+iHcfMwExA7Sa53AP6yDO6YpMf26m4GrRgetRd186CliWkSkXEgIA8KAMCAMCAPCwHNlYN6LaU8Di1z0fL+/l047FKR2897yFl5b3sqtMhs5mb28tbWNxAYbBtMYNfpxMm92sNjDzIUyGwN6K+4b9eytnGC8ZxTXjcaHqe/UA4XvrGnlZM4I/WOTdPfa6OsZJ3yfhfXnBjH22WgxT9DeNsqOCDP/PN1Ha/c4IUF6Ptk2QL91AjdvI1+d6KXZNIqPRzvZzQ56+iao0k/Q2ztO5JE2/BJG6O6boLx6jM4hOzdiu/C9O0L3g0FWbGjh96FdFHXbuHCmnQs5Y9S2jKFvmyDmdBvf7OyipNWG2TKBpWeChOsdLPRqI6nZTvrdTpSYvtho50FuFx946p0PXL7wkI1f80L/3PfimRYPxXz1UEi/hV1hQBgQBl4tBl4GMe0UhysN/GmdkfdWG1g6Lc7eX2vkT2uMqKwfb6028tEmE3/ZZOL9VSpzh4F31xj501qjMyPGW2uMfLjO8JMUeiqPtQqN+GC9ybn9nzcYeWelwSm4/7TexF+8THy41sASN4OzjQ/WTX3/1kojH6438vZKA2+tMvDBOgNLVnRQbnaQmNTN+2uM/M96I0vVdp4GPtxo4uONJtT276028o6zP0be9jSw7LF9e2+t0dmm6sebniobiJ531k7t20dqmYr19jTw/jqjsw2VEvC9dUY+WDNPwjtmhLWI6VfLEMmJR+ZbGBAGhAFhYL4y8NKIac8p0atS3c14XtXnh397TH2vhPFMzmn13UwM8Q/WnRF00+8z3zm3/VH9jy9T9c7Up/rww8963ljRTmGzndi4Lmc6vse/n+nLTFszf/94Xx7//sf78eP61Lpq+5ltZuqaF+8ipsWozlejKv0WdoUBYUAYeLUYeJnE9HwQicrDrbzS86Gvs9pHEdOvliGSE4/MtzAgDAgDwsB8ZeChmG5o5A+7u1g2n3IR/8iDPKvi7wn7Mi+9xE+4b891/JWY9jTjct1Cp9nA8PDww2cFFoyOjj78Y74eeNJvOWkIA8KAMCAMCAMvBwNKTA8ODlDX9IC3otp4d2Uzb6kYY3cpMgazyICbnkVrDbjdsNDVamRkZOShfl4wMDQseZXlSeyHQMjJ6OU4Gck8yjwKA8LAfGbAarXSajYRntTAH3e38b9DO/nfYVJkDGaPgf8K7eSdgyYu5zbQ3dnB487oBd8Epzl/JHs+H3TSdzlpCAPCgDAgDAgDLw8DSqj09vTQ1NREVkkFKdkFJGbkSpExmBUGkjLzuJNTRF55NSaDgYGBAcbGxh46Ihf87Zv1qJcYoZfHCMlcylwKA8KAMCAMzHcGVExqb28v7W2tmI0GjAa9FBmDWWPAYjbS2d7uFNLqYk+FI80cYwv+9rWniGkJ83gIxAwY8i4nYmFAGBAGhIHZZECJFeX9U7GpSlir0A8pMgazxYBiUIloxeTjQlodIws+8UkRMS1iWsS0MCAMCAPCgDAgDAgDwsAzMLDgE987IqafYeBm82pd2hZvkTAgDAgDwoAwIAwIA3ODgQWffLXBKaZtNhtSZAyEAWFAGBAGhAFhQBgQBoSBJ2dggb/vFmcMSF9fH1JkDIQBYUAYEAaEAWFAGBAGhIEnZ2BBf38/FRUVVFVVSZExEAaEAWFAGBAGhAFhQBgQBp6CgQWdnZ3OAaupqUGKjIEwIAwIA8KAMCAMCAPCgDDw5AyImJaLCLmIEgaEAWFAGBAGhAFhQBh4RgZETD/jwMkV25NfsclYyVgJA8KAMCAMPCsD1dXVEnLwFCEHErb7nwtbViyq8mOWRUyLmP4JFD+GRP6Wk6AwIAwIA8LAi2aguqqKyooyikpLySsqIrewUIqMwawxkF9cRHFpCdWVFT8R1CKmRUyLmBYGhAFhQBgQBuYUA0pIl5eVciS5ig+Pmvjjvg5elyJjMIsMLNzfzt9PtxCbUea8yHvcQy1iWgzonDKgL9rzIe2Jt00YEAaEgbnHgMoylpmbx3uHTLyzppllbgaWuUuRMZg9Bt5017NkowGXmCbKi/N+kLzjhYhpja6W2lrtCxdt2tpadLoX364Y5rlnmGVOZE6EAWFAGJg/DJSXlXEn/T6/j+jgTTc9b3oapMgYzC4DHgZeW2Xh7+eaKMrNoLKy8qGufWoxrdXp0NZUU15eRnlFJRqN5mFlP2eoNLo6chLPc/pGMhrtzwhbjY5anYbKinLKy8uprtGgeQ7eYp22ipSL0VxOyELzG4W8RqtDq62molz1sYIa9fev7PfPjYUsm4uGXENNdRVl5eVUVWvQahV/GqoqK5xzrZjVauZiv6VPcjz9ewacdlpxW/3v15Hxk7GZqwyo2+dlpaUkpd6bEtPuIqTlYmIOMOBh4I9KTJ+tJy8rzfkbLTPH0FOJaa1GR3lhAhG+m1jp5omn2xbOpxbS0FA/LYA11NbXOj9ra+tpbGyk6UELySe2smH3WbS6WrS1dc7lDXU6ajQaNNWlRB8IZs0qVzw8VhB69CaVWh266e0bG+rQKnGt0VJbX09DQyMN9XXOulT9ddNCWVdbR11dHQ1NjdTX1VJfW8HZ7X7sOH4bTX0dtXUNNDY1Uqerpb6phFP+gVxOq6S+VoNGo6OhsYnGhvqfCCclpqorsjkWspmVHh54erriHXma/PJqdDp1IaCjpqYaJbhr6+qpLbxN0KYD5DY0OL+rVX1qaHTWrVEnN7XedJ/VNnX19VTkxRIeEk5+dTM6EW6/eHE2A+7zedegrSnmxM6tuLm6s2pDGMnlNZTlJBC8eSUrvvfEZ895ijRanHP3HC7ynk+/RQTIOP57BhSruelxhHt5sHZ3DHW1ykb9+/XlOxmbucaAEtOlJSUk3k0VMS3e6Nn1Rj8+/tNi+ssz9eRm3ntWMa1FW5XJnrWrCLuQgrauEV1lLvGxNzh14TxFFcpjncOFqDPkVNaScnEfmzZ5EX48ntvntrFl3wXq6hu5E3OQTZs2sfNMPPX1ddw4toU1AccortJRX1dFWnIq5bpaEs9HsNlrE9tCjpOrq6W84A4X9h0gOMSfHQfOkpZwDe/NGzlyNR1dXQ2Jlw5x4sRxtm/YzO7jcWge1BAdvJ2dp5Kob6ni+qFdeK335nTsfTLij/HNe+/z1cYwUvIrKc++SZj3egLCD5JZWvcDQas83Of2rMV/z1VqautpqK/g5M5NBO69RlFuKlevxFOha6A47QaXbiYSvXczf3rzL2w9dIHU+DjOHz3BjhBfNoUdJq9cR3nGTc7dvIvyHOXfi+dyXAKnd6znow/+zNY9VyjTap+LZ36uGce52R8NVVW5JKfk0tRYx6Vd3vgeuEF+WTaZ2RU8qMnCz30959IKJVxIxNi8EaRaTTVJVy+xb8dG3HdHi5gWducNuzPniRkxnXDnLr+LaOdN8UzPHUH5uLh81T4/FzGtraMs4ShufseoamhwhnrUaOtoLE/Fe50P13OqKU8+zPrw86RdPcR6/93Ep6YSExNH7JkAth68RFnSGbwCo0jNyeZwuBdHb8URsXILccU66rXKO6ChtqGenBtHWb0pmLh76Vw9tBO/g9fJzzzLPz9eQfSt20Rs/Ia/bz5I+q1TeH7vS2JlKYfXfYGb9xFS0xIJ8lrHkdhULu0MJvJcEilX9xIUeYqsjETCNgRzLSOBHSvc2HU+hbKCTCK3byY6OYO4U7sI232RCl3dtKDVUlWWyDY3P+5U1lOrqUGrq6M8/SpbA4OJu3qWsNDDlNTpybkSztaoqxQkncb96y1czy/m7qlgPvpyAzdS73Fh92a8dl8mN+4Am/ddQFdXT2rMQbbtuUJ6wjHWeqzhamopNdpfDpuZMTby/ry8SRp0dbU0aYo4ErqNA9ezaaivpbahAV3WTbx8w7lbUIVO5mXenZBf5WOkrrGZzJideOy6IGJaxPS8O3ZFTM+BkIZXTSg/yf4+FzGtq6P01iHcQs6iaZgWmxot9Y1aru4K4Hjifa6EB3IqOZULQcGcScpzep4bmlq4czoAnyPRxB7YyLffr2LbtgA8ln+P99HjhK8KJKm81ilUa2q0NDyo5Hzwdg5dSqfhQROV+clEBAdyKykG/zWRFD9oJHZvAGFRCTToC4n02MCljEJOBqzg6O1KWvT1pJyKIDLqIud2hrLv9E2O7VjDF24bCAzyxeWLLzh25z5HNnpxJqWC6rSzfPOXb9kSFMSWVUn498oAABPmSURBVN/yvc8uiqvqp2/r66gqvcV2txDSNQ1Oj7VGV09lZiwhkRHEX49mV/gxSuv05F3fg9+xm9Tm32SzWxhZjfWkntqNz46LVOtbaMi9xjrvQyTfjMIv6qJTTKdfO0rw/puU5F8hYIs/GeVNP/CKv8pi4EXtu0Zbi6Ykk0ORIew5cpmimlpUyFDxvSsEBYZy7mYa1Vqd3C0QQTKvBIkKs0uLDhUxLdzOK25n7P58F9PLPAwsXKFniccjUbzYTc8iNz1L3PQsdnu0/FljoZd56Fnkqne2o9pa+lhbz1rnU23nYUDt0+P7+FTbP4l4nWvrPBcxrdFSXZKIr+t6LqZX8OBBMw3aMnILKinPuUp4UATbd+7lfnkZ57dtIvRkMo0tzVRXVJF42h+fw9EkHAlh684TpGdlk5mVS2l5Gad2eLL9eAL1jQ940FRHWUkeF8N92bbvOvVGI+VpMWwL3Mud1Iv4rdpFQUMd13cHEHbwNrVNeUR4bCQms5DjPt8TEZOP0VhH9O4gjl1MIDo8hL1n4jh5wI9tB2LIzs4mOyeXCm0u+1Zv4PzdajTZMaxbE0DsvUyyszLJLSyh+uFDOxp01SXs93Ml4mI6TQ+aaW7Rcv1QECERl8hIukRw2EGqHxi4e2obm6Ni0eZeY8OKneS1PCDtdDirvY9Ro/Yj/jBrwy9REH+YTbsv0KBvIv54KP77blKUcwlfL39yq/XTFxXPy+sq9cwY559/16ApL+DUwV1cSC7kgV5PU0M9JWlxRB44TFqRFr2+hTrxSs/LE/LPz/mrcUyImH415vllZXw+i2klpP/sZcYzoo1PVxtY5mlgqZuRv29rY/m2Vr7yb+WffibUes8qPlV6vDfXmlge1sa63e2sjWjlbxuNL05QexhYtsbENyFtfOn1AtudbXH9XMR0jQpx0JF2cS8enqvw8vbD2z+Icwm5NNRWcnCTJ95HL1NT/4DitOtsWf0967d647//EglnA9i8/yJVBan4b3THy9eXoLDd3CuupyovDt81nmzcsBUfH1/2noijICeZgPXLWe/tzdatgZxOzqfw/lm8PcOdYvrabj9CD8Q7xfQu9w3EZBZx0vdblq/1x2/zJty3BpNVUc6lkO2En02mKP0CWzzX4+3rT+DucxTrqri6czPfeYWRkpPNucjNrFuzBT/fUC4mZlPb1OB8mFE90FhfV0dR2kW8PDzx8vLFx3slm/0Pcr9ER21JKoEbXFi/eTveq79j48Eb1FflEeL5Hd6Ho4k/FcF3X7vjF+ztHLPz8UU0lKeydaUrG3382LzWA5/9N9FU3CN47fdsjrwsMdMv0pOkraUi+QRffP4d3gH++GzdQtSFOK4cCODzb1YSsM0fbx8fLiYXovu5TDQvsq/Slgj6p2DAKaYvhOK+67yEeTzFuL2s4nS+7dd8FtNLVuj5MqqH1rFJrh0387qLntc2tZNptFOY1U98+QTFOb28qzzXbnoWKu+y65RnebGrnsVKZCuvr/qsRPO0B3rG87zMXc87Gy2cKh1j1DZJZ4+NwcEJDp60ONtS203VOSXk1frKg+30YrvqWeI+5VFW68x4yJ1e88fWUW0psT+zjXp3XhS4T9e9vIUlQZ1Udtu5Fj3V7sy6S6a97qrOmX2b8V6r/VXe+Zl1Z/bpWS8qXvh2z0tMO2Oaa7UUZqeTlJRIcmqWM/NGU0M1x3d4cyK5mDqdxhlXXFZwn6TEJO7nl1FVVkh+cSkq33R5QQbJSYmk3L1HcYUGXW0tVSX53E1KIinpLgVlVc5MHhVFWc71UjML0dXqqK4spSCviCqNhvLiQoqKy9FoqijKK6BSU8px/xXsjU4lNSWFnKJKdDoNpYWFFJVWOD87+5yYSMq9LCpqtNRUFHD3XhpF5dVoKktIS04iMekuOQW53Ll5g6vXrnH16hUS7+Wgqa2nojCbFNXH5DsUVeqcMbTqqfmSvCySklPJzS+gqEz1SUdpfjrpWbkkntyLd8BRkjNSScsqdKYG1Gg1lObeJznpDrmFxc79UOnYivMyuJueQ2WNxEy/OMOvoaa8mPtpd0lOTiYpKYn07ALKivJIvZMytSw5mdziX08B+eL6LB43GesnYUBDZWkReUVlEqIkYnreXYjOZzGtxO8fPVq502BHU9DH+9+28PXBHtqGbewPMeOyu5MNuywsddXzZ18Lq/a0sya8lf9Za+RfoW38c6OJN5XXN6yNf241sHStmRWhrfx1o8HpeV7kZiAgfZTx/jFCdln4aKOJT7zNfLjOyLKVJr4La2fdnnY8Qy38yV3P+5vV9m24hLSxZncbX3uZ+TqwjbV72vnGx8RidxPfBrU6y4pd7aze1cpfVhl4e52J73e2s35PO+4hFt531/OxfytuO9pYtaud73a1s/FoJ67bDCz5/9u78++myjwM4P2DZn7R4Shl0WEsR3E2BxXRAc90L8qmIquyFZFFELFFQcVWUAQsFBpaaAtlaEtbutHFQltIbtJmbfY0TZp7+8x5E25Bz5wOuWVoGp8f7smhJDf3fvPpzfN+++bNygFk7bJi9ScWvCH2mSXh1S0WvC3ObbcZC1dImLPMiMVbxXEMInu3FW/tMGPBitg5PfZQrLXDPVGYdrrdv/gWl4d5o+oWS9eJZeFu3cLNhis4kJ+LD3ecQOut2LJ4Yh9i2TdxHxEUxbJ26rrM6s/Fl6mo60l3dXVH7yvur65bLZakE/8WoTh2P7EGcGydanF/EUrV5+m51YzC9en4/GwL+m73xJ4zegxd488rHhvbX+x51eeMLnnW1XXv/3rQ3VmLb/Z8jO35+di+bSu++L4M7Z1in+rjxRrT99/M1J+L2wfPUXyIreLIHry/tRgdd/vQ88AqHWoNRG26ox+8VOulnuv9/T/M68H7TKJe46/9fa+qjZiXX77erPUkas1Q81hDjXCsXpPolm6nk4FpHabzJMzJMGD1hSCGB4eR+b6EteVh+M0+LMgyQ9cpo+m6C89usOGaKYLe2yMwuCKoqhjCBauC7jI7Xt9ph6QATVU2zC/0YsgWwpYtBqRmS5ibO4jGIQXtZx14Ll0f7V7PFd3nTCN2XRiGJyCjpz+M4ZCME8UWvFnkgSsCGPtCMAYUWPVhdPaOwOwfg7XHg4UZNjQaFTh8o2juC8MfUVB91o70giG09odQezuMkWAEn+4dwKaaEUAZw8+1Xrx7xoNWt4wfiwax41IIrqEw2vpDOKdzYsmnLui9Cgx3wrAFFXTXufH8WisqjGMY9YZw484owhEZ3xda8GxmrOs9LQL1RGH6VkNDdL1nTb9oXV3oaGtG9cULqG/t/EXI1LQ/rW+2XR24UX8NTaLLrHUf44/rwi2xLnRfbLutdY3Wrk603WhEfUMzOvgFL481RDxWe+Nu+GbNutMADdDAozAw3cP0M6IjvNEJSzCCg4U2VNkUXPvBiplLB1HWIaP2qhsfVQzDbw1h334bDlWE4feOYNfFECx3vdh03A+jV0Fvow/FF/3o6fBhoZiikSemg1jQ7lRQd8KOtPR7QVR8EHCHE5JfxvEfLJibacSBqiAchmHsLXbDGYqgsMCENw8GIEPG9p0DWH3CC7cjjI05VtQNKGirceHFHCP2nA/B4whi5RoTcj+x4q39LvQ5FejKHNhUFUTENYwV7+vx+212tPtkfP+tBcU3IvBYgthTaMXijTaU9sjouuHBn7MlZB92wR6U8VmBDTqjgs5GN15YbkLpoIKB2iG8kGeY1PzxxxrCJwrT76WloffOnUmEHTGtY+q7d6IzHO0yJ1C4iXaG+OG1SdjiG9OjeGPiPuiIBmhgOhmY7mE6Ouf5LROK78oYaAvD6wph404jnlxqhq5DxrUaNwpqggj6RnG1zg9dvR8lZU7kfuqEPiCj3hDG8dIAOm+PwmwaRcUZC1IzY1+pPifHiKO9Ebh+9uLVt2PzkudmGDBnnxu2QAQHvzDhd6/p8eHZAIaMQRz8zg2bN4wdW/V46QMfQpEIstcZsfiIG2ZrCJtyrWgYUFB+zoEnFhmw+VQQQ84wjpQG0G8JofLyMOy+MZwrdeCDy0H4JT8yV+nx5EcOtPsUnD5uxHMbLNhf5ofJJ6O63IemXhn1V4bw1OK7WLjXgYGAjCNf2KCTFFyrcuCpTAk/SAoGm4awIDpA0P5hzIQJ0y2V59DJD1cx8CXQIGQ6XfR5rAwpNEADNPBoDUz7MJ0nITVTwuriABQApnYvXs/VY8a/LLjUKaOh3oVFha5o+Ky96kHxlQDKS6yYt9YcnQoB7wjWbTPhjEEBxiLY+YEJs+99cY340OBru1zo8yqw28Kobw+iqy+I7Z/bcbJ9FA5bCCWVAUhuGTUX7Mj6zgOPfxS78w14ebMfCiLI22DCP4+6YbOFsTnHihqDAp8jhB8r/ZDcY6htcOFQhwzZOYIT5cPwj47hfNkQPqwZwYgpgJx39HjyYwduBmScPmZF4Tk/jpZ60OFQ0F3tRkGJH86AjOrLPlyXIjD3+vHSRiuumMfQWOPAzGwJJ01jsIowvWwKlvX7f8yZfveVNPT2T6Yz/Wh/iXhRYj1pgAZogAZo4LdrIBnC9DPZBry4YRAHzrixaZ85uibznGwT1h12YVuBBbOzJOR96cTXOg+Kzrux5eMBzM0wYkWBEwXf2vH3HAlLvnTiqx8deH55bHUNtQsrPuC3aIcNBaUeFOk8OFriRMYGI/70rgV7f/KgWOfBoWN2/GWZAX/Lt+Kzk0NIX2PAgvdsOFTixMLVRvx1mwX7jzuwONuGRoOMpjYfCs548PWpoegHBhdts+HQOQ8On3Dh81MurNljxtIDDhQW2/CP5QbMWmtG/kkXVm8fwKpDThSVe/HVKScy10qYvcyE9cUufKvz4JsSJ3LWG5G6fAAbv3Nh8wFzdJ73O0Uu7Cs0I01M89Aabh/34yaa5pGWNh93JjXN47f7C8+LPV97GqABGqABGni0BpIhTIvgK9aDnpkem4qhBmHxBSupWfembGQa8HR6bJsllpRbJmF2piG6xJ0ImGKZvacz/nvYFMvMiX2rjxdL3oll8MZ/lmHAM+IYxP0yYl+uIr7oRdw/uvSdOLYMPZ7KtKHTrODseQeeeEMffT7x/2Led3TfGbF9Rr9wJit2PGK/83IlpGaIpe5ix6weR3Q5vzwJszLuH1tsib/Yz8RyefPyJMwW+82aJtM71NA+UZh+Zf589DNMc5oHp3nQAA3QAA3QQAIYSJYwrQboRL6dmzOI/GNurN1rhrpGdCIf75Qe20Rhuqe9nRePBLh4sLPxaDsbrCfrSQM0QAPT04AapssuXsIfdtvwx3vzhac0SKndySS8FR3mWdmxbjlrPEG3fKIw7XS54l5nmheo6XmB4uvG140GaIAGaCDRDahhWnexEjN2WzAv2xCdViCmFnBjDabMQI6Ep5cN4tWjvai7WoW2trbxZnSK3W5nmGZnehxEol9keXwMAjRAAzSQ/AZaW1pQVV2Nlwu7MXONETNWWjFjFTfWYAoNrLQidYMey4+14nptDdofmNnBMM0gzSBNAzRAAzRAAwllQHT96mr/jaKSSmQfvYElRxqx5Mvr3FiDqTFwuAFLjzRhVVE9SnUVaGxogPgLijqwZ5jmBXQcg4qCt8nf9eFrzNeYBmggkQ2IoNLS0oLaa1dx+aIOFed/woWzp7mxBlNioLz0NC6VnUFNZTmu19ehtbWVYTqRLyA8Nr7B0QAN0AAN0EBndAqq6FA3NzejqakJjY2N3FiDKTMgDIoBnjD5YFda/K6yM83ONDvTNEADNEADNJCQBkRoEdvNmze5sQZTbkD1+OvBLsM0L6AJeQH9NVT+m506GqABGqABGqCBRDTAMM0wzTBNAzRAAzRAAzRAAzSg0UA0TIvlPdTWNW9jf1JiHVgHGqABGqABGqABGqCB/2UgJRAIwOfzcWMNaIAGaIAGaIAGaIAGaCBOAykjIyOIRCLcWAMaoAEaoAEaoAEaoAEaiNNANEyPjo6CG2tAAzRAAzRAAzRAAzRAA/EZYJjmQIIDKRqgARqgARqgARqgAY0GGKY1Fo6jtvhGbawX60UDNEADNEADNJCMBhimGaY5EqUBGqABGqABGqABGtBogGFaY+GScWTFc2LHgAZogAZogAZogAbiM8AwzTDNkSgN0AAN0AAN0AAN0IBGAwzTGgvHUVt8ozbWi/WiARqgARqgARpIRgMM0wzTHInSAA3QAA3QAA3QAA1oNMAwrbFwyTiy4jmxY0ADNEADNEADNEAD8RlgmGaY5kiUBmiABmiABmiABmhAowGGaY2F46gtvlEb68V60QAN0AAN0AANJKMBhmmGaY5EaYAGaIAGaIAGaIAGNBpgmNZYuGQcWfGc2DGgARqgARqgARqggfgMMEwzTHMkSgM0QAM0QAM0QAM0oNEAw7TGwnHUFt+ojfVivWiABmiABmiABpLRAMM0wzRHojRAAzRAAzRAAzRAAxoNMExrLFwyjqx4TuwY0AAN0AAN0AAN0EB8BhimGaY5EqUBGqABGqABGqABGtBogGFaY+E4aotv1MZ6sV40QAM0QAM0QAPJaIBhmmGaI1EaoAEaoAEaoAEaoAGNBlK8Xi8ikQgLqLGAyTjC4jmxc0ADNEADNEADNEADD2cg5XZfP2RZZphmmKYBGqABGqABGqABGqCBOA2khEIhFi3OonGk9nAjNdaJdaIBGqABGqABGkh2AynBYJBhmmGaBmiABmiABmiABmiABjQYYJjWULRkH2Hx/NhFoAEaoAEaoAEaoIGHM8AwzTDNUSgN0AAN0AAN0AAN0IBGA/8BCYroDnczGxIAAAAASUVORK5CYII=;strokeColor=#000000;" vertex="1" parent="1">
          <mxGeometry x="642.41" y="451.48" width="195.59" height="63.3" as="geometry" />
        </mxCell>
        <mxCell id="ufcLUfaZhDcKgXgrHdeU-32" value="" style="shape=image;verticalLabelPosition=bottom;labelBackgroundColor=#ffffff;verticalAlign=top;aspect=fixed;imageAspect=0;image=data:image/png,iVBORw0KGgoAAAANSUhEUgAAAsoAAAD6CAYAAAC4c2HEAAAgAElEQVR4Aey9d3Bk133nO+t13H/e83qft2rruerVvve2dqtccpKVLVEiFa1sP9qyJVmW9STLcpDtt5JtBVKiOMxpSM5wOAwzQOccgG40MhpANxpoZDQaGehudI4AOgCdPq/ubQCDEWeGM8MgiTxgNaf73BO/53vu/Z7f+Z1zTyH+BAICAYGAQEAgIBAQCAgEBAICgZcgcOolISJAICAQEAgIBAQCAgGBgEBAICAQ4FSjXqfeaNA8AUaz2aRer9NonAhtNpHjSuHNw/DDeFLcy58GzWbjxO+ja0dlNGk0jsLqHGV1ovifoq9Nao0a9ZusZLNZp9ao/xS1Q1RFICAQEAgIBH7mEGg2kZ7H8ucmKn+U5lpJjq5f/leK2SpH/iaXea3UJ8NP1O+EXDgZ46fhu9TOl/872ZbLGufG0l4/9yOcrx/rZq9eWV+5jJvN4rrxr8z/ulF/ghePsD3q4su/b6TPb6zip7722Tv44Gf+Bmcg1UpR30X30Nf4wO1/yL891UlJCi3FGdA8xGc/eAd33HE7d/7Dvfg3S+Rn9dz5idv50Ec/zqc/9Sk+9qEP8P7P/xPKFx/l//nEB/nIxz7Bpz/1ST72wQ/wvi9+i5ntPZa6nuULn7md22+/nQ999gt0LO5BOcmkf5HC/nXEZXWHhak5ovnKjbXsVYi1OP5t/st9v8Bvtp8mdZ2qUS+xsNXPYm4XqKM0vYNfe/orBIuvQiVEFgIBgYBAQCDw5kKguk8sNEWn0YDBoEevtzIT2rsxDKq7zA456RyYonBw9SQbs6NYzEaMRgM6nQ73zDLhJTcmUzfhXIn5EQf2fj+l6rXERp3dbIKRbht6vVQ/Hd2eII2rF3cLoTXy6QTZ3coVRrybzajRqBJfnsHR2cVitHDN5I36PhszHszGVluMHf1sZ3eZGbRj6fXxSh7ljVIeb4+dbm+A0jXgbOzvkUikKFevJzR+rPrlBKMuOyaTCYPBgMFoYmg8QK5S/bGIJ342DsilkuT2rqejGlT2sky7Xcd9a+sdZ7d2jcqfyP5Gv5YLGRKZHeqvJMtGiY2AD5tJj1ZrxLea4yATxmWROK3HZOsisHntPr/RukrxTn3u9g/w/ve/m//54oicbj89zT/ceQcfeOdt/O39JiTIu8/+I299zwf47lkdboeeb37+w3zg89/Bv7TC8EAvz9/7dd7zoY9z/7M6XEM+Vpfm6O/t4ez3/oJ3fOSPOXPJSPfoNBs+E59+7+/x1z96gf7+XjTtz9A7v8OS7R7e9v6v4A61GtWoVzk4OODgoErjcORlp9V8+AOf5tmBNbme9WqVaq1Fqlb8WmtANRuHaQ+o1U8O2ya16sFxmpcFqZHhftU7+eW7f4X/5fTvYo7IU4bDZE0OahUqtQpSDQqxDt5197/jq4PD8vWlNS3n53rJ7B+wXz84tsDX6xXKtQP5ZtJsVKnUylTqNzEwXrbSIoJAQCAgEBAI/Ewj0KyzPeNGpVTRNeJnPRwiMDnB3GZOfpYcaQt55fLwGcjRKq60CnxQwN9twugcIycL5curuJK1TfpbmehFqbUwG1hmc2ODeKbAXi7K2lqY4n6RiV4jOoeH4kEr/vFq8uEjtZRdxqFTobP1sbAaYmt5lvHJZWry9daKtLwqfVjZo1Xm1s/DFWvZat04XNFurUIfrVY3dkM4dSpcE5tcqc9abblitftanV3fZWG8F61SgVJrZj6cu1ZM0itjaFRqBseDbIfXmfZPEMnskYlush5OyDqoebjK3mxIdW0B0TxcHT9ql4TTUd2keFJ3NIpZ3HYdtqFZilLE4xX1o1V2SC16UKjNrKR3jut4vPJ+JIJorepLfSgv9pe26bNosbhGWdsMM+8bRKNox9I/1SrnxIr/UZ0O0lt06tUMzG3I2kVa0j/yBjiKUy3HGLJrUes7mQqsE1oPMj4xQ+Gg1ebLXDjuXNnboMWtE/0j532IgdzmQ/JQZrLXhK7Ty17lMA+51U1kzI7bewzFVb40iMy70agNeBdWiIQjpHcOqFf2iIbDRCJBem1atB2j7O6fLOMqWd1A0Km//OQH+du//waf/OJpEsCm80H+6Etf5C8+/ln+4SELqcQ03/jg2/jzewzHs6ptz/N8+N23cVrnl4vY6DzN+z795ziClztZujCn+Rbv/KOv4dkqy/FyM2puf+vv8ncP6YnEWmGxMRV/8pHf553vfg/v/8yX6F0Lc+mfP8f73vc+3v/+T/K954fIxOb5n597B+9493t5z+0f44J1kIf/6Uv8zQ/N1IDB5/6FP/zjH7Ja3qPvhe/x4Ttu4z23/SGndVOXIagkeewfP8md31Yet+PyxZd+q8Rd3Pbwr/NX5se4/dH/xJ/2t0Qw9SJDY9/lN3707zn1g1/lS+aH+NOz/5VT3zvFqbv+V7461IW28+P8j4v/H70z5/jN07/Gv00sAin+5cJv8BbF/cRz69yteCu/+INT/IeHP0D7euilFRAhAgGBgEBAIPCmQ6C+n6XPrMLc62fvxDN+J7qAzaDHE0gDNWYGO7H1T1Gq5Fnw9WLQadEaLARWU8z0WTB1+ShUIbkxT4dZi1anpduzRLkGa/5elCYXmd39Q3xrRJZH6egYYDtfZKrfhN7ppVxtUIwG6bIY0Wh1OAb95A+qbI51odTaWc0cpZcEUpNGdZ9l/2CrLjojfWML7FIlujqCxdzFVhYO9pbo1BuYWCsQX/NhtTkY6OvDbNRi7fWxk80y2W1GqdagVmvpnVjiyDDeqKUYsGlxjCy+vPW6micwM8nk2AhGw/WFciI4jFqhZti/TrEqqQpo1g6YdTtxuGfYL6fxuuw4evtwdVoxmDsZnwsw0GlCZ7IxvZakUozTZzcyNL1Jk31m3J3Y+vzsFDKMdBroGJ5nbz/FYIcBrU6HzmjFtxIll1jCrlej1mjQGGwsR3bJxQM4THp0Oi0Wp5tIpgJ7UQY6bbh6XFjtLpZWFxmw63F6VlqTiWaN4KgDpcbGWr7E5uwQOq1Gtq52DkwS38kw4jCiVmvQaDQMTW8QWxnDqNWg1emxuoZJlGqkl0ZRKfVMbV6eWEh922zUyK7PYJctuDrs3aNs79TYS6/isJqZWEnSaBQYdZlxeYMUUiFcdgu9ff10Wo3orS42klm2ZvrlSYlarcbSNUrqqHMp4e+zYnKNvbz1upzC3WnCMTRJOJEgkcpRPTRPV3ZyJJOrct/0eJc4eBVskac+/9lPcP6Sgi9++lNYl+Mov/1XfPP79/GPX7iTv3/QwsZCB5/5/d/nAcfq5RtWZJDPfvB2vnW2Vybrasdp3vupz+EM5C/HAaZU3+Kdn/0Kns3DhYtaBu09f8/73/YO7vjEF3lQNUR+J4by3r/k7Xf8Geetg6RKZZaGe7FZLZy/9+943/s+T/dSnBHF97jt9o/z/fNmopsBvvflz/DFb2vkmV7PU3/Hez92F+Nzndz5kbfz1Xsu0NU9wFL0hHCvVwj6Bxme3pTF9RUVvcqPCd8/8+v33c54Msrptt/mv1/4Z2J1yGw8w/9198/z+9q7aZ9pR+PrwOK5i9+4699xh+EBZrMxLup+i18582Xmtv3c+fC/53+ozpPZdvLb9/5nvj7Yj7Xrj/iFH/0u3/M8zBee+T/5b09+hbWTBuur1EcECQQEAgIBgcAbH4FKegGTUsHAVPzKxu5n8XbqMPX6Ke6GcBj0jAajbC4MoVLo8MxtsLU0y9paiuleC6buCTKpOC6Dms6hKRamfOjUKiZWcmxMD6LW6ukdGMTt9rCeLhAK9KPVOtjKlmShbHD52MlnGerQYHWNsLoyjlmlpm8qyHCXZBEcofRja+fxRS9atQ7vbIjNOQ86hRr34jrh5SG0GhvradjfDWBWKPEu54guj6JRahjwzxHwD6BRaZla3SG/PoVZq6FzcIpYdu9YFDcbFRLbW0RTJ57tV6L0kl/JNT96nem6FuV6Ocl4rx21QoG+o4eZtSgHtRr+bgN6l49KKclwhw6NpYeFwBxOkxq10clcMECPRYO5d4pcdhuXUUXPxBpNKvh7zfJko3AolO3uOfZqFeKhDdbXVvD12dCYutnK7xIY7UalNeNf3iIT3aDLpKHTPcn6+ho9FjVG1ziFbIReswaN2UVgI8puNkS/VYdjdOnY6p4IuFGrjMxHdilmY6yvrRGcGcWo1jIcCLO9PI1ZmjCNTpIsFCnlE2ysr7M2P45Vp2NgZpXp0S5Uxi62S8cKVsa0lF2nQ6eia3iarVAAp1GNuW+SWGwJq06DNxin0cgzZNNgdy+QT2xi1ymx9I4RXJ7GqlXQ7V1ibydEv12P3j7AejjN/pGhmRrZRIRwLM01PX4Oe/cgG8Fl0WMy2zDpNbSrtHgWWgbH1fFe1ColSo2RidXEK3LdOSLTqc99/ON0TQW46//9M7757bv5wpf+nLbuEX70hc/wjQcsbIdG+NK738o3nz20qAIHiyY+efsd/EDhlfNZsd+gUD4stbA5zo++8ee88w8+xFnXOgvm7/L2j/0904l9qKR49q7P87mv/iN3f/vrfODdn8G2XGF36hJ3fORO1L4kHIT4zpc/w1/+q15ePug9903e+9HvspBY4dkffo3b3/cB7vz6ffg3c7cGUrPEI5f+K6ceuJ2z8zruUv0OP3fv2+iIFhhxf43/+MO3YItfnuoXti381l2/xD95A3ILL+newi898Rds7JW4aL6D//3MZ3je+Tf834++l+FUhvuf/3V+7sHf42vOf+Lr1j/jK87TLN/4uD/qO/GvQEAgIBAQCLzBEDgortGhUeIcCbaWx4/b1yASGMFgdjAy5MFi6yKyU2wtYzs87B+pi2qByR4z5p5JIsFZDBotzuExpqYn8XrHWI6kWZo6FMr9gwwNjbKeKhBa7EencxI6FMpGl49kIohdq6KjZ5jZmSl8Xg+zSzHGe62ozd1EyyfMdY0aS4M2tB3DSCaz5kGZIbsau3uc0NIgOq2djQzs7y1iUaoYOxTKWr2VzVSFSmEVq1bF6EISdjfp1Gnpn90+FsnHMNzklxsRynKWzQaF6AoDnWYUGgsL4RSTfWYM3eOUS0ncNj2do0FK+/t4HTrZxeGAEhM9JkzdfnKZCC6Tmj7/uqSSmOy3YOga40goSxbl7E5S9ut29Azh7rah1TvZKkJiYQSVvoPIbolMaAqD3kRwW/IjrrEx2YPO2E1oc4M+sw7XxLpsIKQcpc+iw+FZPhTKdTYnelBpbSzF9gjNjsrW+lF3vzzpGJyNUU6HsRu0jC5uy00OL45ht3Uw7B7CptPKIn9xfACVxspS6ko/5syKB53aylJWsrg3WfV2obX0ENgIYNNr8S0laDYKuDu0dAwvkEtsyuGepSiNWpnRDh3WgWkkzMa7JcwmKV/Hnfp63SwJZadRqu8y5f0yY04descoOUl0yy49e8wOdaAyuYgWrxT818v3WtdOfe4PP4Jjo8HI09/kPe98Ox/9039jI7/OXZ/7FF+/z8xeKcVDf/1B3vWZrzO0lqe5l0Rx+qvc9tmv0LcsbV6D5RsUyvmVUVxz27IDd2xczSdvewc/VM/iN36Ht374a4yEi2wPneejH7uDCz1Bpk0P8p53fhr76j6FiRd5/wc/y3P9q9CI88jX/5jPfvVe1lI5Lnzr49z20X8jWINqIcKw7SJf/ujt/OV31Rxvf2g2qZT22CsfvKx4bmQGeN/9v8zP3fOL/OI9v8gv3/tLnPr+z/O5XgfTU9/nP3/vV/ln/wSFYpxgaIVYyMxbvv8LfHVwQCb2Rd1b+OXHP8/SPsTnfsT/cf+v8d8f+m+8S/00VYqcfu6/cOreD9KfLrJ/EMO3vPSKbwbX6mARLhAQCAgEBAI/Owg0q3t4u/QotBamt+IcNBpktkNsJks0qwn6O1vL590ji5LXKgvDHaj1TtZTFQ4KCVLRNFO9Fsw9fraX5zEoFfRMrsnPmFwsQroiuV70oTR2kdk5cp2osbXQ9xKhnJLcAlQKOofn5Y39O4Vt8rki8YVhVO1KuqUl9kqD+k6KjbUtlse6UevtrKVqlJOr2DQK+qdDxNfG0KoNzG/mKKz50ChV+E4I5Y1DoWzTqhhZSMDuBh1aDb3+Ta7c49+gejN7jYCXF8oNsuFVttO7sjaIB7yolFomVuP4+ywnhLJBFsrFK4Ry8VAoT7KTyzBgVWMfmqGwG2eoQ4fRdVkoO0ZnCUyPoNXbWQ5lWPG60OidhEqSThhGqbWxltmlEA3KwnZkPkKlvMt4jxG9w0M2FabHpKPbv3GFUO4cDlCuNslFFrHqFJh6xkmloriMarrHguQjAaySq8VcjHIqhE2vwT2/RbmSpd+somNogbxkxTZo5byTW3MYle1IG/hSu1UalQKh9Q22N6YwqrR4gzGq1SwehwFj9zjx+BYOg5oe/yqF7AZOg4rOkasI5c4joVzE123E0OVjp3RiokWTWq3KQfVwv9n1hmw5w3CnAcfIAoXdtGzFNvf5KTWkvWhV6vWyvCFVoXcSK96iGj9R/qnP3v4+LMtQXtJxx2//Jl96rA+qm3zrMx/my3erW4NjbZgf/M2neOvb38V73/Nufu+tb+VPvvscqcMxFrT8gLd9+LN0LFz2aZHK8Ld9k9/52BcZ2Wi5XuTndHzsne/kPX/wB7zrHW/jj7/xA6YTDfIzJj5522/xrk/8BUqrhr/+w3fx7vd+mr/6yp288/c/jkk6PiI9x9/c+V5+5+3v46mhZWba7uFdv/c73PaxP+Mv/uRDvO+j32NkppMvf/LtvPe22/iDP7iTZ10Ll2fk5SQP/e1H+PQ/t72sj/Jw759x6ju/wem5JXngVCurfOPxX+LnH/pLVjKb3KN4G6f+9RSnvvPL/El3N/WDVb7+5P/GqX/5D3x5sIPntW/h5x/+c+akZpfn+aOHf5VT3/pFvjvZcl/ZXH6Rdz3wHzn1nVOc+t6v8OWB0RNdIr4KBAQCAgGBwJsZgZ30Jh6nhXaFUvYnVSgNzERaZp8lj4t2hYbJUOu5Wtlbp9eqQ6FUodIYmF9JMtVtRN85Rq5SZsHbh0apQK1SobP0ykJ5dbybi9oOUoUjq2GNjbluVCo7m5ki/h49mk4PlVKF8PQgWpUSlVqF2iRZnPclszALk33olFK4BrVSgdO7Snk3x5DD0KqLSomte5RUpU65sIXDqESp1GDrtKFuV+AJ5tgOulGpTawnJYvyMiZlG+7ZmLRFngmnmUttSly+4Akf5aTsv93hDtywcSmx6kOj0jEbyl6TUongCBqFUvYTVqnU8okhud0iEy49GslXu5Rg0KzB6l6kWNlnxK7C0OvngCK+Lh06h49SucKCx4mivR292Y5Vr5YFbiGfZsiqxeqeZmNtCpNaic5gwW41oNJ2srkHpVgQi1YhT46WNlPyREbCVKqLxtjBwtYO7IZxalU4xw8tyqVtek0aFEq1zBGVUo29d4zYzj6NSo5hpx6lSoet045WqaJvaptGJc9Il4k2hYKe0Vkm+iwoVVrsdhs6lQqnb439Wo3NBQ9mnQqlVL5Kialngr1yiUVPNyq5z1XoTE4CsSLNgx3Geiy0tyswWjswaZTYh+bIxTcwa5QML27LFmW3TYWxT8KswcZUH6q2NgydIySPDb4lxntMMmY3csJGeiOAVadEqVKhMTpYiu+S2pzEoFEh+T+rNHrc01vczEEi1yLIqRn/BElpvNV2WBzzspHag2aZlZlJFtYTx0KzlAvh9XgZ90/R+eKPuPOPP8nf/esTzCUPqGQ28E3OkN67UrnvxJbwTs2TP1yeaVR3CI6N4ZU+Xi9b2UN7b60sd4xnYoZ0aZ/I3BRjYwESqTCTY1Mkiy3n+tT6JKPeMbYkx/b9NBPjXibnN0lElhmfXCW/m2LO78Hj8TI5vXE8uOTGNw7YCEwwGYwet+mqoDRrbEZHcK6Nkjp2nmmwFXPjWB0lU4VacZPe1Q5sK93M51s+E7H0DJ3LTuayKbYTHlxbs+zJk6U6G9v9dKwMk9xvtUNatoilJnGs2HCsDhK7YlZ11VqJQIGAQEAgIBB4EyFQL+0Qi8WIxaLEEmnK1Sq16g6T/Va0djfZw1MIoEFpJ0M8GiUWS1GqVNnNJkmkC/KSfKNaIZ2IEo1GSWRbzyspvpRntXVMhbyUXt7LEI9L5dTZkdPnW8d3NSpkknFiUvp0nuqRT2lzn2wiLtcxGo2RP1ziruzm5DpHYwl2jv1ca+xkksRiCXJ7O6RicfLFGvvFPPFEkvJBg0atRDIeI7/XssDt72aR8k0XTvgoNw/IJKIkc8drxS/LiIPSDvF4gt3rHJtW298jKWMdIyrHldfw2ckkSGQKNOrSsWoJUvmifEpHPh0nmd2lQZ2CFCddkE+iqJZ3ScSipLIFCpkUiUxetpLKaXN71Br7ZJIx4qkMOztZ4lK/SjqhWUfKU8Jsr9KgWSuRisfkPpPKlCGvSf0YJ7NTbq2K1/fJJhPE4hJHYsTiCfaOT3hoUixkiEXj5HYKpBMJsjutSVFpJyv3ZbZQolKU+ipOrpAnnUqQLpQOJyANCnJ/RYlJfZAvyWU294tyH0n9kikc1kuyB+7miMeipHO75NISTntUD8qkElI/78vv1sinJMx25PzrBxLeUeKpHMc0PsQynsof+1xft3ObDXYkzKJRUrkWRw7KBbkeMtdT2R9bjbhubte9eItv5pOOFKlSKZepnXwpyXWLEhcFAgIBgYBAQCAgELgVBIqFBcyKdlQ6O7OJW9x/cysFizQCgTc5ArcolN/kqInmCwQEAgIBgYBA4HVEoF4rypbBdHbnhk5ueh2rJooSCLyhERBC+Q3dvaJxAgGBgEBAICAQEAgIBAQCt4qAEMq3ipxIJxAQCAgEBAICAYGAQEAg8IZGQAjlN3T3isYJBAQCAgGBgEBAICAQEAjcKgJCKN8qciKdQEAgIBAQCAgEBAICAYHAGxoBIZTf0N0rGicQEAgIBAQCAgGBgEBAIHCrCAihfKvIiXQCAYGAQEAgIBAQCAgEBAJvaASEUH5Dd69onEBAICAQEAgIBAQCAgGBwK0i8BMTyo3qAYVclkwmw97hm/tutREinUBAICAQEAgIBAQCAgGBgEDg1UbgmkK5Wd8nEVpjYX6WmZkZ+TMfCBLLll+VOpTi69h0Stra23HP5m44z1ImytzM1HGdWnWbZX5hkVA8y/EbOW84RxFRICAQEAgIBAQCP0UIlAuszM8w4ffj90+zldqhlNhgYmKW+HVexfzyLWiQi6wwMxsk9+o8yq9aZK2YJzg3hd/vZ2Jyhu307lXj/XQGNilEV5menidZaP50VvFkrZoFVuenmV+Ntl45fvLaK/jePCizHpDyDfMaUuUV1PD1S3pVobyX3GS4pwO9Vo1S0calS5danzYFQ9PhV6V25cQGnUY1SpWKkfkbF8qZlUk0yjYUSiXtbYd1a5N+q9DqjTj7PETyrXea33BFGwdk4yGmvEOMzqzQetP8DacWEQUCAgGBgEBAIPCqINCo7uLvtaHVm3C5XHR02BgNhtkJB+jpdrNVfCVPqBqb410o1XbW89eobj2Fp6cL7+o29WtEuV5wo7LDaJcZrcEi19/eaWNmOU5td5Uuq4vlndK1k1djuJ1OJkJJXnuJ2mTO043NZsNqsWC2WBnwBdirV4lM9dDeriMQaVy7rte40qjvE1mcotNmxmw2YzLa8UfSr117mtt06xXoXX6q1+ywJqXdHJncHvUbbFK9mKPfpEDf7ePGFdo1QPkZD36JUN5PrdNl1qJUqlBp9HS7fSytrLO6vIh3qIexuZ+sUM6uTWPQqlBrdPSNTrOxvkZwfpKeTjMqlQqVUonBMUy8VL3xrtnZosugpq1didOzwMGNpxQxBQICAYGAQEAg8KohsF9axqJox+6elfOsVysUdouUkiGmphZIVyukt5eYng2wurLK5PgEK+Esua1lxnzjBLcSssCNrc7jn1uh2IS9xBb+yTlSe0XCU71o9U5CO5DaWsTnG2PcN0FgI8VBtcb6RD86lRpTVy8LWwm5DpGVOTne2OQc6R3JEFUltrHAzEKAxfkFFjfix6/VPojNY2hvx+lZbtW/XiITCTHZZ0eh0OAY8RHLFYmtL+Dz+eSyl0JZqgf7LHt70CjVWHoGWdmKEF2ZYyawSaUOu9EVJifnSZWgkY0wOTGOz+uT63j8tG9UiQanmZhdYe9le6TBeK8Rpc7G5NIK0yO9qNqVuBe2icwOodaYWNy+lqq8lozfZ3mqB2WbAufgOGtrq8xOTOEPR7lWTi9bzZeL0IzSZ9Zg7pu+tlCuFxjvNqDrGCN/g+bheinPkE3Kd4JrzalermpvlOtXCuX6DpP9NlRKFRqDlan1BNUTfGg06tSrB+zl0iQSCZLJLOXG5QiVYp6kFJ7KHIc361V28hmSyaT8SaVz7Dfh2hblBuW9AqnD+NJ77asnypCFsqYl4ieWM8f9UNvPMTFgR6NRo1KpGZyOHF+rVvbIptOHdUiR3SlylGWtskdyfZYOo05O1zHgI5JOU9hrWaWlm1Q+e7n+cn3ql9t8XIj4IhAQCAgEBAICgVeIQKNWwtdnlp/DnX0TRBI7sjWyMO/m0iUjwVKe9ZluFG1qOru6sRm1qHVGnM4ebEYNKpOLWLbEwqAFhamPTBOSAQ/tCgNLySyR6T60+i5Cu1W2Aj76+/vp7bGh0ViZi2RYGOlCq9Git3bgX1wlHBhFr9XR0dUjPyf1tn4S+zsseDpob1dh7uhiYil8LJQb1TSjLgNKpZauIT/b6TLlXAy3w4RarcXc1cdmIsH63Jhcdo/LglbXyWIsw8xgJxq1FoPdyVxgkakeE7pOD4UqxGd6UapsLG/E8TgMaM12evv68S2FLhu36gdsTAzROzJzA+KuyUSfCY11gFwDavFFzBoFXe5FwtODslBeikFpfQqT0YDJZMRkdRGMZ0hH5ukwWxhbigJNtoMe7I5B1tUQU2YAACAASURBVAMBOnQqrINTFI/Ue6NBo9Ggtp9ldqwPs8GAwWimb2yeXWkSkwrT1WFl2ONhwGXHZHYwtbbOzIADg8FC/8wKVWqEg27s9m7GPV46LEZMFheBtDQdiB0L5Vq9yW52mR6bBYPBgKN/nEShwvxQBxqNBq1Wi8neTyRfJb3qx2YyYjSY6fMvsgM0DkpMDbswGk10OntxWHRYhFDmCqG8F1vGrpeEpoqukcBl8l0x8Kus+ntRtrejUBqZjR1NT8osjDpQtF1Ca3OTr0OjlGbGM4jVqEXZ3kZb2yUUKgsL+TKV9NZLXS8aNRJr03TZjYfx21Hrzbgnltg7NPMeWZRVGh0TS6kralZMrNJp0Mj1N3ePIS3wVLNbDDqtaNRK2traaFeo0Js7mV6VCA65pREUF9tQa7UyiTQqFS9evET/5DpQYHKwS3ZBkdw82tsUaPRmhvxLlIRWvgJ78UMgIBAQCAgEXh0E9os51oIT2PQqlGoTk1tZskEvSqWV5VKBjdkeNDoH4XSNxHQ/CpWZpUKVaMCDSmchFM+zONKJxjZIFkgv+VBrLSyncodC2cnWDuzGNpicnGRivB+DSsnwwi7kQnTodAwsRagd7DFi19LhnpOt1IXwNHqVmomVCEGfA42hm1Cu9pJGl3fTrC56sWhUKLUW5hJ5dlfHUSnNBPJFOX4mtIJ/cpLxsR50KhW+lQqkVjBr9IxsJKBZZKrHjKnLx04VEvODaPUOVta2GbDrMHb04J9f49a9nyWhbJE1xqB3jMEuOyq1gan1JNtzLaEcjMJBIcHqygqriwsM2fVobUNE83EGrGqMPZMU94pMuAxYen0sBHzo2tW4V37cgtwgMGJHqbYwvrLG6swIeqWKvrkw+cQWVl075q4R5hemsOtVqPVWxmcWGXQaUeidJCu7bC70omlT4/ROsbS0gMOowtQ9Tr6aYMCiwTIwRymfok/63jPM4uoyXSY1XWOrZEOLuCw69JY+AmsxEpvzWLQa+jxTLC/6MKm1+DdybM24Uaq0jPrnWVoYw6RWYu3338Ck4yUUeEMFnBDKTWLro+gl9wWVnvFrOjBBNbVKh0GDUqVmwL8mA9LcSzNk16FQahiYi9Go7jE1YEOlUCKJ2g5XH273IA5LJ9OZvasK5czWpNwxKrWOju5+hgZ6seg1KJRa3PMReVadO3S9uJpQppxi1GGS/Z4N9kGkRaNyaBKT3kx33yAjI8P0OG1oVQrUpi4i2SqVxArDvU6MOq084zLaOulzuwlsJKERwmUy0enqxT0ywmCvE4NWjUIeTOk3FBFEYwQCAgGBgEDgJ49AvV5i73BFk7TkFqjEOrBAbNaHSnVZKOuM3cQKkJ0dQKnpYLPaJB70odZbCCfyrHgcqM29JGsQmx9FpTkhlI3dbG5u02fVYOv3Ew9NY1YpGVnchcymLJQHl7bZrxToN6twjgZkYAqxOYySqFoPERzrRG9zk2rp3mPg6vtFdg/NqaX4BnadEodnieTioVCWXDeyIdlQ5hyeIbYxgVGlZny1AollzGpdSyhTYrrfiqFzlFwFtqd60WjtrGabNKoJpjx9mPUaOtzzl623x7W4kS+HQllrpKuvj/6BIYJb0rSiwfZMP2q1maVYjZ3wDA6LnYHRUfrtRrTmbraLsDXZi1rnIBCap0OnZXyrSHpjFp1SSf9C6Ar/7mYjRb9Vg77LKx840Kyl6beqMfdPkottYNEqGZjbZL++z5BdjdHllScAQW8XSm0n4fIOWwu9qDU21uKScbLE/JAVrWmAaC7BoNSPgzMko/Py5ERrMGKxWNCo2tF1jVHfz+Bx6jE6J2SsIsEBtEo1BpPkR21EqVTQMzjNdI8ZjXUQuYiycL04YtEJodxge9Utz3JUKjMzqevN08r4+2wolUosPWPkm7CbWMCiVqDSd7KVLSENKGk2olJr6fFJFuGWCbayk2en1qCc3DxhUS4Ae/h6LPKmPHvvGDnJKalZYt7bhUapwNA1JruB5NZmZB/lqwrl/QzertaSlSSU49KiSGWHZCpL+aDKQTHHyqwHs1aFUmNkcr3lf8XuFi6zDqVSjct72ZLebJbJJNPslasc7O/KPlkt/20N3ZPLYtPfEYvEvwIBgYBAQCDwqiBQKa7Q3eHA7fXiHehGr9EyvBAmvTBKe5uJpVKetZku1Fon23nITPdySWFlrdokGvDSrjYSThZIzQ+hUqhx9rtx2fW0S1bnVJbQZA9qfReBZWlDvYoO1wCeAScq6QSq+R3Yi9Jt1KLrcDG/usX6dD8ajZG+oVH6bJJFdZDCwS7zo1bUpkGSPyYVKrEFXJ1deLxe3P0uNBo9EysxiuEZdAoV9qExgjMTWA0anL2DjPR1oGxXMrZcgfwmnTo1BkcvS5EIa9OSu4WWnn637Aag1HUQ2Ewx7x9jzOfGblRj7Zth78jNoX5AZH4cz2TLleD6HXLoemHpJ1096UF8KJQ1Vla2knidBkw9XuLFXWZ6zahNPbJQPsivYtfqcLjsaIw9pCoNGrlNnAYVGqOL1ai06bLBXjbGZjKM22lAbe4jWW1Qy6/TqVNgHw6Qj2/KQnlwbouDQ6FsOlwRl4WytHIgC+U+1Eoj05tpquU87g41OtsIyWKCQUtLKKe2ZzEpldj6Rlna2GB9bZ3N7TS1/TSjnToMjnF2Kg0iC30oFRoGvVNsbqyztr5BNBJh0mVEaXSylTmglFuhQ6PC0i98lK8QyrG11nKASqXDu3L9fY65dR962TLrJJQuE52WgFdiG5ikVIfYtNSpKpTGTkKZl7rVX+GjvCANzm16LXrUGg06vR6DQY/eoEd3ePKGyj7IQQNy69cRyjtxBu162aJsdA7LOzXLuTgTwz1YTAZ0esnPyIRep5GXWHxrsdZO1MIWLlNLKHd5F44FcK1cYHFymA6LCZ1Oj9FkwqjXolZq6PIvvemPTLn+TUhcFQgIBAQCAoGbRaBRKzM/7mZgYJCBwUEmFjbkLErhIEND40T3iyS2Zhj1TpMrwe7mPEPDfpK1pnz0m3vUR2pnn0Ypx8zYMAMj4yzPzzDqGSe6s0dmY44RzzSpUoWtxQkGB93MLAcYHx4mGG6Zh+MrswwMDDC1JO31KRGc8jDQ38+gx08iL/lBHhBammB0PIC8t+9EIxvVLDPeoeP6TwUj8ka2ZrXM0pSHvsFRtuJx1hfGGRwaYXY5gG94mBVZWDaJBKfoHxhkbj1Bcy+Of9TN8Mg4geUZPJ4pQttJpjyD9PcPMOyZJLZ74qiH+gFb0x6GfPNI5rfr/zXwdetpN3ST+DGhHJ7qln26gxsFgsMOlGoNZou95QNukPy7JQ1cYmrQirJdRZd3mX1ZazcpbMzhsOlQqjTodFpUKgOToSSF2DydRi0qjbR6rcZs62WjUKaQ2MCgvETfzIZsUe43t6NzeJB6IjDSySWVjZAslPvRqnWypVg6kaxdY2B6OQZE5VMvDN1T1Et7BD0u2cfcaDJi0NmZiktb8fZZ8bpQtCvQW3tZCScY77ai0epl32uDtZftUplcdAGb5H4r+ZJbrRhVCow94tSLE0IZCttBrDrJ9UJFx+Dsdf1wq3sJBmxaFEoD3uUVPL1WeebnXTzcJevrkTcjKI0OotkfW5uRXCJOHg8nCeVcuCVWVWo6+7xsR6OEw2HCkQjb0W22ExlZ1F7PRzm1MYlJ2/KxdnpXJOcifN1m2hVKnENTRBMpouEFOmS/LyO+NcnmLLkinxTKgUOhvM/yhLQLth2TY4i1SIxkIsZgp16eibmEUL7+PUhcFQgIBAQCAgGBwE8xArnkNqFokkrz5KajJuV8knB4m92KpIfzhEMhYvEUuXSM8HaCsmzBrsp+wyqViYWwtBXu8l9pJyOnCYdDhCIxivuSH3eDnUxcDg+Fw2QOZxjVSpHtcIhUoUSj2SAVDbGdyMqbI3czcUKROBUqbMxJfuk25pcjxCIhwvHM4VFvFZLbYaLJvKyRmtUisUhY1k+hUIRsubXBSzrFQmpHeDtOqQbS8W/y73C4VceaNOFokEtGCYXCJFJZMvEI28ksRwb7yy18c327QihzkGOs2yJbZNVaPcPTy+wcHW7ebFLayZIrHJ2BWGV1sh+NUoW9qwuzQY/GKM20WrO71NqYvDlApdYzML1GqdYiYnknz+7VXC8aOUackq+MCnOXm+jxltEmpb0dyjLR4GqnXjTrB6QjQXpsetQqyRHewUpmn+rxhkEdnmDLpzgdnsIsbTBQnxDKeyG6ZdcLFZ3uGXkmRznLmMMon9fsHFmV/Y0qhTAuixaVQoMQym+ugSJaKxAQCAgEBAICAQmBg9Iu4bUgPRaNvNlQNrK/ptAcsD7bjUptZS12pMFe0wJF5icQuFIoI/kaL+MwaWRrsGR+tzm6cQ+PMDzUT4fVyODk1nHySiwom+mlI0c0asn3aIGjFYx6McVol0n2Y1Zr9Dh7+hkeHqTT3MnUSzbztU7pi8wOo1FKfs0aTDYnQ8MjuAf7MFs7WN1uuYIcWZQ1Gi12Zx8j8ia7Lkw6tSxqVVoTE4uHO04L2zKRpU2HZpsT91A/NqMBrVZyvTghlJsZhjsN8uZEndFK98AoyysrzAzYZeGuM9roHxzEaTPLaSXXCyGUj2kgvggEBAICAYGAQOBNg0A2vIRVr8LYOch25iZfcHZLKElH+Q1iMjvZSB6dNHZLGYlEt4DAS4SydCbgTnID74ALo14jHwMnHavW1q6Qz2ocX0qeKKbIZJ8NtVqNSmNiKnTlSRCVXBTfYJe8+U46Xk3KR63tZKmwTyW1gVWr4FJbG+6ZlgiWfLNWpkawmST3hvbWcW7tSoyOAaL51izq5Jv5FO2tOEd16+obJriVPnGwd5WtBQ8mrQoprnRsjnvcKzvRX2zX4l099FFG2mw7JZ9HqVQo5OPhBqZW2Ykt4ZBevqJQ0C5tKBidpr9Tw6WLCjp9i8JH+QQTxFeBgEBAICAQEAi8KRBoNuWzkRtXuGy8ti1vNlvnMb+ORb62DfoZyv0qQrlV+0a1Qi6TIhGPE5c+iSSZbJ792sndoRAc6ZKtxnr7AHHp9Owf+6tXy2RTycM8ErReICIdbF0mlYgTi8XIH29ZlVxkauzmM8flJpJpdoqV1qY76Vzk0i6JeKyV31Hd4gmSmRzlgxNO/Yf1aDaq5DOt8tO5XQ6qZdKJGLFYgkLpxKtApXJzaTnfWCxObleatTXZy2fksGQqR+WgRiGTQLqell5a8mNtFT8FAgIBgYBAQCAgEBAICATeOAhcUyjfSBMr+fXDY9VU9PnXjt/McyNpRRyBgEBAICAQEAgIBAQCAgGBwE8zArcklDORZfq6HbKLhEKhQGvtJSy9Okf8CQQEAgIBgYBAQCAgEBAICATeIAickt5BfjMfyblCeuXihM/L+PgEExOTrMUKshvCzeQj4t4c7gIvgZfggOCA4IDggOCA4IDgwKvPgetp+lPVapWb/dTqdZrN5vGnUa/ddB43W6aIf/P9JDATmAkOCA4IDggOCA4IDggOXJ8Dr7pQFoBfH3CBj8BHcEBwQHBAcEBwQHBAcOBngwNCKN+C1VyQ+2eD3KKfRD8JDggOCA4IDggOCA68Eg4IoSyEsnCNERwQHBAcEBwQHBAcEBwQHLgKB4RQvgoor2TmIdKKmavggOCA4IDggOCA4IDgwBuDA0IoC6EsZpCCA4IDggOCA4IDggOCA4IDV+GAEMpXAUXMAt8Ys0DRj6IfBQcEBwQHBAcEBwQHXgkHhFAWQlnMIAUHBAcEBwQHBAcEBwQHBAeuwgEhlK8CyiuZeYi0YuYqOCA4IDggOCA4IDggOPDG4IAQykIoixmk4IDggOCA4IDggOCA4IDgwFU4IITyVUARs8A3xixQ9KPoR8EBwQHBAcEBwQHBgVfCgVsWyvV64zhts1EXsxAhuH8GOVCj0TymMfXX8XXr9UaDZuPk691r1I8q02xSq1Wp1+vUbpJXNWlcNhs3ne5qN5Fa/QQ4Up41cbO9Gk4/6bBarX6ZxDSpH/aTFF6vSRyTeN6kKfdhDalXm/XX8Z5dq9E8pJJ4Vogx9JMeL6J8wcGb5cCJG+xLvp66Vma1+gG52CYzExP4xsdZ2EhQk2/IN9cBNVksvI437JsUHddqvwi/uX7+6cSrRq1WJLy0gH98HJ9/hkh671BYvIL2yaLgsli5Wttr9Sq5+CZbsdzxuJFEemZ7Ff+4j9mlTfYqB+QzGYqV6g2LXmkMFjMRVta3KR/8uMhuiaUjEXW1ep0Mk0TWTmKLqckJxscnWFjdplytX1UsSwK/8XoKLzGOjyelUp9XimmCU5OMT0wwPbdMrlSlWa9R3MmR3SlRr+6zvbrA7GKI8v4uK7PTLEcyVGuvw723VqdRKxNammN83M9qJM3+LTwrZG7W6i2xL/r/uP9Pjlnx/RXctwWnBKeuw4GXqOMTAdcQyjWggt92lh+ePk+nw8HwXEhOJj+Ej29mLcuFdEGyakiWrqb8n2TOkKxpdRLLXkZnwkiGq/qhyUG6wYsBLwb8a88B6aG7Tft9d/PECwYc3X0sx3ZlHktWXImPkvhrypa4ljmsccjN2pHlt9Gy3MpWXInWUupSmrHBIcK7dVmsHEc9THv0e855gRc6pmhIVr56k/yGjwtnz2Gw2TBZHWzGkzgNOoLxklwnySIolSCt5MjlSKs48lhrUq9W5TykiNvjWu4/YyRTkZPJ/5MsifX9PBO9Q2zu7SO1o3FUkUNL8ZE1u3nYJunyovN5vnP6Kexddp5/6gku2sYo1htXpJXy3p4bYywQQRrxV+R7nRvPa9+/b44xJPVbNjzAj751DzqrA+2LZ3n6RRPR3QYbXgfW0RXy8SmefeJZvIvbrIxbeOqClsVIVr7vSgQ5tjTLxGrx/njFsNk4tkgfmYWPxsFlzkgTqMtW46PrEj8blTwjlhd57MnnMGiVXNR0kdqXC20RVOKfNN4ayLw85vThhFMaf3IdG032C2F6h3zs7UuW8jdH/4pxIvpZcOAnz4HWzerq/7+mUG6yj9/+DM+apuWUjYNdlheDZMtVqjtJgktbFPdLrM/78fqmSezuU0hsshhcYtbvY34tRmU3gfWZe/jBGR2riQLJrUU8IyMshyUr2+tg6RAP8Tf5hKROoxFB9fijDCztyTyuF1MsBlbYPagT31wilIizuRxkObiAz+cnnCnKwnYnscm418PcapT9RpNKPsa0z8tUYIPwtIu7v3MXupElSpUykaUZvGN+wpK1ulEjtbXIxOQETs1Z2l2zNBoNWbBsenTcd1ZLqiK5TtTZL6WYm5ojmc+zvrLEWnAe//QiydQ20+NjBLZS1Eo5lhaXyZZr7MU3Wd5KEvabefQZG8nCLsEpH56xSSKZIvHAIPf+y3fRDE+ze9AgHQriGRlldjnCQbVKemuV+blZ5oKbFA9aE4SA8xJnNMNImruWXeTCI48xtlUkEwri9YwyEwyxk42hO3MP9z6jZTOzR3x9AY/Hw8xyhHK1dsPWcPEwuLWHgSyUQwM88lAbCWlO1djF+cLjqN0rxDeDBMMhvB3PcvrBi/gXg5jO38ujLzrZzhfZSbV4LN+PK7usLc0zNzPDeqLAXmqLcY+HuZUo+/USoeVFgosBxscnCWf2aDRq5KKr+DwegltpDg4O7/fjM8TzZWrSZKzZJL7QzaNPtLFVqELjgGwqwV6lTjq0iHd0VObJwcE+0bUgm6k96sUMweAquZ0860sLBAPzjPtnSReLLA6p+Zfv3od7aoNy48dXTG4NP8E7gZvggODAy3Hg6hK5FXpdoTzluMBd33+YFy62MTa3jP7pR3AtZdkeN/G0ysn0kIWLCgOmS+d4RjPMWPdFfvDAObq7jTz4yDMENrZwPHcfp89ZmJkc5Zknz9A5MMp6rCCEshDxr4OIl8RgFPWDP+T0o+dQ6m1sRROYnj9Lx+AQ7c8pmYsucP7uu3nR0o9L/zxPXHIQj62ia3sek83A048/iWduDUf7OV7Ud2DXO5jwO/jR936IybvMsq+L5y6qMetf5PEXTGys+nnhqaex9w3QduZeXnDOy9Y8eQl8L4FDcZYHHjvP8GKCg+I8Z+49w8z6Ms+evhuVvRvFUw/w0HkNLks79z/WRmhthsfuf4LZTJPtgXbuf7GHVb+dx8/biGVjeHu7MbQ/xZm2btZm3dwvCfjRObYCHs4//QyOXhcvPn2WgdlNvJpH+c5jbUwFw8dCedF5iSdUg7SmEQUcLz6Baz5GaM5Dt9PE448+zsDkIuZz93HfBT1byRzLUyN0WbU8/MCTTGzvtayEgs+vGZ+PhfKDF9nekVb7mqw4VVxwTDCoe4bnXF68rhe5/6EX8c7NY75wH4+/6GRtZRrtCy9gtFp4+vFzDM5Pcvae7/K8eYjl4DS6touY7CaZ46Pri2ge+qF8X7e1PcHT6iES0QVeePJpjBYTnQMTjPfbeUGhx6B4hieVLnkyBlXmuy7yonWGahN50iStVGRXRjj31DN0dnfz4tmnGJxcxnH+YRTebYhN8uADzxDYXOTpe75Pm60f9dmHuejyM+fW8527HhBCWYyn12w8vZxgEtffnKL6loXyZMd5nrzUQyyeYGf/gJUhDS9a+ujWX2JoIoD+zGkePK9Ap1ZgdI4x4mznKVU/B80KmrP3M7icIOB6lgvWBQ52Ypjbn+WSroOFrfSx36Yg5ZuTlK9Pv0sW5W1Ujz2IeWSZdCpFpQ6Z5X6+/7dfp80dgsYGLzx8hukEkF/l/PkX6HfruPd7D6DW6VGqdfR2O3n8vJJMDRrFEpVkgLOPniOwW6L3hdPc+8TzGHVK2q29+K2XOKP1IG2DnXc9zyXnjGxRltoru3M0D4jM9fHoo08ztTrJhYfPMruxzHOPP8p0dIf10XbOKcegEkXx5HPMzE9zTiqrAPFhDY+097Pqt/H4s3ZWg3OYDQa0bWe495yRTDLM8w8+ycxeiUnrOZ53zMljf9XdxvOqIdya81xwLcph0lK4ZA2ULMpPqN3Izh+VMO1nzjAS3MbXZcFoNvLQAz+iay7OtPFZXuhdpFZNM9BpwGzQ8NDdp+lfKcguVq9Pf745x8ploXyJ2J7ErCrD6nOoBhfxGM5zsW+B6FoXz18c4ACYtD+LwRMhPWnhO3c/gNKop/2iHm9gnLOPPc5cokxi1sYP7j6NRq/nkkLDxNoc+jOP0LNYYC8ywJnH1fg6NJzVe5GkeXkvguLhu3j4mTYMWgVtdje7larkdMeKW8mTl/opS8buRmsD+Lj1LM86Zlr8G1bynNKJ8/kn0U3EITnLY48+x+KmtILxqDz24j4tT1zsI7Y5wYNnLpIpNWjcqp+zEJlCZAoOCA7cJAduSShLPsoT1qd55EInW6EQ4USB/cwi5+89zQMv6Ent5ultf5IXOiZIpeOsbcSYdD3PY+29VOpFlI/fg2sxSnDgRR573kV6r8JOJoxL+QQPtfdwUG+KjrzJjhRi5GaFUp1mI0L7g/ei7Z8nEg6TySUZsrbxwoVnONfeRXx3jed+dD923zrLYzYeu2BkJeDmzCPnmQunia2vsrEyxzOPP0q3f5n14Aa5zBLPPvQwAytpxq3neUrdRyIdY309zIbPycNPtBPc2sB8/kc8Y5+VLcrSCRjby1P4puZZnx/lqSeexr88zrn7zjC9tsQzjzzE1HaeFfdFXjDM0CiFufT4eabXVml79EEc/nWGVY9y/8VeVibMPHrOTK/+Is+YRwmOm7nvjJZsKsLFBx+iaynGusfEY+e1rIY36VScwzoUYET1JM845qk1kceeZPkLOJ7n9FkjS5E1enUXeEY7zF50lsceOId/awvFk/fRObXNov15ntAOElrz8OhjF1haXeC5B+6nZykvhPJrPI5bQrmf03edwR/cYHrIzJmz7WwU9vEoznChZ47Qkp1zz3bLE54x01MoB9Yorrl5+NELzIZTbG2sEw/P8uSDDzEdKbKzPsJjj52TOb69ESSW3Ub5yP10L+TYCfXw4AOXmB1z8shjF5leWWV9c5POi2d4we4jnQ6ztBqlvN9A4nUpuciFRx9E0TnCUnCeyZkl5kcsPHpey0p4i872s5iH5vHoz3JOP8qaz84P7nmSxc0AzzzwIFMx2Pa089CzXUS35njooceZj+Spir0s4hn5Go8t8Uy92WfqGzf+LQnlRvOArdlBVC9e4lJbG5b+GSpUmHQa6PKtsN+EcmYTl1FFm0rPWDBGODBCtzfAfq3CWI+duWiBYnIFi15H36gPl1mJSt/BQiQnH4slSPrGJd1PR99Kx7Hl8NoNXLp0iUtKA6NjY3R3u0kW9/D1dDG7Oc3Fhx7gksaERmNiJpyl2aiwMtGLoq0dY6ebRLlGctmHVtGGodNLvl4mMGRF0zksTxLdHTraFGoGptYpl3cZ7zai0FvpcTkYnQ+1joCrN8hszmDStHGpXYV7JkS5sk1fRw+hRJRBVxdb2SLx5VHcEyHqlQyj3QNsFfbZmu5DqdTS1dlBlydIfH0K18A08cgyVo0Km6uHnqFxivsVljxOdJYeEoUys4NWLrW1Yx+cZq9SZdXbw8BchGpd2rwlHU3XIBb4/9u7D/emrnRd4OffOfdOOTNzJ4UOkzblTEvIhEzaUGzTTQ3VdELvvWOK6WAwsQnNBptiG/eK25Zk9d7LlvTeZ21ZYIjCDEVGwm+eZwdblra2Pv209H7LW8u3kXv4EI4czUNRWS0cPhkIu1B1Ix95Z4tw5WoB6lR2uHWNOHv0GCpbulF+7QLO5Beg8PI1NOvcfbrkXmq46tvXrRwOw21tRf7hw8g9chRnLxdDbRfzt2G03rmGWw1qmHU1uFnSAH8kgvYH13G3SQdEg2gt/wHHDufiTNEd6M0a3CgqQpfJC0QDaKu4jiO5uThbWAKDy4Z7V75Hg8YNj7kR339fBofHg+a7RThy+AiuVXbEJjrOHUfusVO406hBUI47HmsS5QAAIABJREFUCsOhbcbFk8dwOPcofrjXDG/Ah5riiziSewQXbz6AMxCBU9uICyePo6CgAOcvl0Br6kZxYRG6bBFY2+6isLgOXo8LdwvP4PwPD+Ds+dBpf3zO+Zj79jXGerPeLxCUY0V79Knonk9NC0xiFiq+TmbvtT3FerHKurHR2If0xK91YythxNb/FJ+6jn22ueeTz+wUOVvQJwaeXEdZrNggPmUvbAqP0WArdi5fg/uSCB6PbcZWoBCX9Kx3LOAr/4lP8PfsU1lNQpwHHftJ7HXR+/6iT6yjHF85Q1xbXFfs59Gx9KyrrKwco6y9HP+ZWC0gdgfK8YrbxZYPiP2r7Ex5UcZWLlBeoLFjfnTI8TWbxWN/aom33usoKysjKM9J/DEo96gE4fixK6tpxC4WSylwZYI+MRxSPtMRU6Y84Y/qLmyIlVtkObbKkBijlXE4vgJLHIFiQJiP2RDrLsddKcZ71mGOhEPKSivKOt1y3EGPV7ECS89BxN8D4gFD3H/8v6jyHvD4tvE1v+OGlOvFj6fHUNx0KH6fPStlxPfPfxlkaIAGkmkgPn4l+vcnPszHJySZTwj3nSq+wggF9LhVdBUdRi8/lNZHoY/+U8U/j4MWaYAGaEAYeNZ/DMoMB/18ZvvxzC0HTA6YNEADNEADNND/DDAoMwz38zDc/170HOj5nNMADdAADdDAf2aAQZlBmUGZBmiABmiABmiABmgggQEG5QRFYZf1n3VZrBPrRAM0QAM0QAM08CYbYFBmUGYHSQM0QAM0QAM0QAM0kMAAg3KCorzJnREfGzt/GqABGqABGqABGvjPDDAoMyizg6QBGqABGqABGqABGkhggEE5QVHYZf1nXRbrxDrRAA3QAA3QAA28yQYYlBmU2UHSAA3QAA3QAA3QAA0kMPDMoBwMBsGNNaABGqABGqABGqABGuiPBp4ZlPV6PbixBjRAAzRAAzRAAzRAA/3RwDODsizL4MYa0AAN0AAN0AAN0AAN9EcDzwzKb/LJ2Xxs/PABDdAADdAADdAADdDAswwwKCc4cftZBePP+IKiARqgARqgARqggf5hgEGZQZmfcqUBGqABGqCB12cgGEQoGEAw4OfGGvS5AcWeMPgTYwCD8k8U5qcKxsv7RwfJ55nPMw3QAA0k14BYQSHg88LmdEJjtkFtskJltHBjDfrUgNZih8vtQiDgTxiWGZQZlBPC4BtEct8gWF/WlwZooD8bECHZ7/PiodaKqeeNeHedGb9da8Fb3FiDPjTw2zUWvLfNhI3FJlhs9oRhmUGZQZlBmQZogAZogAb61EAgEIDfZcP2MiOGzO/G7zIkDOfGGrwGAx9M6MLba02olQzwez3K3w/p3cS+dFCWw2HIzznARBFBWOZsQu8ngl+/Hg/hcBiPN7lP3yj4nL+e5/yNq7ss9zIc5tj6nO9Hb5yHNHn8Iii7rUYsv6rFr6boMCJLwvDxKm6sQZ8bGJEh4edLzbjX3AWPy/mjHPBSQVkOBeF0OOAN/PRJ0E8MQmJdZq8dRRcOolHvRzTMYPJEfdJkgHszjlmG7PdAr9VApVJDo9XCaLUjEGR4ezOe3/7xPIo1TX0uK9QqFdRqDbR6PaxO73NPXvA57x9eUul59vv9cJr1WHpFjV9PZVBmk/D6mqQRmRJ+ucyM0oZ2uBz2VzejLEci8BpbsGJsBk7WdgPRCEKyjKiI3sr/gIgShHsuUyJ5FGG3CXs2zMLtTu/jKyq3iSiDuxyO9IT32E7CMsN0Kg1ub8yxhCOIWNtwaOdGrFqzFouyM5C1+BAswSgi/G3HjzrqN+Z5f8Oa0UgkAmP9NaxatQob1q/E+FFfYktRgzK28jlj+E1lAyIo201aLClSMShzFrnPZ5F7NyaPgnJ926sNytFoFM23T2HLpk3YcKIYoSjgNbTi+PGdOLRtLebN2YD7OgcQ0OHUluWYu2A+9hRUI+Kz4cCWubinCcGvrsKm1TmYP28JTt1ogQzAbazFnpULsGrtVuw7mo86tQ2RSJhv3G/YG3xKDOByON7TofTUVhTVWMRJQbRGa2llQI7EJhVC1k4c23sAHfZwzyQFg2JKjDN8PSV8PTEov74Z1N4hkV+rkKSgHEbUZ8bJTetRZbPh5OplKNNGENQ+wNzJo3Gt1YX2q7swe3cR/G41apr18NmbsH3JYtRpXMjdPh/321Q4s24FTld0I+TuxpE1G1DebcLZzStR0KiH31SHFbMW4lqrBYgyvHDAT86bvhwB7C2FWLsrH+4o+CtrvqknfFNP9ddfNBpB+cUdOHSlhbPJNJwWhhmUGZRTJaQnJSiLmV97Qz6yF25Hc5eEgkNrsOtiEzy6Gqzbvgk6LxBU3caabd/DGnCi6MhKLJg7FzMXLkRDtxtHdixAcU0VjmzeBo0/dqZFTeFGnPzhBrZ/lwd1MApEnMg/fATFzUZEGZTTYuBL9TDx4+MTkv24eWgv8svbIcLGj6+TnIDO+2FdX52BMCJBNQ58txONziCiPHWIr+M0aBbSOSgPGivh3bEShvWcMjEsS8K7oyUMypDw7hgJQ7NeMgRnqTBwjIR3Rse2QRkvub/nPLVjWM/jGPayj+M57/d1BedXH5TlMBD24MqhdZi3bCW2btuGTatyMPW7vWhrqsLazWuhcQEBzR1s2X0F104tw+7CRsjuNuxavgg1ahcOb52LsuaH2L9kLopaXACcOLNpLUo72rB/0XLcUHsA10OsnD0fVx5yRvnVvaEynPSupRyOImxtx+79u/DQEuaHS9PgzbX388evY69nOQpYqk5j3elShKNgSKTjtDCQrkF5SIYKk3dasGm3AX8eL2FIlgofTtVjw2kbpi4zYs1RC/4xQ42hmS8WbodlShg+rRsLcm3Ym2/H/vM2ZK/UYMgL7u95w6c47j+vMGHDISP+PFX18qE/DcLyKw/K4sN2IWsXDu7fiXZbzwfvIg6c37sTBVdLcODYIeg9QEBfhcPHb6O7rRhrFuRg0cK12LhzCx7qPDh/dD1qdCEYa69ixdK5mDdnJU5da0AAgLbxeyyfNgdr167HklXbcfuhmTPKHPiTMvCHI1GYO8pwZF8+bDK4rBadJcVZcgO9+LB0EJXnDqKgrBPhaDQNHwMb+OQaSc36pmtQHjxWQnaBDxG7H1Nz1Hh7dBe+zvMq3y/ba0d1uw/TczQYNE7CgJ5Z4YHjJAyOzzaPV2HIWAnvjFFheJYKYnZ64LhYqBYzuMOmaZHXEITdIaO63oeaNj/2HtVj4NjH+3tnTCygD8tUKTPYYhZbzD4PzJCU64mvY7PQsRlucVsx4x2f7R4qjqVntnrAuNjM+KAxsZ//9usu/OuYC80NTnwxS/XoemKf4vieuG3PrPrQcbH9xR9vX8+AP28z8PT1X3lQjr+gZbn3ep0yImJ1CrGep9xzPrFYCk5Z3zOi/A13vz+IcCS25nJs7WUZkWgEcjAAvz/w6GfhSERZE9Srq8D6tTvRbApxpo8BJqlv/sJy3DX/Tc03VT4v/+Z5kcPKeMs6/Zs6cSxNmbEuXYPy0EwJH80yQR2I4OQuHd76So3TTSE0l9rwj2w9tp6xYuR0NUbM0mL1GQeOFTqwZLMeo9easOWwGX/NUGHsPht2HNZj+FQNZh2yIWdDtzJjLEL4tAseBKxBLFmiUYKtCNhDMiSMmKrFylN25H7vwL7TFoyaosL/LtVj4ykbNh6z4dBlOxasMmJZrg1HLtsxd003BmfpsC7PhsW5Vuy65MCeE2aMnCjhk1VG7L7kwJFCB1Zu1uP3E1WYc8yGrXk2HDhvQ+Y+K7YeMeJ/Z6iRsdOKg5cdOHTOir9MUePjxQbsuOjA0UIH1u024INxEj5db8GOExasOW1H7iU7ZqzoxuA+Pl3k6fD7PN8nLSi/+gFZBGcv7p3diZwFCzB/0UKcv90BMev3vH/Q5NUfGwdf1pQGaIAGaIAGXpWBdA3KyizwJA1214ehKjdj+BITGi1hHNnbjb/OcyIUkTFplQ7bK4JQNXlwsMgLvd6P3Ltu6A0BLMjpxmVNBLB68fUaI+6ZIzi5qRsDMsSMsQZ5VSGoKhz4WMwa95y2MCizG7tuB2CxBHG2yI0OawRVt6zIOmCHPQI0PnCjpENG0BXG3XIXqg1hGJtc+CrLjE53FN1qP07f9MLsi+LyOSPmHbXh9GU7cu8EEbIHMX2tDgX6KEImP9as02FscQBBkwszN1ihCURRWuJE/m0XJqwx4bYujIf1Xpwv9cHhC2PPdj2mXRQfNovg2m0XKg1h6Gud+CJLwuA0Occ5jYLyUwOQHI7NOHMGIGVmAF7VAMn9PGWdxmmcBmignxlI26A8XnzQToVph9zQGQLYn+eCzuTH2Kwu/D3HCbc/hMU7rJCCUTSVurA33wObN4x9F9yoVQexu9CF0vYQOjpDuHbOCcnow+hslXKuswjKRx4E0V3lxMjRXUp4Hjy6C28vNaPREUHeUS1+9o8uzDjqhFUfwN5cOwzuEFaulDBytRuhsIyx01WYcsYFS6cX0yeY0e6K4NAePX7xqRqH7oWgrnEhY6Eea07ZkFvkQygkI2e7AZe0UTTdNOLtrzoxqtAHv9GFiasMuKsPo7XejY279Ji434OQN4DRM1T41dcSjrWHob5txYLLfvhsPvw1qwtTL3rgNfowbb44FeTFztN+ntngV3Hd9A3K/WzQYHhkeKQBGqABGugvBtI5KItVIYYuMeGeLgKPNYy6YjMGjenCyBwnPP4Q5m01odYdRf0dJzblWbH/gg1ZCzXYVxeEyRPB9esO7LsWgN0WRlOpBR+Nj53/O2SchDHHXfD5ZOzea8Cnc7rxz4Xd+PN3ZlQYw7jxgwkfTNBgQ5EPRpUHKw7ZYXCEsHyJhFHL3cpflv1KnC5xyglDuxfTJpjR5ozg/GkT3pukQ2GTjNo2L252hNHR6MaB8z4EgjJythlwSRdBfZERg0Z34Z+FPgTMbozL0eCLZQasLvQiKMu4cNwDR0DG8jU6/H6GFjcMYZRfMmP2RT/cZi/+PFHC9AIP3AYfsucxKLP7Z5CnARqgARqgARp4IQPpHJTFLOaA0RrsrwgCCGPTKi3e/VcXPl3khF+WMXGZFvMue2G0yShv8KOp2YNpsyV8tc+jrHOet1mNMSddEH/y6sgeA4aMkR79ZbqhmVpsu+GDJxxVPtDn9IRx5IgR2YdcMHrD6JBCsDpC2LdXhy8P2GF1hrBiqYRRK9wIhkIQQTnrtBPGDhGUTWi2RWE0h1CvluGyBjB/hxFnW2RYDUFUNIUg/vrxwm0GFOgiaLjSE5SLYjPKczbZUa8KoKI1CJ3kxdxFWhysEAFfRrtOhk7lxfgF3ZhcEIDP8jgoe4wMyi/0ougvXTIfJ2eEaIAGaIAGaODZBtI9KIu1k38/sxv/XNCN9yaplBUh3pukwagFWnwwUYVhE9X4dIEW/1qqw+dzu/HBeBXem6jBqIVa/GmCCsOzY9f9aIpauW38FAKx32ET1PhkvhZfLtLhy4Va/O9UNQZnqvH3eVp8vSS2v+GZKryfrcFn87vxh0kqvDc5tr/3J6jwwXQN/jFHg48mWqCyh7H3mAn/mK9VLhs6VoU/zujGl4t1+Oc8LT5boMXvp6rx13lafDIjdizvzezGqHkafDhZg89ydMpjGDlDrXzgcMQUDUYt0uKbxTr8fbpaWQXjwxnd+GxeN343XoX41x+KGqTB0nCi7jz1gt0+GxsaoAEaoAEaSCkD6R6URcASK2CIVSl6B8JH32eplNUqxPdiBQhxHbG8mvh6qPJ17LaJ/jiJuJ5Y6SJ228d/wGRIz/2Jy5VgnRVbEUO5/559x+5H3LYLwydZoHFGsHm3Hm990/VoLeb4cYu1mcX9KMu+ZcaWnBP7FcvOKY+j13HE13EWQT5+XI8uE9fvWedZ+XnmkzVRjjWFQzODMgfHlBocOcvy7FkW1of1oQEa6A8G3oSgnOoBcPh4NT6e040/PDVrnfrH3bcfAmRQZlBmUKYBGqABGqCBlDIggrLDpMWSIhV+PVWHEVmPz9NlkHt1QVHMQosZY9b0p2swIkPCL5aaUVrfBpfDjmAw+MRrBc/477/6Q1fLx8jZGxqgARqgARroWwNKUDbrsfqqCgNmq/E78Uc1MrmxBn1v4P3MTvy/lQbcaeyE2+lgUOZg2LeDIevNetMADdAADTxtIBAIwGm3ori6DZ/slfCLFSb8DzfWoI8N/HKFCb/5zoApee1o65TgcbsZlJ9+sfJ7DuA0QAM0QAM00LcGxK+33W4P9FotKusacaWsHJeLy1Bws5Qba9BnBr4vuYPr9x6gsaUVFrMJPp+PQZmDYd8Ohqw3600DNEADNJDIgJhVdrlcSkDRdWugUau4sQZ9aqBbrYJBp4XVaoXH44Ew+bTVZ5yiDJ6jzA9//AjM04D4Pd8AaYAGaIAGXtSAmFkW5yt7vV5urMFrMSBmkUVAfvpDfHHTDMoMwwzDNEADNEADNEADNEADCQwwKCcoSryL4L+cJaEBGqABGqABGqCB/mvgmUE5HA6DG2tAAzRAAzRAAzRAAzTQHw08MyibTCZwYw1ogAZogAZogAZogAb6o4FnBuXa2lpwYw1ogAZogAZogAZogAb6o4FnBuX6+npwYw1ogAZogAZogAZogAb6owEGZTYDbIZogAZogAZogAZogAYSGGBQTlCU/tgx8TFzpoAGaIAGaOB1GGioq0VDXQ3qa6q4sQZ9aqChtjpmr67uJ5sEBmUG5Z/E8ToGTN4n36hpgAZooH8YqK2tQ011Fa7drcLZW9U4XVyF08UPuLEGfWigChduV6Os/AFqa6pRlyAwMygzKDMo0wAN0AAN0ECfG6itrsKF4gf4dE8n/mexET9fZObGGvSpgZ/lmPHOCh0mHXuI0nsVqKut+dHrgEGZg+OPUHA2p3/M5vB55vNMAzTwugyImbuairuYd64eA2Zr8F5GF36XKXFjDfrcwAeZnfj1CiPO3biDmqoHP5pVfuGg3NDYhMbGhp6Q1YCm5ha0tLSgpbkJDQyfDJ9pZKCxqQnNTY29njPhuRmNDXwTfV1vorzf57HXgKam2Pjb9GhMfp7b87r01vcGampqUHn3FqadrMNvsg0YkSVh+HgVN9agzw2MyJDwi6VmnCgqxoPK8lcTlBsa6lF55zbu3H+A+oZGNDXU4uqlUzhx4gROX76BhsZmhuU0Cor9+U2iqaUZFaXXUXSjDA0NovFrREtLLa4XFqG0vJphmY57NVB9Hyb+/WuzAY11NbhRdB55eWdwvbQSjU80fal4zDymf/+8vvk1EkG5oqwE2Xk1+M00BmU2Ca+vSRqRKeGXy8w4dvk6Ksvvv4qg3IDm1gac27IUm3K/R+vDeuRuXoIZc77FmtVrMGv2NHy38yRqmxmWORim9mDf2NiIq2f2YXbmlxi1YDuamlvR8KAMBzYsx1dffYE1J26iraX3THNqPx5663/PjzB8v6wAaxYtxopFCzFxxlJ8X14Dziz3Pwvp9voXQbm8tBhTj1czKHMWuc9nkXs3JiIo/2KZCccKXnFQPr9tBbblXcXtc1swcfEWVNY/REdHJ5qrr2HJjAk4eq0WLU3xUzM4aKXbINYfjlf5zcj9+7h8eC0yVuxSfhNSX1uNO8XF2PjdDKzJu4mHDMopPqPKsaWm5gGqa1vQ3f4Aq2d+i/3flz11KhFr1B/Gs3R7jAzKr28GtXdI5NcqJDEor8SOU4U4s3kBNuZeQXNzs/KG2trUgNxtOVh1/Dpn4/hr65QPWY0tbbh7fisylu2EOO++vr4Brc0N2LlmJlbn3WBQpuGUNyxOf2tpbkbp+X2YsWADSh6I0+EYjtMtOPa342VQZlBOlZCexKC8AttPXkHBnhws3Hkera2tyjmerc212LtqJnZfqoAIzf3txc/Hm15v0A3NrSg7u6VXUK5Hc0MddqxmUKbldLDcoJxHX3hiKxau3oWSipqec+3T4dh5jP35NZbOQXnwWAnvjpUwrOeUiWFZEt4dLWFQhoR3x0gYmvVyIXhYlgoDxkh4Z3RsG5Txcvt73kA6tOdxiON43tum4/WTFpTPbl6KTUeuoK78AiZmTcH+c9dRU1OJC4dWI3ved7hTxVUD+vMgmC6PXQTl0jMbMXrx9p4Z5Xq0NNZh28psfHeMvxVJl+exvx6nWLGl9OJBzFmyCSUV1XhQWYGqmp/+C1P9tU583KnXlKRrUB48ToW5eQ6cPWPBJxMlDM6U8NEMI07dcmHhegtOXHPgmzkaDMl8sZA5dJyED+fqseOKG1fLPbh+z41lW7QY3EdheWimhJGbbThbaMHIaSoM6QdhOQlBuR6NzQ24cnwfjuXfRFNrC8qunMTC7PGYPHkiZi7bjJvl9WjmMkWcTU+DX9s3NDXjftExrNh7Ag0NsQ/uNTXU4cTBjThYUIoWriBAxynsuKmpCSWntyMjcyKys6di0uTJ2Hv+Nprolm5T2K1oXNI1KA8ZJ2HcCS/gCWDWMjXe/qYLWRe9CBu9mLPVgsL7Lkyap8GgcZIyKyxmmgeMkzB4XM9s83gVxIz0O2NUGJ6lwqAxYiY6FqqHZUoYMVePG91h6LsDuHTDiYIyN9bt1WPg2J799cw0iyA+LFOlzGCL2ef4/Qzs+flAZZ+x+xwgZsDFdcZISvCNzxiL27w7LjYzLo5D/Pytb7rwxT47bt624bMZKmW/yvVGSxAzzMptxe3E4+qZVRfhXvn+ift+sUbhdcxIJyUoC+QiYMQ/WS3O7WxpaY2to9wiZpJ5ygVnMFJvBuOnnhPFb5M4P/nxMTf18t37cn79uEasRWrUQizHKU59U9axb2l5NC7z+UmN54fPQ+LnIV2DsgizH0w3oNUXxfcHdXjrm24UtMqoumnDyGlGnCl24PNZanyYY8DRWx4UP/Bg92EjsndZce6yDZ9lSph+zoWCAhNGzOjG6gIXtuzqVmaMB42VsLDIB6/ejxnfqvDWv2LheOBYFX4/W4/DxR7cqPDih1tOZM1S429rTDhV4saJQheuP/Bg+04L9n7vUu5z004dhmbpcey6C7uLHLh4z4PCGw58k63Cl9ssKLjnxY0qLw7nmvDnKWqs+cGNC1dduHzDgSknHThdYMbfv9Vg7iknfrjvwfVSB0ZOV+OrDRZcuu9F8QMv8s5Y8KcsCV/stuPyTQeOFrtxs8KDVZu1GDKOQfmJUMGBIPFAwLqwLjRAAzRAAzTwYwPpGpTFLPCA8WpsvC9DW2/FR6vNeGgLY98WDf4yz4lgWMaUtQbktch4eM+J5bkuGC1BHLvvgc4YwJLlOlzXRQGnHxM2GFFpi+DQag0GZohQ3I1TVSF0lTvxNzH7K86BzpIwcIIWJ2tD0Gp82JRrQ7k6jI5qB7IP2mGPAPdK7DhVGQTkCK78YMfVthCs7W6MyzKjwxOF1OrBlhMOdNoiuP2DBbN2W7DlsBlrLvoQ9oYwZ5Mel/RR+LUeZM9V44trfgRNLny7yQZzNIofLtuw45wdE9ZZ0OCI4F6JA1vOOWHwR3DmkBHT8/0AwjiZb8P3HTKsD90YM0nCoDQ5bSNpM8p84f/4hc+asCY0QAM0QAM08O8NpG1QHh87XWLCPgc0xiDOnvVAq/fh80wJH+c44faHsGSHDepgFB3VHly45YPJLmPnCScqpCAOl3hwuyWI+odB3Cl0Q6X14p/ZsXOBB45RY19FEIZ6F/4xpgtvj5Uw8F9deGupGY2OCI4c0uC/R3ZiymEnrPoA9ufaoXeFsHyZhI9XuBAMhZQZ4/GnnDB3ejF9ghntzgh279Th/36ixv6yENQ1bmSvNiH3hguXSwOQgzJythlwSRtB4zUD3vmmC58X+uA3uZG5XIfzzSF0dPhx8owZMw57EfQE8GW2Cr/8UsKhVhnaMhsWfO+Hx+LFnzK7MCXfA7fJh2nzJcRO/0j9mWUG5V6/Tufg9e8HL9aINaIBGqABGki2gXQOysMzJQyca8Tt7iiiwSgqLxsxYHQXRuY44Q2GMHuLEfdtUTSWObFivwW7zlqRMU+NDZUBBMJRXC+0YkuhH75ABHXXzPgwM3aesDjX97PdDrhDYeTnWzF5tQEzNhvxzVozyrRhVN614bNvdThQFoCxw42Fh+wwOUNYsVTCqOWxoPzVTDUyTjlh7BBB2YRWZxQ3i6z4dL4RpR0yKlu9uKOLoKPWhR1nvAjJYeRsN6BAF0HDFSMGje7C50U+BM1uTFiqReZ3euSc88CPMAqOuGAJhrF7txH/XGpQZsOLz5gxM98Pr8WLv0yUML3AA4+RQZmnXTB80wAN0AAN0AANvLCBtA7K41UYOFqNzSV+hPwhLF6uVT7M9slCB4z2ILIWaTHxmAvtBhm1rQHU17kxeYaEUVtccARl7FulxueHHbD6ZGzbplc+3Bf/ENuQcRosOu2CxhGGySLDbJWx/4Ae32yyocUoo0MdQrfWj1XrujFqtw2SIYDFiyV8utQJsz2IL2eoMfaYA+2NHkyZYEKzNQKVLoB6dQhayYuJK/U4UB6AThdERX0AVkcQczcZcKZDxv1LBiUof5bvhVFyYsY6K2pUQdS2B9Fc40LWt91Ye8WLbnEcuhCaal34cqYa48/5YFB78OeJEqacc0MneTB5roSBL7jyR7wWffUvZ5Q5kL3wQJbsGQXun7NWNEADNNA/DaR7UBYhbsREFT6crMbQnvWUR0xQ4cMpaowYr4JYZu39KWr8KVuDjyapMEKcr5ulwgdTYl8Pm6DGB5PVGD5B9Wg9ZiUYZqkwOEPC+5PV+H22Gh9NVeN3E8RlKrw3WY0/ZKvx4SQ1hmSoMGKCWrl/8fPYfauU+x4xUY0PJqnwu4kWaFxhbDtgVH7+wUSV8iG7EeNj+/39ZJVyDOK2701SQ/w89rhi96Hsc6oGf8xW4/3xkrLknVht48OpavxxqhrvjVcpl8Xv79FtJ6uV+1MeTxr8eW4GZQbCpGx2AAAaIElEQVRlBmUaoAEaoAEaSCkDb0JQFsH36T/K0ft78XV8i4dG5ftHf6jkp8/fjd/u6evHL1f299T9i589vlzC8IkmNGhDWLtDryz9Fv95fB/iD6bEL1MeS69QG7+893Uf7zvx4+r9c+XrXvtL5e8ZlDk4ptTgyNmj/jl7xOedzzsN0EBvA29EUE6DIPiemG1Og+N8nUGaQZlBmUGZBmiABmiABlLKwKOgnFeN32QbMCJL6hd/Lvl1BkLed+IZ/BEZEn6x1Ixjl2+gsvw+6uqe/OumeMZ//9W7++PXnA2gARqgARqgARp4FQZEUK64cxtzT1ZiwBwJwzLEeb1qDOPGGvShAWFuRGYn/t/KbpwsLMaDynIG5VfxAuc++EZBAzRAAzRAAy9uQMzaVZTfx5nL1/CPXfV4e70G76xTc2MN+tTA2+vUGLhBhakH7uPa9RuoqnrAoMyB7cUHNtaOtaMBGqABGngVBkRQrqqqQlnpbRQWFuDUmVM4fuI4juUd5cYa9JmBvJN5OHvuLK7+UIR79+5C/KaDp17wPLWUOk/tVQy43AffuGmABmgg/QzEw/L9+/dQWlqKW7ducWMN+tTA7Vu3UFZWhvLyclRXV/8oJItx5Vn/8RxlhmqGahqgARqgARpIqoHa2lplJk/M5nFjDfragPAnmranZ5LjzTeDMgfApA6AcWj8N/1me/ic8TmjARqgARro7wYYlBmUGZRpgAZogAZogAZogAYSGHhmUBbT0dxYAxqgARqgARqgARqggf5o4JlB2Wg0ghtrQAM0QAM0QAM0QAM00B8NPDMoh8NhcGMNaIAGaIAGaIAGaIAG+qOBZwblUCgEbqwBDdAADdAADdAADdBAfzTAoMxmgM0QDdAADdAADdAADdBAAgMMygmK0h87Jj5mzhTQAA3QAA30tYFgMIhw0I9o0IdwwMONNehTA5GAV7EnBwI/2SQwKDMo/ySOvh4weX98k6YBGqCB/mMgEAjA63HjgcqOcw02nK234ky9hRtr0IcGrLjUZEOXwQG/zwvRuD09BjEoMyj/CMXTSPh9/3nj4nPN55oGaKAvDIhAEvC6cavVhE/36vGrb/X42SwDfs6NNehDAz+bacCAHC0mnTZCY7Qi4Pf9KCwnLSjLsgz5BULoi96uL17YvA++gdAADdAADdDAyxsQs8k+pwVri/V4e0Y3fpfRhRGZEjfWoM8NvJ/ZhV8sM6GyXQufx/3qgnI4HHkUsqPRyBOzknIoAIfVCpc38Tkf4SgQDssIhWREItHHgTrog81ihSfw8i9CDmSs4X9uIIxoNIpIOF6zsGI7ZjR+Gf/9z+vJWvV9rWREo0AkIsZV1p81SH0Dfr8fLosBy65241dTdRiRJWH4eBU31qDPDYgG7ZfLzLjT1Am30/FqgrIckWFVNaAo/wxOnz6Dmw1aIBqBmA1WArTsROmF86jstCMSiV8eVn4ekYNQP2xGu9EDhBxobmiHwx+ELEcQ8WhRdDIfDy1BRMJhyD3rOMdnpmP7DyMs882AbwSv6o1ANGsuNN6/j06TF5FwBNGoE1W3ytBmcCGiNHSv6r64H7pNhgHR2LlRW1qGZq2DZtkopEWzJIKy06zH0itq/JpBuc/DIZuSx01ZPCiX1rfD5bC/iqAsI4owqs9uw+oth3D1Wj5Wf7cCZe0OhAIu2C0mGEw2eH0BBENBeF0eeFxWaFRaOPwy4NUjd/0SbC6ohuxqw9a1R9DuCvSE3yB8Xj+CcgBelxsumwmabgPcQRHAw5ADLmg1KuitbuV7vukm4023f+0zEgVsrUUYM+pTnK6xA34DLh3cgemzpyL3jhrAk78tobn+5SPln285jLDXgqKjezB79mTsvNlBswzKaROU7SYtlhSpGJQ5i/xaG4V4UL5d3/Yqg7KM6vMHcOluu/Ir6porB7DnZjuu7J2GWTkbcfpSEQ6s2Ik7Bg2KNi5FzvLNWLXiWyzeehHqhhLMGPcFxs1dg/r2FuzZkodOEZTDUUQdzdg8by8ehtQ4NHs2lm3YjsU5M7H5eBlkOYTrF3Zi9aolWL52I6o6ncqsc8q/kXHQTtlBWw5HEXapcGrPIaxeOQ0Xai1AJISA24kLR1fjCINyyj53fN33blgCCHg9uHJyLXbfEGMymzv66O0jNb8WM8oMyo9nNTnD+/pqkbSgXHN+Lw6dK4FG/QD7V61CSZsH+Vun4dgdPQArDudsRqlBjUurl+BgUTsQsWDf6rmo1Hhw/dhOHK/QA6FO7NzUOyg3YeO3u9EaVGHfjIUobHZDNlVj/fp1qHpwA8tztqFRZ0f5qVVYdfq+cl4pB8TUHART/3mRgXAQJZd24WpVF64eXYj8ejuAsHL5xSOrcaRMxdDBRi8tmgVx6tu1k2uxi0E5LZ6v1B8fk/++wqD8+oIhQ/mTtU9SUA6j7uJ2zJ41D6vXrsUP1VolYJzbMwcFjU4gasThRVuUoHx53RoU1lgA2YOLeZtxr92CK4e24ki5Dgh2YufmE1D5Yh+egjMWlFuCEo7MX4NKo/i9eCcOHt+P0tuXkDNmNtbv2IaNGzfieEkTohHOnHDAfbEBXYgzVZzEmCnf4mjeCSyc+jnm7vsBTl8IiATBoPxidaXH11M3RMIMymzq0qpJSOegPDRDwrtjJQztOWViWFbs+yGZEgaIy7OeDGLPG0zF/sV+BoyJbYMzX25/L3L/746TMOwlH8fz3u/run6SgrKMB6d341xpm3LqRTQiIyoHcGrbNJyvtQNRA/bPXY8SvYT875Yjv8IIyC6cy12HO+023Dy6BZvP34XP0Y7Ny7ejpK4ZD9slWDRVWDd9O5qCXTgwcznu6iKAtQ27D+5GbUMtNm/cgMpWCdpuPdz+0OPVMjhAptUAmQphSg7LcBi6UHWvDHfvlGHD/K+x+mwFAkFZCcrnDi7DgdsSZ5T52kqL15YIykXHVmLb1Yc0S7NpYTZdg/LgsSosKXDj3k07Rk2WMDBDwh/mW1DW7MXqHXbcrvNg/AINBme8WLgdOk7C31YYkV/tR2NHAM0dfmzdp8OgcS+2v+cNn0MyJPxznxPlFQ58PlOFvg7pz3u8r+L6SQjKIYSjMjS1d1HTpldWphDBJywHUVOWjzqtBwg7cf9yCdodVjRcv4oGlRNR2YfaymK0W4NwqCpxeNd21HQZUHLqEDas34B1W3fj5oN6lBbchT5oQfmlq5DsMiJuE+7cL4PFH0Z3zRXs2LgWGzbuQ5VKfLo7nBYDQioEQx7Dj2f65F5LHDbdvYR6nQeIyBArs9SVX0V5hzhnmcZo58d2Uq0mYnWW5gfXUNpqpFkG5bR4X0zXoDxknAiSbkT8QcxfqcHbX3dhxlU//GoPslcbsf+yHWO+1WDQOAkDx0kYNDb2rwig4nsxCy32MWCcSpmxHTxOehRGh2VK+GCJCbX2CNoaPNhx3Iqd5+2Yv0mLgWMkDBwrKfsVM80iwA7LVMUuF/vuuR8R3JXrZUgYNv7x5YN6ZqmHZKogZqzF8YljG9Azcxw7ptgxfrbViqMXLPh4mkqZ1Ra3FfsVM8yDe/Yj7iM+ex6fARePL37fryLA9tU+khKUxZuE8uG7p5bOikSjj9dHFmsl96yTHF+fVvm5+EMkPQElEglDrDoQ/y8SjUC5TkisCRpFWA4hJMe+FkvEifuM/8dlu1L/zTvVwsSzjke4623qsWXW+Vl1489Sx0dYGGZjlxYhka+bENI1KIuw+F62DlXOKG4d1+OtsVpc7ZBx54oFn8yw4E6DB1/P1eCva8y43hhAXXsAFwusWHDcgTt3Xfh6vISlN32ovmvF+99qsfeOH7kHu5UZ40FjVFh90w+HyousqRJ+O/rx6RcfLzHhmtjfwwAaWryYt1iDkZvNuN0cQMk9L+qlAM6fdiD/rhfNqiDy8gwYkWnEtRofLlV4UNYSQG2DB1PnqJBx0I57TX7UdAVx7bINI6drsLfSj8oaH0pKnZhx2Y2yu1aMWtCNjTe8eNDsR12jB198240p+x2obA+goTOIWyV2fDpZhTFHXKht9OJKjQ9NXQEcPKjH8LEiqPfNLPjLBuqkBWW+0FPnDZLPBZ8LGqABGqCBdDKQrkF5eJYK72apsao4CEOrHR9vNKPLHsa2VWr8eb4TflnGtA0GFKojqL9qxdQtdhisIRy/54XGGMSKtQaUaKMIOwKYs8WEWkcY25ZoMEic3zymG6erQ+i878TfRksYIoJmloSBU3T4vkNGW5MLs9aZUNgYgq7VhTkH7bCHo7hyyYyt1/zKaVcnTpqRVx2AvcuDCePNaHNH0VLpxJwtFtToI6i+bcWUdUbM32TAnCMehAMy5m/V45IuCmenC19M7MKoK34ETC7M2WyHE1EUnLNg0V4zstbbIPkjuHjWijm7rWj3RHD1lAkz8/3Kb2O3HzDhcG0Izi4Pxk+VMChNznFmUOav4TjDQgM0QAM0QAMpZSBtg/J4FQaPkfCvnXZ0mUK4UeiDRu3B38ZJ+DjHqXx+askOGzSBKKRGL65X+iFpA9hwwI47nUGcrfShpD6Au/VB1N7yQpLcGDlFpXwAcOAYNbbdDcDS6sEXGRLeEh/m+6YLv11mRqMzgtyDGvz3p52YcsgBqy6A/bl26JxBLFvahU+WuRAIhvDlVBUyTzhh7PBi+gQzOpwRbN+hw//5RI39ZUFIdW7k7LbiSpUXN8uDkIMycrYZcEkbQf0PBgz4Vxc+L/QhYHJjzJJu7LztQ4sqiNvFNuQc8yHgDuCf2Sr88ssuHGyR0V1mw4Lv/XCbvfhjZhem5HvgNvkwbb44XYMzyin1okunTprHypkfGqABGqCB/mwgnYPy8EwJ70w34KYqopwNWnbagAGju/BpjhP+kIwZm40oNkfQVu7C0j1m7LtoQ+Y8FZaVBZTrX7tkwprLPrEYKaoum/G+cj5x7Nzhv663wRyMoPyuE6v2m7Ehz4ZpW8y42hnGw0YXslebcLEuhO5mJ2YdtMPskvHdMgmjlrsQCsv4eqYamaddMHX4MGOCCS3OKB6U2jFpvRX12jBKGz24Z4igo9qJnee8yh9vy9lhRIE+iqYfjBg0ugufF/kRsrgxdaUBc7cakXPaDT8iKDjohDYQwfnTFmRvtaDNHUHBMROm5wcQtHrxl4kSpl/2wmvyYTqDMge4/jzA8bHTPw3QAA3QwMsYSOugrMwqq7CswA1J48O0Rd3Kh97+Ns+Ghk4fxszvxpfbbbjbFkBFox937jqRMU3CyO/saBGzy4vV+PsuG5rUfixfr1U+VBc/z3bIWDUm7rahQgqhTRXEQymALTt1+NtSM0paA6hvC6C+wY2Zi9QYucWCihYv5iyU8MkiOxo7vRg1XYWv99tw764TWRPMaLVG0Njpx/3WAKprXPhirhYbrnjR2OFXzm1u7PBh+lo99lcFUHRKj8FjujDyhAv1tXZMWmXBrZYAKpr8KLlhw6hpanyb50RtZxANHQHcvGnD3yarMPaYG3X1TvxpooTMo07U1rqQ+a2EQX28rF28hs/7L0+94K/bOPNPAzRAAzRAAyllIN2DsghjYiULsXLEkJ5zccV6yuJ78YE/8TOxosXQTEn5WqytLFa1UK4vVp4QX497fNve4U6sLCF+pqyIIa7T6/pihQnl8ozHq2Yo+47f9/ie+xnXhWETLdC5I9i8R4+3vumK3V9m7NiU4+s5fnH7+D7FcQzruX/l8gxx/7HjeXQ9cUy9riOuP7hn+TrxGMW+0mkNZgZlDo4pNTi+zAwEb8sZLBqgARp4Mwy8CUG5d7hNva8ljJhoRHG9D0s26ZSl6VLvGFPjHGYGZQZlBmUaoAEaoAEaSCkDIig7TDosvaLCr6fqMCJLAoPcqw6OsXWNxYw0a/vTNWBQ5uCYUoMjZ4PejNkgPo98HmmABl7GQDwoL2FQZoh9zestj8iQ8POlZtyub4fLYUcwGHwiN8X/fkeif//rZV4EvC0HURqgARqgARqggUQGAoEAnBYjtt6UMDhHhUGZagzM0nBjDfrcwLCJEgat0+J+Uyc8LieDcqIXLC/jQE4DNEADNEADfWdACcoOBxpa2jDrXDv+uFeNP+2V8Kc93FiDPjSwV4W/HlBhy5UWqNVqeDweBmUOhH03ELLWrDUN0AAN0EAiA+LX216vF2aTEZ3tD1FfU4nqynuoqrjLjTXoMwM1D+6juaEGGqkTNptN+dPqT3tNdMpF/DKeesHzm584T+dpPPyeb4A0QAM0QAMvaiAelh0OBywWC0wmEzfWoM8NWK1WOJ1O+Hy+H80mC9vP+o9BmUGZQZkGaIAGaIAGkmpABGZxKob4gB831qCvDQh7T3+Ar3fzx6DMATCpA2BvbPyaM080QAM0QAM0QAPpZIBBmUGZQZkGaIAGaIAGaIAGaCCBAQblBEVJp06Hx8rOnAZogAZogAZogAaSY4BBmUGZHSQN0AAN0AAN0AAN0EACAwzKCYrCriw5XRnryrrSAA3QAA3QAA2kkwEGZQZldpA0QAM0QAM0QAM0QAMJDDAoJyhKOnU6PFZ25jRAAzRAAzRAAzSQHAMMygzK7CBpgAZogAZogAZogAYSGGBQTlAUdmXJ6cpYV9aVBmiABmiABmggnQwwKDMos4OkARqgARqgARqgARpIYIBBOUFR0qnT4bGyM6cBGqABGqABGqCB5BhgUGZQZgdJAzRAAzRAAzRAAzSQwACDcoKisCtLTlfGurKuNEADNEADNEAD6WSAQZlBmR0kDdAADdAADdAADdBAAgMMygmKkk6dDo+VnTkN0AAN0AAN0AANJMcAgzKDMjtIGqABGqABGqABGqCBBAYYlBMUhV1Zcroy1pV1pQEaoAEaoAEaSCcDDMoMyuwgaYAGaIAGaIAGaIAGEhhgUE5QlHTqdHis7MxpgAZogAZogAZoIDkGGJQZlNlB0gAN0AAN0AAN0AANJDDAoJygKOzKktOVsa6sKw3QAA3QAA3QQDoZYFBmUGYHSQM0QAM0QAM0QAM0kMAAg3KCoqRTp8NjZWdOAzRAAzRAAzRAA8kxwKDMoMwOkgZogAZogAZogAZoIIEBBuUERWFXlpyujHVlXWmABmiABmiABtLJAIMygzI7SBqgARqgARqgARqggQQGGJQTFCWdOh0eKztzGqABGqABGqABGkiOAQZlBmV2kDRAAzRAAzRAAzRAAwkMMCgnKAq7suR0Zawr60oDNEADNEADNJBOBhiUGZTZQdIADdAADdAADdAADSQwwKCcoCjp1OnwWNmZ0wAN0AAN0AAN0EByDDAoMyizg6QBGqABGqABGqABGkhggEE5QVHYlSWnK2NdWVcaoAEaoAEaoIF0MsCgzKDMDpIGaIAGaIAGaIAGaCCBAQblBEVJp06Hx8rOnAZogAZogAZogAaSY4BBmUGZHSQN0AAN0AAN0AAN0EACAwzKCYrCriw5XRnryrrSAA3QAA3QAA2kkwEGZQZldpA0QAM0QAM0QAM0QAMJDDAoJyhKOnU6PFZ25jRAAzRAAzRAAzSQHAMMygzK7CBpgAZogAZogAZogAYSGGBQTlAUdmXJ6cpYV9aVBmiABmiABmggnQwwKDMos4OkARqgARqgARqgARpIYIBBOUFR0qnT4bGyM6cBGqABGqABGqCB5BhgUGZQZgdJAzRAAzRAAzRAAzSQwACDcoKisCtLTlfGurKuNEADNEADNEAD6WSAQZlBmR0kDdAADdAADdAADdBAAgMMygmKkk6dDo+VnTkN0AAN0AAN0AANJMcAgzKDMjtIGqABGqABGqABGqCBBAYYlBMUhV1Zcroy1pV1pQEaoAEaoAEaSCcDDMoMyuwgaYAGaIAGaIAGaIAGEhhgUE5QlHTqdHis7MxpgAZogAZogAZoIDkGGJQZlNlB0gAN0AAN0AAN0AANJDDAoJygKOzKktOVsa6sKw3QAA3QAA3QQDoZYFBmUGYHSQM0QAM0QAM0QAM0kMAAg3KCoqRTp8NjZWdOAzRAAzRAAzRAA8kxwKDMoMwOkgZogAZogAZogAZoIIEBBuUERWFXlpyujHVlXWmABmiABmiABtLJAIMygzI7SBqgARqgARqgARqggQQGGJQTFCWdOh0eKztzGqABGqABGqABGkiOAQZlBmV2kDRAAzRAAzRAAzRAAwkMMCgnKAq7suR0Zawr60oDNEADNEADNJBOBhiUGZTZQdIADdAADdAADdAADSQwwKCcoCjp1OnwWNmZ0wAN0AAN0AAN0EByDDAoMyizg6QBGqABGqABGqABGkhggEE5QVHYlSWnK2NdWVcaoAEaoAEaoIF0MsCgzKDMDpIGaIAGaIAGaIAGaCCBAQblBEVJp06Hx8rOnAZogAZogAZogAaSY4BBmUGZHSQN0AAN0AAN0AAN0EACAwzKCYrCriw5XRnryrrSAA3QAA3QAA2kkwEGZQZldpA0QAM0QAM0QAM0QAMJDDAoJyhKOnU6PFZ25jRAAzRAAzRAAzSQHAMMygzK7CBpgAZogAZogAZogAYSGGBQTlAUdmXJ6cpYV9aVBmiABmiABmggnQwwKDMos4OkARqgARqgARqgARpIYIBBOUFR0qnT4bGyM6cBGqABGqABGqCB5BhgUGZQZgdJAzRAAzRAAzRAAzSQwACDcoKisCtLTlfGurKuNEADNEADNEAD6WSAQZlBmR0kDdAADdAADdAADdBAAgMMygmKkk6dDo+VnTkN0AAN0AAN0AANJMcAgzKDMjtIGqABGqABGqABGqCBBAYYlBMUhV1Zcroy1pV1pQEaoAEaoAEaSCcDDMoMyuwgaYAGaIAGaIAGaIAGEhhgUE5QlHTqdHis7MxpgAZogAZogAZoIDkGGJQZlNlB0gAN0AAN0AAN0AANJDDAoJygKOzKktOVsa6sKw3QAA3QAA3QQDoZYFBmUGYHSQM0QAM0QAM0QAM0kMDAs4Ly/we/KzHFpULzTAAAAABJRU5ErkJggg==;" vertex="1" parent="1">
          <mxGeometry x="892" y="444.05" width="221" height="77.38" as="geometry" />
        </mxCell>
        <mxCell id="ufcLUfaZhDcKgXgrHdeU-33" value="datapayload" style="rounded=1;whiteSpace=wrap;html=1;fillColor=#dae8fc;strokeColor=#6c8ebf;" vertex="1" parent="1">
          <mxGeometry x="464" y="180" width="131" height="45" as="geometry" />
        </mxCell>
        <mxCell id="ufcLUfaZhDcKgXgrHdeU-34" value="cyclefile" style="rounded=1;whiteSpace=wrap;html=1;fillColor=#e1d5e7;strokeColor=#9673a6;" vertex="1" parent="1">
          <mxGeometry x="470.5" y="258.5" width="132" height="28.5" as="geometry" />
        </mxCell>
        <mxCell id="ufcLUfaZhDcKgXgrHdeU-35" value="heartbeat" style="rounded=1;whiteSpace=wrap;html=1;fillColor=#e1d5e7;strokeColor=#9673a6;" vertex="1" parent="1">
          <mxGeometry x="470.5" y="304" width="132" height="26" as="geometry" />
        </mxCell>
        <mxCell id="ufcLUfaZhDcKgXgrHdeU-36" value="cyclestart" style="rounded=1;whiteSpace=wrap;html=1;fillColor=#e1d5e7;strokeColor=#9673a6;" vertex="1" parent="1">
          <mxGeometry x="470.5" y="356" width="130" height="24" as="geometry" />
        </mxCell>
        <mxCell id="ufcLUfaZhDcKgXgrHdeU-37" value="cyclecomplete" style="rounded=1;whiteSpace=wrap;html=1;fillColor=#e1d5e7;strokeColor=#9673a6;" vertex="1" parent="1">
          <mxGeometry x="473" y="397" width="127.5" height="25" as="geometry" />
        </mxCell>
        <mxCell id="ufcLUfaZhDcKgXgrHdeU-38" value="analogoutput" style="rounded=1;whiteSpace=wrap;html=1;fillColor=#e1d5e7;strokeColor=#9673a6;" vertex="1" parent="1">
          <mxGeometry x="470.75" y="439" width="127.5" height="25.52" as="geometry" />
        </mxCell>
        <mxCell id="ufcLUfaZhDcKgXgrHdeU-39" value="digitaloutput" style="rounded=1;whiteSpace=wrap;html=1;fillColor=#e1d5e7;strokeColor=#9673a6;" vertex="1" parent="1">
          <mxGeometry x="472.5" y="477" width="128" height="27" as="geometry" />
        </mxCell>
        <mxCell id="ufcLUfaZhDcKgXgrHdeU-55" value="" style="endArrow=classic;html=1;" edge="1" parent="1">
          <mxGeometry width="50" height="50" relative="1" as="geometry">
            <mxPoint x="250" y="422" as="sourcePoint" />
            <mxPoint x="444" y="372" as="targetPoint" />
          </mxGeometry>
        </mxCell>
      </root>
    </mxGraphModel>
  </diagram>
</mxfile>
